<?xml version="1.0" standalone="no"?>
<!DOCTYPE svg PUBLIC "-//W3C//DTD SVG 1.1//EN" "http://www.w3.org/Graphics/SVG/1.1/DTD/svg11.dtd" >
<svg xmlns="http://www.w3.org/2000/svg">
<metadata></metadata>
<defs>
<font id="newjuneregularregular" horiz-adv-x="1208" >
<font-face units-per-em="2048" ascent="1597" descent="-451" />
<missing-glyph horiz-adv-x="530" />
<glyph unicode="&#xfb01;" horiz-adv-x="1226" d="M41 956v138h182v118q0 172 86 263.5t242 91.5q66 0 229 -33l-22 -139q-147 33 -209 32q-94 0 -134 -53t-42 -172v-108h688v-1094h-158v956h-530v-956h-150v956h-182zM879 1466.5q0 53.5 27.5 84t74.5 30.5t74.5 -30.5t27.5 -84t-27.5 -84t-74.5 -30.5t-74.5 30.5 t-27.5 84z" />
<glyph unicode="&#xfb02;" horiz-adv-x="1210" d="M41 956v138h182v118q0 172 86 263.5t242 91.5q94 0 352 -37l154 45v-1575h-152v1393q-246 35 -356 34q-96 0 -136 -53t-40 -172v-108h354v-138h-354v-956h-150v956h-182z" />
<glyph horiz-adv-x="0" />
<glyph horiz-adv-x="0" />
<glyph horiz-adv-x="682" />
<glyph unicode="&#xd;" horiz-adv-x="681" />
<glyph unicode=" "  horiz-adv-x="530" />
<glyph unicode="&#x09;" horiz-adv-x="530" />
<glyph unicode="&#xa0;" horiz-adv-x="530" />
<glyph unicode="!" horiz-adv-x="425" d="M115 96.5q0 53.5 27.5 84t74.5 30.5t74.5 -30.5t27.5 -84t-27.5 -84t-74.5 -30.5t-74.5 30.5t-27.5 84zM139 461v1063h156v-1035z" />
<glyph unicode="&#x22;" horiz-adv-x="759" d="M123 1563h166l-17 -410h-135zM471 1563h166l-14 -410h-136z" />
<glyph unicode="#" horiz-adv-x="1445" d="M68 428l22 139h279l71 371h-290l22 137h295l86 449h149l-86 -449h347l86 449h147l-86 -449h281l-23 -137h-281l-69 -371h291l-23 -139h-295l-80 -428h-149l82 428h-352l-84 -428h-152l84 428h-272zM518 567h352l70 371h-350z" />
<glyph unicode="$" d="M102 106l35 146l99 -35q262 -92 423 -92q127 0 218.5 68.5t91.5 203.5q0 102 -54.5 164t-175.5 90l-280 68q-348 82 -348 393q0 197 127 305.5t303 112.5v246h147v-252q123 -14 330 -84l96 -33l-35 -145l-98 34q-260 92 -414 93q-129 0 -218 -67t-89 -204 q0 -102 53 -162.5t174 -89.5l279 -67q352 -84 352 -396q0 -195 -126 -302t-304 -115v-250h-147v254q-131 14 -342 84z" />
<glyph unicode="%" horiz-adv-x="1845" d="M82 1159q0 184 102.5 290.5t276.5 106.5t274.5 -106.5t100.5 -290.5q0 -186 -102.5 -292.5t-276.5 -106.5t-274.5 106.5t-100.5 292.5zM217 0l1233 1524h166l-1231 -1524h-168zM221 1159q0 -135 62.5 -208.5t177.5 -73.5q117 0 177 73.5t60 208.5q0 133 -63.5 206 t-178 73t-175 -73t-60.5 -206zM1012 369q0 184 102.5 290.5t276.5 106.5t274 -106.5t100 -290.5q0 -186 -102 -293t-276.5 -107t-274.5 106.5t-100 293.5zM1151 369q0 -135 62.5 -209t177.5 -74q117 0 177 74t60 209q0 133 -63.5 205.5t-178 72.5t-175 -72.5t-60.5 -205.5z " />
<glyph unicode="&#x26;" horiz-adv-x="1435" d="M102 375q0 276 320 422q-70 76 -103.5 120t-61.5 112.5t-28 146.5q0 180 124 276t311 96q184 0 297.5 -91t113.5 -261q0 -152 -96 -255t-317 -193l380 -418q49 53 79 162.5t30 234.5v182h147v-190q0 -139 -42 -275.5t-113 -216.5l190 -227h-192l-105 127 q-80 -68 -207 -110t-251 -42q-227 0 -351.5 115t-124.5 285zM260 379q0 -111 79 -189.5t239 -78.5q98 0 200.5 32.5t163.5 85.5l-428 465q-254 -104 -254 -315zM377 1176q0 -82 43 -150t151 -178q188 70 274.5 147.5t86.5 198.5q0 100 -67.5 162.5t-200.5 62.5 q-141 0 -214 -66.5t-73 -176.5z" />
<glyph unicode="'" horiz-adv-x="421" d="M123 1563h176l-16 -410h-144z" />
<glyph unicode="(" horiz-adv-x="567" d="M74 698q0 207 28.5 359.5t71.5 240.5t106.5 140.5t122 69t127.5 16.5v-133q-301 -23 -301 -693q0 -186 22.5 -323t52.5 -209t75 -116t77.5 -54t73.5 -14v-134q-63 0 -120.5 17.5t-121 74t-109.5 145.5t-75.5 246.5t-29.5 366.5z" />
<glyph unicode=")" horiz-adv-x="567" d="M45 -18q41 4 74 14t78 54t74.5 116t52 209t22.5 323q0 670 -301 693v133q70 0 128 -16.5t121.5 -69t106.5 -140.5t72 -240.5t29 -359.5q0 -209 -30 -366.5t-76 -246.5t-109.5 -145.5t-120.5 -74t-121 -17.5v134z" />
<glyph unicode="*" horiz-adv-x="1128" d="M106 1174l50 153l356 -145l-31 381h168l-31 -381l357 143l49 -154l-371 -88l248 -295l-137 -96l-199 334l-198 -332l-138 97l250 294z" />
<glyph unicode="+" d="M119 530v146h405v430h150v-430h413v-146h-413v-434h-150v434h-405z" />
<glyph unicode="," horiz-adv-x="425" d="M94 -84l78 297h170l-94 -336q-18 -63 -80 -63q-45 0 -64.5 29.5t-9.5 72.5z" />
<glyph unicode="-" horiz-adv-x="845" d="M123 594v149h600v-149h-600z" />
<glyph unicode="." horiz-adv-x="425" d="M113 96.5q0 53.5 27.5 84t74.5 30.5t74.5 -30.5t27.5 -84t-27.5 -84t-74.5 -30.5t-74.5 30.5t-27.5 84z" />
<glyph unicode="/" horiz-adv-x="839" d="M23 0l641 1524h153l-637 -1524h-157z" />
<glyph unicode="0" d="M137 483v551q0 238 124 372t353.5 134t346 -134t116.5 -378v-539q0 -244 -116.5 -378t-346 -134t-353.5 134.5t-124 371.5zM287 492q0 -377 321.5 -377t321.5 377v534q0 377 -321.5 377t-321.5 -377v-534z" />
<glyph unicode="1" d="M139 0v141h455v1239h-98q-158 0 -232 -37l-39 138q78 43 262 43h121q150 0 150 -140v-1243h368v-141h-987z" />
<glyph unicode="2" d="M125 100q0 55 45 101l528 501q125 117 179.5 210.5t54.5 205.5q0 143 -85 208t-224 65q-137 0 -371 -70l-90 -27l-31 142l88 26q248 76 408 76q197 0 326.5 -103.5t129.5 -320.5q0 -256 -270 -506l-510 -473h784v-135h-866q-45 0 -70.5 27.5t-25.5 72.5z" />
<glyph unicode="3" d="M102 86l33 141l94 -26q274 -76 402 -76q162 0 247 68.5t85 187.5q0 106 -89 205l-108 112h-291v136h293l84 116q68 106 68 209q0 233 -295 234q-113 0 -369 -70l-90 -25l-31 142l88 24q264 74 404 74q217 0 330.5 -99.5t113.5 -277.5q0 -131 -84 -260l-94 -127l115 -121 q106 -115 106 -264q0 -184 -131 -294.5t-348 -110.5q-162 0 -440 77z" />
<glyph unicode="4" d="M74 385q0 47 35 88l651 993q45 70 123 70q106 0 106 -109v-1005h182v-135h-182v-287h-149v287h-670q-96 0 -96 98zM252 422h588v901z" />
<glyph unicode="5" d="M123 80l31 141l90 -24q256 -70 358 -70q176 0 267.5 97.5t91.5 260.5q0 346 -363 346q-119 0 -264 -40l-144 -41v774h852v-148h-710v-450q170 47 286 47q231 0 361.5 -121t130.5 -367q0 -227 -136 -364t-370 -137q-137 0 -393 71z" />
<glyph unicode="6" d="M129 498v553q0 215 125 350t342 135q145 0 399 -70l88 -24l-30 -142l-90 25q-254 68 -363 68q-162 0 -240.5 -90t-78.5 -252v-142q199 63 331 64q248 0 374 -126t126 -362q0 -221 -126 -359t-359 -138q-231 0 -364.5 140t-133.5 370zM281 506q0 -178 91 -279.5 t259 -101.5q160 0 243.5 97t83.5 263q0 344 -360 344q-104 0 -317 -55v-268z" />
<glyph unicode="7" d="M135 1384v140h881q106 0 106 -94q1 -38 -22 -91l-557 -1339h-166l581 1384h-823z" />
<glyph unicode="8" d="M92 379q0 156 107 270l110 121l-90 127q-84 129 -84 258q0 178 125 281.5t342 103.5q223 0 348 -103.5t125 -281.5q0 -129 -84 -258l-90 -127l111 -121q106 -115 106 -270q0 -184 -136 -293t-372 -109q-238 0 -378 109t-140 293zM244 377q0 -119 94 -188.5t268 -69.5 q176 0 268.5 68.5t92.5 189.5q0 106 -88 205l-105 112h-338l-104 -112q-88 -98 -88 -205zM287 1155q-1 -103 67 -209l80 -117h342l80 117q68 106 68 209q0 109 -80 175.5t-240 66.5t-238.5 -66.5t-78.5 -175.5z" />
<glyph unicode="9" d="M102 1036q0 221 126 360.5t360 139.5q231 0 364 -140.5t133 -369.5v-553q0 -215 -124.5 -350t-342.5 -135q-145 0 -399 69l-88 25l31 141l90 -24q254 -68 362 -68q162 0 241 90t79 252v141q-199 -63 -332 -63q-248 0 -374 125t-126 360zM256 1036q0 -342 360 -342 q105 1 318 56v268q0 178 -91 279.5t-259 101.5q-160 0 -244 -97.5t-84 -265.5z" />
<glyph unicode=":" horiz-adv-x="425" d="M113 96.5q0 53.5 27.5 84t74.5 30.5t74.5 -30.5t27.5 -84t-27.5 -84t-74.5 -30.5t-74.5 30.5t-27.5 84zM113 985q0 53 27.5 84t74.5 31t74.5 -31t27.5 -84t-27.5 -84t-74.5 -31t-74.5 31t-27.5 84z" />
<glyph unicode=";" horiz-adv-x="425" d="M94 -84l78 297h170l-94 -336q-18 -63 -80 -63q-45 0 -64.5 29.5t-9.5 72.5zM145 985q0 53 28 84t75 31t74.5 -31t27.5 -84t-27.5 -84t-74.5 -31t-75 31t-28 84z" />
<glyph unicode="&#x3c;" d="M102 604q0 74 74 105l934 374v-170l-834 -313l834 -311v-164l-934 373q-74 27 -74 106z" />
<glyph unicode="=" d="M119 367v149h968v-149h-968zM119 707v149h968v-149h-968z" />
<glyph unicode="&#x3e;" d="M100 125v164l834 311l-834 313v170l934 -374q74 -31 74 -105q0 -79 -74 -106z" />
<glyph unicode="?" horiz-adv-x="935" d="M66 1450l86 27q168 53 329 53q176 0 282.5 -89t106.5 -247q0 -109 -37.5 -183.5t-117.5 -158.5l-189 -197v-168l-145 -26v127q0 72 11 105.5t57 80.5l147 156q74 80 100.5 131t26.5 131q0 92 -61.5 144.5t-182.5 52.5q-129 0 -297 -48l-88 -24zM352 96.5q0 53.5 28 84 t75 30.5t74.5 -30.5t27.5 -84t-27.5 -84t-74.5 -30.5t-75 30.5t-28 84z" />
<glyph unicode="@" horiz-adv-x="1910" d="M180 721q0 360 229.5 590.5t585.5 230.5q322 0 533 -200t211 -511q0 -225 -120 -372.5t-280 -147.5q-49 0 -112.5 28t-87.5 28q-39 0 -123 -16.5t-137 -16.5q-158 0 -242 97t-84 247q0 188 112.5 317t311.5 129q76 0 211 -16l8 72h129l-94 -709q57 -45 119 -45 q96 0 176 112.5t80 295.5q0 258 -175.5 417.5t-435.5 159.5q-303 0 -490.5 -193.5t-187.5 -496.5q0 -272 159 -447.5t427 -175.5q102 0 249.5 40t217.5 40q68 0 127 -33l96 -57l-51 -100l-94 45q-39 18 -86 18q-51 0 -202.5 -37t-268.5 -37q-326 0 -518.5 212t-192.5 532z M686 674q0 -100 52.5 -164t156.5 -64q49 0 209 29l70 522q-106 14 -197 15q-145 0 -218 -96.5t-73 -241.5z" />
<glyph unicode="A" horiz-adv-x="1402" d="M31 0l553 1452q31 86 123 86t122 -84l543 -1454h-168l-131 344h-747l-131 -344h-164zM371 477h657l-323 897z" />
<glyph unicode="B" horiz-adv-x="1388" d="M164 139v1250q0 63 38 99t107 36h504q188 0 296 -93.5t108 -271.5q0 -129 -84 -258l-93 -127l121 -125q115 -119 115 -268q0 -176 -121 -278.5t-330 -102.5h-512q-70 0 -109.5 38t-39.5 101zM317 133h519q139 0 213.5 64.5t74.5 175t-94 209.5l-115 118h-598v-567z M317 831h596l84 119q68 107 68 209q0 233 -254 234h-494v-562z" />
<glyph unicode="C" horiz-adv-x="1374" d="M113 758q0 381 187 577.5t491 196.5q145 0 399 -78l106 -33l-30 -143l-113 35q-239 73 -357 73h-3q-246 0 -381.5 -154.5t-135.5 -473.5q0 -317 137.5 -473t381.5 -156q117 0 358 74l113 35l30 -144l-106 -33q-251 -77 -395 -77h-4q-309 0 -493.5 191.5t-184.5 582.5z " />
<glyph unicode="D" horiz-adv-x="1495" d="M164 139v1245q0 63 40 101.5t109 38.5h392q309 0 493 -205t184 -561.5t-187 -557t-497 -200.5h-385q-70 0 -109.5 38t-39.5 101zM322 139h370q254 0 393.5 162t139.5 457q0 291 -144.5 461t-402.5 170h-356v-1250z" />
<glyph unicode="E" horiz-adv-x="1261" d="M164 139v1245q0 63 40 101.5t109 38.5h830v-140h-821v-536h722v-137h-722v-572h827v-139h-836q-70 0 -109.5 38t-39.5 101z" />
<glyph unicode="F" horiz-adv-x="1183" d="M164 0v1384q0 63 40 101.5t109 38.5h809v-140h-800v-565h733v-135h-733v-684h-158z" />
<glyph unicode="G" horiz-adv-x="1482" d="M113 756q0 381 195.5 577.5t512.5 196.5q150 0 418 -78l111 -33l-33 -143l-117 35q-251 73 -378 73h-3q-260 0 -402.5 -154.5t-142.5 -473.5q0 -315 152 -474t410 -159q152 0 362 41v424h-379v135h383q68 0 108 -38t40 -101v-398q0 -63 -30 -97t-95 -50 q-207 -55 -389 -55q-326 0 -524.5 192.5t-198.5 579.5z" />
<glyph unicode="H" horiz-adv-x="1464" d="M164 0v1524h155v-682h826v682h155v-1524h-155v707h-826v-707h-155z" />
<glyph unicode="I" horiz-adv-x="485" d="M164 0v1524h158v-1524h-158z" />
<glyph unicode="J" horiz-adv-x="745" d="M16 27l23 143q147 -35 213 -35q100 0 142 55.5t42 178.5v1155h156v-1166q0 -178 -89 -272t-253 -94q-74 0 -234 35z" />
<glyph unicode="K" horiz-adv-x="1339" d="M164 0v1524h153v-901l746 901h203l-457 -531l479 -993h-168l-428 872l-221 -258q-57 -68 -80.5 -98.5t-48.5 -90.5t-25 -126v-299h-153z" />
<glyph unicode="L" horiz-adv-x="1179" d="M164 139v1385h160v-1383h763v-141h-774q-70 0 -109.5 38t-39.5 101z" />
<glyph unicode="M" horiz-adv-x="1773" d="M164 0v1419q0 115 123 115q113 0 145 -98l455 -1280l475 1282q37 96 133 96q51 0 83 -27.5t32 -87.5v-1419h-144v1327l-473 -1264q-27 -71 -108 -71h-2q-88 0 -113 71l-465 1266v-1329h-141z" />
<glyph unicode="N" horiz-adv-x="1509" d="M164 0v1427q0 111 106 111q74 0 117 -65l813 -1258v1309h146v-1424q0 -110 -105 -110h-2q-74 0 -117 65l-813 1258v-1313h-145z" />
<glyph unicode="O" horiz-adv-x="1624" d="M113 758q0 365 193.5 569.5t510.5 204.5q315 0 504.5 -203.5t189.5 -570.5q0 -369 -192.5 -571.5t-511.5 -202.5q-315 0 -504.5 203.5t-189.5 570.5zM270 758q0 -305 146.5 -473t400.5 -168q252 0 393.5 167t141.5 474q0 303 -145.5 470t-399.5 167t-395.5 -167 t-141.5 -470z" />
<glyph unicode="P" horiz-adv-x="1288" d="M164 0v1384q0 63 40 101.5t109 38.5h441q195 0 318.5 -125t123.5 -336q0 -213 -128 -337t-337 -124h-416v-602h-151zM315 735h416q150 0 236 87t86 243q0 152 -84 240t-224 88h-430v-658z" />
<glyph unicode="Q" horiz-adv-x="1583" d="M113 757.5q0 364.5 193.5 569.5t510.5 205q315 0 503.5 -203.5t188.5 -570.5q0 -254 -104.5 -428t-294.5 -254q152 -76 303 -76h68v-131h-68q-143 0 -310 65.5t-278 65.5q-326 0 -519 196.5t-193 561zM270 758q0 -303 145.5 -464t401.5 -161q254 0 394.5 160t140.5 465 q0 303 -145.5 470t-399.5 167t-395.5 -167t-141.5 -470z" />
<glyph unicode="R" horiz-adv-x="1349" d="M164 0v1389q0 63 38 99t107 36h490q199 0 308.5 -104.5t109.5 -303.5q0 -147 -115 -295l-121 -155l317 -666h-170l-290 621h-519v-621h-155zM319 752h560l86 118q100 142 100 244q0 279 -268 279h-478v-641z" />
<glyph unicode="S" horiz-adv-x="1306" d="M123 106l37 146l104 -35q272 -92 453 -92q131 0 225 68.5t94 203.5q0 102 -57 164t-184 90l-295 68q-369 82 -369 395q0 205 138.5 312.5t332.5 107.5q203 0 485 -92l103 -33l-37 -145l-104 34q-272 92 -443 93q-135 0 -226 -67t-91 -204q0 -102 56 -162.5t183 -89.5 l295 -67q371 -82 371 -398q0 -205 -138 -312t-335 -107q-215 0 -496 90z" />
<glyph unicode="T" horiz-adv-x="1261" d="M68 1384v140h1134v-140h-487v-1384h-160v1384h-487z" />
<glyph unicode="U" horiz-adv-x="1478" d="M154 541v983h155v-983q0 -207 108.5 -317.5t321.5 -110.5q430 0 430 428v983h156v-983q0 -266 -152.5 -418t-433 -152t-433 151.5t-152.5 418.5z" />
<glyph unicode="V" horiz-adv-x="1366" d="M31 1524h170l485 -1352l485 1352h164l-542 -1456q-27 -80 -115 -80q-84 0 -113 80z" />
<glyph unicode="W" horiz-adv-x="1865" d="M51 1524h150l245 -1342l379 1264q23 78 111 78t111 -78l370 -1266l250 1344h148l-273 -1446q-18 -94 -119 -94q-96 0 -120 86l-371 1292l-381 -1292q-25 -84 -119 -84q-96 0 -113 94z" />
<glyph unicode="X" horiz-adv-x="1429" d="M92 0l524 768l-518 756h189l436 -641l430 641h178l-510 -752l516 -772h-186l-434 659l-443 -659h-182z" />
<glyph unicode="Y" horiz-adv-x="1327" d="M20 1524h181l473 -723l456 723h177l-557 -862v-662h-160v657z" />
<glyph unicode="Z" horiz-adv-x="1323" d="M113 104q0 41 30 84l885 1201h-893v135h963q102 0 102 -105q0 -41 -31 -84l-880 -1200h921v-135h-995q-102 0 -102 104z" />
<glyph unicode="[" horiz-adv-x="567" d="M145 -133v1657h383v-133h-229v-1391h229v-133h-383z" />
<glyph unicode="\" horiz-adv-x="839" d="M23 1524h153l641 -1524h-158z" />
<glyph unicode="]" horiz-adv-x="567" d="M45 0h229v1391h-229v133h383v-1657h-383v133z" />
<glyph unicode="^" d="M125 88l381 954q27 70 96.5 70t97.5 -70l383 -954h-170l-313 825l-309 -825h-166z" />
<glyph unicode="_" horiz-adv-x="1024" d="M-4 -199h1032v-137h-1032v137z" />
<glyph unicode="`" horiz-adv-x="1110" d="M377 1563h223l166 -160q27 -27 27 -57q0 -25 -19.5 -46.5t-50.5 -21.5q-28 0 -59 27z" />
<glyph unicode="a" horiz-adv-x="1224" d="M102 291q0 174 123 254t318 80h338v127q0 233 -263 233q-123 0 -354 -63l-88 -25l-29 137l86 25q237 67 384 67h4q182 0 293.5 -92t111.5 -282v-576l137 -82l-59 -114l-100 59q-47 24 -94 24q-26 0 -52 -8l-80 -20q-184 -49 -309 -49q-174 0 -270.5 80.5t-96.5 224.5z M254 299q0 -180 235 -180q102 0 269 39l123 28v310h-340q-287 0 -287 -197z" />
<glyph unicode="b" horiz-adv-x="1222" d="M154 188v1358l147 31v-518q195 63 328 63q244 0 367.5 -146.5t123.5 -422.5q0 -258 -136 -409.5t-374 -151.5q-135 0 -336 49q-121 29 -120 147zM301 176q199 -45 303 -45q188 0 276.5 113.5t88.5 310.5q-1 426 -359 426q-111 -4 -309 -55v-750z" />
<glyph unicode="c" horiz-adv-x="1077" d="M102 557q0 274 136.5 421.5t363.5 147.5q98 0 313 -57l91 -25l-29 -139l-92 25q-203 53 -277 53q-348 0 -348 -426t350 -426q72 0 275 53l92 25l29 -139l-91 -25q-215 -57 -313 -57q-233 0 -366.5 141t-133.5 428z" />
<glyph unicode="d" horiz-adv-x="1222" d="M102 553q0 270 131.5 419.5t370.5 149.5q106 0 318 -63v487l147 31v-1389q0 -119 -121 -147q-211 -49 -344 -49q-240 0 -371 146.5t-131 414.5zM254 555q0 -197 88 -310.5t276 -113.5q111 0 304 45v750q-206 51 -310 55q-358 0 -358 -426z" />
<glyph unicode="e" horiz-adv-x="1198" d="M102 555q0 285 143.5 430t360.5 145q229 0 364.5 -139t135.5 -407q0 -92 -86 -92h-762q8 -178 113.5 -269.5t271.5 -91.5q117 0 305 57l113 35l31 -135l-109 -35q-203 -65 -346 -65q-244 0 -389.5 145.5t-145.5 421.5zM258 625h692q0 166 -86 271t-260 105 q-154 0 -245 -101t-101 -275z" />
<glyph unicode="f" horiz-adv-x="759" d="M41 956v138h182v118q0 172 86 263.5t242 91.5q65 0 229 -33l-22 -139q-143 32 -205 32h-4q-96 0 -136 -53t-40 -172v-108h354v-138h-354v-956h-150v956h-182z" />
<glyph unicode="g" horiz-adv-x="1224" d="M102 762q0 172 125 261t340 89h119q150 0 215 18l238 66l35 -129l-242 -70q12 -8 30.5 -24.5t48 -75.5t29.5 -133q0 -172 -121.5 -260t-345.5 -88q-39 0 -70.5 3t-43.5 7l-15 2q27 -31 27 -80q0 -59 -51 -123h389q168 0 257 -70.5t89 -187.5q0 -338 -573 -338 q-94 0 -174 15.5t-147.5 48.5t-106.5 91t-39 136q0 115 80 213l106 129q39 47 39 96q0 66 -78 119q-160 109 -160 285zM248 762q0 -233 323.5 -233t323.5 233q0 227 -323.5 227t-323.5 -227zM258 -74q0 -174 340 -174q414 0 414 211q0 133 -207 133h-477q-70 -76 -70 -170z " />
<glyph unicode="h" horiz-adv-x="1167" d="M154 0v1546l147 31v-520q208 65 324 65h4q211 0 306 -110.5t95 -290.5v-721h-147v715q-1 264 -273 264q-106 0 -309 -53v-926h-147z" />
<glyph unicode="i" horiz-adv-x="491" d="M143 1454q0 53 28 84t75 31t74.5 -31t27.5 -84t-27.5 -84t-74.5 -31t-75 31t-28 84zM170 0v1114h154v-1114h-154z" />
<glyph unicode="j" horiz-adv-x="505" d="M0 -240q100 2 142 57.5t42 172.5v1124h154v-1130q0 -172 -88 -263.5t-250 -91.5v131zM158 1454q0 53 27.5 84t74.5 31t74.5 -31t27.5 -84t-27.5 -84t-74.5 -31t-74.5 31t-27.5 84z" />
<glyph unicode="k" horiz-adv-x="1128" d="M154 0v1546l147 31v-1079l567 616h197l-371 -389l393 -725h-176l-333 616l-132 -129q-76 -72 -110.5 -133t-34.5 -161v-193h-147z" />
<glyph unicode="l" horiz-adv-x="460" d="M154 0v1544l153 33v-1577h-153z" />
<glyph unicode="m" horiz-adv-x="1771" d="M154 0v926q0 109 118 147q150 49 310 49q184 0 278 -94q211 94 383 94q190 0 282.5 -101t92.5 -280v-741h-150v727q0 254 -241 254q-119 0 -295 -66q33 -78 33 -174v-741h-150v727q0 256 -244 256q-121 0 -268 -45v-938h-149z" />
<glyph unicode="n" horiz-adv-x="1193" d="M154 0v926q0 119 118 147q193 49 353 49q215 0 315 -109.5t100 -291.5v-721h-149v707q0 276 -283 276q-123 0 -305 -45v-938h-149z" />
<glyph unicode="o" horiz-adv-x="1249" d="M102 557q0 270 142.5 419.5t384 149.5t380 -149.5t138.5 -419.5t-142.5 -419.5t-383.5 -149.5q-240 0 -379.5 150.5t-139.5 418.5zM258 557q0 -211 97.5 -324.5t273.5 -113.5t270 113.5t94 324.5q0 207 -98 322.5t-274.5 115.5t-269.5 -114.5t-93 -323.5z" />
<glyph unicode="p" horiz-adv-x="1222" d="M154 -381v1307q0 119 120 147q211 49 344 49q240 0 371 -146.5t131 -414.5q0 -270 -131 -419.5t-371 -149.5q-106 0 -317 63v-405zM301 188q205 -51 309 -55q358 0 359 426q0 197 -88 310.5t-277 113.5q-113 0 -303 -45v-750z" />
<glyph unicode="q" horiz-adv-x="1222" d="M102 561q0 258 136.5 409.5t373.5 151.5q135 0 336 -49q121 -29 121 -147v-1276l-147 -31v436q-195 -63 -328 -63q-244 0 -368 146.5t-124 422.5zM254 559q0 -426 358 -426q111 4 310 55v750q-199 45 -304 45q-188 0 -276 -113.5t-88 -310.5z" />
<glyph unicode="r" horiz-adv-x="729" d="M154 0v926q0 115 118 147q179 49 437 49v-145q-242 0 -404 -43v-934h-151z" />
<glyph unicode="s" horiz-adv-x="1122" d="M123 78l29 137l88 -25q223 -63 370 -63q102 0 168 44t66 132q0 133 -195 164l-221 39q-143 25 -221 101.5t-78 193.5q0 158 111.5 241.5t273.5 83.5q168 0 401 -67l84 -25l-28 -139l-88 25q-228 65 -367 65h-4q-102 0 -167.5 -44t-65.5 -132q0 -66 46 -107t148 -59 l221 -39q143 -25 221 -100.5t78 -192.5q0 -158 -111.5 -241.5t-273.5 -83.5q-168 0 -401 67z" />
<glyph unicode="t" horiz-adv-x="835" d="M41 956v138h178v280l150 31v-311h379v-138h-379v-604q0 -119 40 -172t136 -53q60 0 207 33l22 -140q-159 -32 -231 -32h-4q-319 0 -320 352v616h-178z" />
<glyph unicode="u" horiz-adv-x="1193" d="M154 393v721h149v-706q0 -276 283 -277q123 0 305 45v938h149v-926q0 -119 -118 -147q-193 -49 -353 -49q-215 0 -315 109.5t-100 291.5z" />
<glyph unicode="v" horiz-adv-x="1105" d="M51 1114h168l330 -971l342 971h164l-391 -1055q-31 -79 -119 -79h-2q-92 0 -119 79z" />
<glyph unicode="w" horiz-adv-x="1617" d="M72 1114h157l179 -958l305 899q20 68 93 68l1 -1q74 0 96 -67l303 -903l187 962h153l-227 -1042q-18 -92 -115 -92q-86 0 -114 83l-283 869l-297 -871q-27 -79 -113 -79h-2q-98 0 -116 90z" />
<glyph unicode="x" horiz-adv-x="1122" d="M63 0l408 559l-399 555h184l315 -444l299 444h181l-387 -543l405 -571h-184l-322 459l-321 -459h-179z" />
<glyph unicode="y" horiz-adv-x="1085" d="M49 1114h172l359 -979l305 979h168l-426 -1266q-74 -221 -305 -221q-82 0 -222 37l23 139q146 -36 198 -36h3q127 0 159 127l15 55z" />
<glyph unicode="z" horiz-adv-x="1093" d="M102 98q0 47 35 88l686 799h-694v129h774q96 0 96 -98q0 -47 -34 -88l-686 -799h722v-129h-802q-96 0 -97 98z" />
<glyph unicode="{" horiz-adv-x="555" d="M123 643v100q133 0 133 105q0 37 -53 176t-53 231q0 127 77.5 198t202.5 71h86v-138h-86q-135 0 -135 -139q0 -76 48 -210t48 -189q0 -105 -78 -154q78 -49 78 -155q0 -55 -48 -189.5t-48 -210.5q0 -139 135 -139h86v-137h-86q-125 0 -202.5 70.5t-77.5 197.5 q0 92 53 231.5t53 176.5q0 104 -133 104z" />
<glyph unicode="|" horiz-adv-x="444" d="M154 -369v1932h139v-1932h-139z" />
<glyph unicode="}" horiz-adv-x="555" d="M51 0h86q135 0 135 139q0 76 -48 210t-48 190q0 106 78 155q-78 49 -78 154q0 55 48 189t48 210q0 139 -135 139h-86v138h86q125 0 203 -71t78 -198q0 -92 -53.5 -231t-53.5 -176q0 -104 133 -105v-100q-133 0 -133 -104q0 -37 53.5 -176.5t53.5 -231.5 q0 -127 -78 -197.5t-203 -70.5h-86v137z" />
<glyph unicode="~" d="M92 557q49 127 129 186.5t172 59.5q98 0 187 -64l125 -92q53 -41 104 -41q111 0 180 172l117 -76q-94 -246 -299 -245q-98 0 -186 63l-125 92q-53 41 -105 41q-113 0 -182 -172z" />
<glyph unicode="&#xa1;" horiz-adv-x="425" d="M115 1046.5q0 53.5 27.5 84t74.5 30.5t74.5 -30.5t27.5 -84t-27.5 -84t-74.5 -30.5t-74.5 30.5t-27.5 84zM139 -381v1034l156 29v-1063h-156z" />
<glyph unicode="&#xa2;" d="M133 557q0 244 110.5 388.5t301.5 172.5v260h147v-260q86 -8 254 -51l90 -25l-28 -139l-93 25q-203 53 -276 53q-348 0 -348 -424t350 -424q72 0 274 53l93 25l28 -139l-90 -25q-168 -43 -254 -51v-266h-147v266q-193 25 -302.5 164t-109.5 397z" />
<glyph unicode="&#xa3;" d="M59 68q0 70 64 69q92 0 153.5 23.5t89 68.5t38 87t10.5 100q0 72 -31 147h-262v131h203q-76 127 -101.5 177.5t-47 121t-21.5 152.5q0 180 124.5 286.5t321.5 106.5q162 0 401 -74l89 -26l-31 -142l-90 27q-233 70 -365 70q-152 0 -224.5 -68t-72.5 -180q0 -29 2 -52.5 t4 -41t12.5 -44t15.5 -41t24.5 -52t30 -56t41 -74t48.5 -88.5h406v-131h-348q25 -72 24 -149q0 -166 -100 -275h338q109 0 159 39t52 133h125q0 -150 -86 -231.5t-244 -81.5h-688q-63 0 -64 68z" />
<glyph unicode="&#xa5;" d="M55 1524h187l370 -652l365 652h180l-399 -676h350v-129h-418v-148h418v-131h-418v-440h-162v440h-424v131h424v148h-424v129h355z" />
<glyph unicode="&#xa6;" horiz-adv-x="444" d="M154 -369v770h139v-770h-139zM154 795v768h139v-768h-139z" />
<glyph unicode="&#xa7;" d="M119 664v387q0 215 127 350t352 135q145 0 399 -70l88 -24l-30 -142l-90 25q-254 68 -363 68q-168 0 -250 -90.5t-82 -251.5v-142q199 63 332 64q489 0 490 -477v-392q0 -215 -128 -350t-352 -135q-145 0 -399 70l-88 24l31 142l90 -25q254 -68 362 -68q168 0 250 90.5 t82 251.5v142q-199 -63 -332 -64q-489 1 -489 482zM270 664q0 -162 80 -250t273 -88q104 0 317 55v115q0 162 -80 247.5t-272 85.5q-105 0 -318 -55v-110z" />
<glyph unicode="&#xa8;" horiz-adv-x="1171" d="M252 1454q0 53 27.5 84t74.5 31t75 -31t28 -84t-28 -84t-75 -31t-74.5 31t-27.5 84zM721 1454q0 53 27.5 84t74.5 31t75 -31t28 -84t-28 -84t-75 -31t-74.5 31t-27.5 84z" />
<glyph unicode="&#xa9;" horiz-adv-x="1910" d="M152 752q0 346 232 572t570 226q336 0 568.5 -224t232.5 -574q0 -344 -233.5 -573.5t-567.5 -229.5q-336 0 -569 229.5t-233 573.5zM279 752q0 -293 195.5 -485.5t479.5 -192.5q281 0 476.5 193.5t195.5 484.5q0 299 -193.5 487t-478 188t-480 -190t-195.5 -485zM557 748 q0 207 107.5 318.5t289.5 111.5q78 0 246 -43l72 -19l-29 -112l-74 18q-145 37 -211 37q-270 0 -270 -311q0 -309 273 -310q57 0 208 39l74 19l29 -113l-72 -18q-168 -43 -246 -43q-184 0 -290.5 105.5t-106.5 320.5z" />
<glyph unicode="&#xaa;" d="M219 913q0 256 340 256h234v74q0 168 -172 168q-90 0 -265 -41l-86 -20l-26 118l90 25q170 47 289 47q135 0 219 -71.5t84 -225.5v-432l96 -53l-49 -103l-86 41q-47 20 -131 4l-103 -20q-96 -18 -153 -18q-133 0 -207 70.5t-74 180.5zM360 920q0 -139 160 -140 q47 0 180 25l93 16v234h-236q-100 0 -148.5 -31t-48.5 -104z" />
<glyph unicode="&#xab;" horiz-adv-x="1146" d="M113 575.5q0 51.5 45 96.5l297 289h194l-391 -386l391 -385h-194l-297 289q-45 45 -45 96.5zM539 575.5q0 51.5 45 96.5l297 289h194l-391 -386l391 -385h-194l-297 289q-45 45 -45 96.5z" />
<glyph unicode="&#xac;" d="M113 623v145h968v-586h-147v441h-821z" />
<glyph unicode="&#xad;" horiz-adv-x="845" d="M123 594v149h600v-149h-600z" />
<glyph unicode="&#xae;" horiz-adv-x="1910" d="M152 752q0 346 232 572t570 226q336 0 568.5 -224t232.5 -574q0 -344 -233.5 -573.5t-567.5 -229.5q-336 0 -569 229.5t-233 573.5zM279 752q0 -293 195.5 -485.5t479.5 -192.5q281 0 476.5 193.5t195.5 484.5q0 299 -193.5 487t-478 188t-480 -190t-195.5 -485zM668 342 v725q0 104 118 104h258q111 0 176.5 -64.5t65.5 -170.5q0 -82 -43 -150l-72 -104l172 -340h-137l-145 299h-270v-299h-123zM791 750h284l53 77q29 50 29 109t-35 93t-92 34h-239v-313z" />
<glyph unicode="&#xaf;" horiz-adv-x="1087" d="M215 1350v145h664v-145h-664z" />
<glyph unicode="&#xb0;" horiz-adv-x="974" d="M109 1167q0 172 106.5 285t280.5 113t277.5 -113t103.5 -285q0 -174 -105.5 -286.5t-279.5 -112.5q-176 0 -279.5 112.5t-103.5 286.5zM250 1167q0 -127 65.5 -206.5t180 -79.5t178 78.5t63.5 207.5q0 127 -65.5 205t-179.5 78q-117 0 -179.5 -78t-62.5 -205z" />
<glyph unicode="&#xb1;" d="M119 0v137h968v-137h-968zM119 594v143h405v369h150v-369h413v-143h-413v-350h-150v350h-405z" />
<glyph unicode="&#xb4;" horiz-adv-x="1110" d="M408 1346q0 31 26 57l166 160h223l-286 -258q-31 -27 -60 -27q-31 0 -50 21.5t-19 46.5z" />
<glyph unicode="&#xb5;" d="M154 -381v1495h149v-706q0 -129 64.5 -201t218.5 -72q123 0 305 45v934h149v-921q0 -119 -118 -148q-193 -49 -353 -49q-182 -4 -268 72v-449h-147z" />
<glyph unicode="&#xb6;" horiz-adv-x="1300" d="M94 995.5q0 231.5 127 380t369 148.5h571v-1905h-143v1776h-295v-1776h-143v848q-233 0 -359.5 148.5t-126.5 380z" />
<glyph unicode="&#xb7;" horiz-adv-x="765" d="M285 751.5q0 53.5 27.5 84t74.5 30.5t74.5 -30.5t27.5 -84t-27.5 -84t-74.5 -30.5t-74.5 30.5t-27.5 84z" />
<glyph unicode="&#xb8;" horiz-adv-x="1087" d="M362 -362l27 88q82 -33 150 -33q96 0 96 63q0 45 -45 57.5t-137 8.5l-9 14l84 164h86l-51 -104q80 0 129 -35t49 -101q0 -72 -53 -117.5t-147 -45.5q-84 0 -179 41z" />
<glyph unicode="&#xba;" d="M213 1104q0 203 104.5 320.5t282.5 117.5t280.5 -116.5t102.5 -321.5q0 -203 -104.5 -321.5t-282.5 -118.5t-280.5 117.5t-102.5 322.5zM352 1103.5q0 -151.5 65.5 -237.5t182.5 -86q119 0 182.5 86t63.5 238q0 150 -66.5 235.5t-183.5 85.5q-119 0 -181.5 -85 t-62.5 -236.5z" />
<glyph unicode="&#xbb;" horiz-adv-x="1146" d="M72 190l391 385l-391 386h194l297 -289q45 -45 45 -96.5t-45 -96.5l-297 -289h-194zM498 190l391 385l-391 386h194l297 -289q45 -45 45 -96.5t-45 -96.5l-297 -289h-194z" />
<glyph unicode="&#xbf;" horiz-adv-x="935" d="M70 -51q0 109 37.5 183.5t117.5 158.5l189 196v168l145 27v-127q0 -72 -11 -105.5t-56 -80.5l-148 -156q-74 -80 -100.5 -131t-26.5 -131q0 -92 61.5 -144.5t182.5 -52.5q129 0 297 47l88 25l28 -133l-86 -27q-168 -53 -329 -53q-176 0 -282.5 89t-106.5 247zM383 1046.5 q0 53.5 27.5 84t74.5 30.5t75 -30.5t28 -84t-28 -84t-75 -30.5t-74.5 30.5t-27.5 84z" />
<glyph unicode="&#xc0;" horiz-adv-x="1402" d="M31 0l553 1452q31 86 123 86t122 -84l543 -1454h-168l-131 344h-747l-131 -344h-164zM371 477h657l-323 897zM494 1915h223l166 -160q27 -27 26 -57q0 -25 -19.5 -46.5t-49.5 -21.5q-29 0 -60 27z" />
<glyph unicode="&#xc1;" horiz-adv-x="1402" d="M31 0l553 1452q31 86 123 86t122 -84l543 -1454h-168l-131 344h-747l-131 -344h-164zM371 477h657l-323 897zM506 1698q0 31 26 57l166 160h224l-287 -258q-31 -27 -60 -27q-31 0 -50 21.5t-19 46.5z" />
<glyph unicode="&#xc2;" horiz-adv-x="1402" d="M31 0l553 1452q31 86 123 86t122 -84l543 -1454h-168l-131 344h-747l-131 -344h-164zM336 1649l274 262q44 39 95 39q57 0 92 -39l276 -262h-229l-139 174l-140 -174h-229zM371 477h657l-323 897z" />
<glyph unicode="&#xc3;" horiz-adv-x="1402" d="M31 0l553 1452q31 86 123 86t122 -84l543 -1454h-168l-131 344h-747l-131 -344h-164zM281 1716q39 111 111.5 164t150.5 53q86 0 149 -51l103 -74q45 -33 86 -32q88 0 143 139l115 -64q-37 -109 -111 -163t-149 -54q-86 1 -152 52l-100 73q-45 33 -86 33q-90 0 -146 -139 zM371 477h657l-323 897z" />
<glyph unicode="&#xc4;" horiz-adv-x="1402" d="M31 0l553 1452q31 86 123 86t122 -84l543 -1454h-168l-131 344h-747l-131 -344h-164zM371 477h657l-323 897zM371 1769.5q0 53.5 27.5 84t74.5 30.5t74.5 -30.5t27.5 -84t-27.5 -84t-74.5 -30.5t-74.5 30.5t-27.5 84zM840 1769.5q0 53.5 27.5 84t74.5 30.5t74.5 -30.5 t27.5 -84t-27.5 -84t-74.5 -30.5t-74.5 30.5t-27.5 84z" />
<glyph unicode="&#xc5;" horiz-adv-x="1402" d="M31 0l555 1456q-104 57 -105 182q0 94 64.5 152.5t161 58.5t162 -58t65.5 -153q0 -123 -107 -182l545 -1456h-168l-131 344h-747l-131 -344h-164zM371 477h657l-323 897zM584 1638q0 -53 33.5 -86.5t89 -33.5t90 33.5t34.5 86.5q0 51 -34.5 85t-90 34t-89 -33.5 t-33.5 -85.5z" />
<glyph unicode="&#xc6;" horiz-adv-x="2093" d="M31 0l577 1401q51 123 180 123h1186v-140h-821v-536h737v-135h-737v-574h827v-139h-835q-68 0 -108 38t-40 101v203h-659l-137 -342h-170zM389 477h608v907h-241z" />
<glyph unicode="&#xc7;" horiz-adv-x="1374" d="M113 758q0 381 187 577.5t491 196.5q145 0 399 -78l106 -33l-30 -143l-113 35q-242 74 -360 73q-246 0 -381.5 -154.5t-135.5 -473.5q0 -317 137.5 -473t381.5 -156q117 0 358 74l113 35l30 -144l-106 -33q-254 -78 -399 -77q-309 0 -493.5 191.5t-184.5 582.5zM586 -362 l26 88q82 -33 150 -33q96 0 96 63q0 45 -45 57.5t-137 8.5l-8 14l84 164h86l-52 -104q80 0 129.5 -35t49.5 -101q0 -72 -53.5 -117.5t-147.5 -45.5q-84 0 -178 41z" />
<glyph unicode="&#xc8;" horiz-adv-x="1261" d="M164 139v1245q0 63 40 101.5t109 38.5h830v-140h-821v-536h722v-137h-722v-572h827v-139h-836q-70 0 -109.5 38t-39.5 101zM412 1915h223l166 -160q27 -27 26 -57q0 -25 -19.5 -46.5t-49.5 -21.5q-29 0 -60 27z" />
<glyph unicode="&#xc9;" horiz-adv-x="1261" d="M164 139v1245q0 63 40 101.5t109 38.5h830v-140h-821v-536h722v-137h-722v-572h827v-139h-836q-70 0 -109.5 38t-39.5 101zM502 1698q0 31 26 57l166 160h224l-287 -258q-31 -27 -60 -27q-31 0 -50 21.5t-19 46.5z" />
<glyph unicode="&#xca;" horiz-adv-x="1261" d="M164 139v1245q0 63 40 101.5t109 38.5h830v-140h-821v-536h722v-137h-722v-572h827v-139h-836q-70 0 -109.5 38t-39.5 101zM287 1649l274 262q43 39 94 39q57 0 93 -39l276 -262h-229l-140 174l-139 -174h-229z" />
<glyph unicode="&#xcb;" horiz-adv-x="1261" d="M164 139v1245q0 63 40 101.5t109 38.5h830v-140h-821v-536h722v-137h-722v-572h827v-139h-836q-70 0 -109.5 38t-39.5 101zM324 1767.5q0 53.5 27.5 84t74.5 30.5t74.5 -30.5t27.5 -84t-27.5 -84t-74.5 -30.5t-74.5 30.5t-27.5 84zM793 1767.5q0 53.5 27.5 84t74.5 30.5 t74.5 -30.5t27.5 -84t-27.5 -84t-74.5 -30.5t-74.5 30.5t-27.5 84z" />
<glyph unicode="&#xcc;" horiz-adv-x="485" d="M0 1913h223l166 -160q27 -27 27 -57q0 -25 -19.5 -46.5t-50.5 -21.5q-28 0 -59 27zM164 0v1524h158v-1524h-158z" />
<glyph unicode="&#xcd;" horiz-adv-x="485" d="M86 1696q0 31 27 57l166 160h223l-287 -258q-31 -27 -59 -27q-31 0 -50.5 21.5t-19.5 46.5zM164 0v1524h158v-1524h-158z" />
<glyph unicode="&#xce;" horiz-adv-x="485" d="M-125 1649l275 262q43 39 94 39q57 0 92 -39l276 -262h-229l-139 174l-140 -174h-229zM164 0v1524h158v-1524h-158z" />
<glyph unicode="&#xcf;" horiz-adv-x="485" d="M-94 1769.5q0 53.5 27.5 84t74.5 30.5t75 -30.5t28 -84t-28 -84t-75 -30.5t-74.5 30.5t-27.5 84zM164 0v1524h158v-1524h-158zM375 1769.5q0 53.5 27.5 84t74.5 30.5t75 -30.5t28 -84t-28 -84t-75 -30.5t-74.5 30.5t-27.5 84z" />
<glyph unicode="&#xd0;" horiz-adv-x="1495" d="M20 713v135h144v536q0 63 40 101.5t109 38.5h392q309 0 493 -205t184 -561.5t-187 -557t-497 -200.5h-385q-70 0 -109.5 38t-39.5 101v574h-144zM322 139h370q254 0 393.5 162t139.5 457q0 291 -144.5 461t-402.5 170h-356v-541h469v-135h-469v-574z" />
<glyph unicode="&#xd1;" horiz-adv-x="1509" d="M164 0v1427q0 111 106 111q74 0 117 -65l813 -1258v1309h146v-1424q0 -111 -107 -110q-74 0 -117 65l-813 1258v-1313h-145zM338 1718q39 111 111.5 164t150.5 53q86 0 150 -51l102 -74q45 -33 86 -32q88 0 143 139l115 -64q-37 -109 -110.5 -163t-149.5 -54 q-86 1 -152 52l-100 73q-45 33 -86 33q-90 0 -145 -139z" />
<glyph unicode="&#xd2;" horiz-adv-x="1624" d="M113 758q0 365 193.5 569.5t510.5 204.5q315 0 504.5 -203.5t189.5 -570.5q0 -369 -192.5 -571.5t-511.5 -202.5q-315 0 -504.5 203.5t-189.5 570.5zM270 758q0 -305 146.5 -473t400.5 -168q252 0 393.5 167t141.5 474q0 303 -145.5 470t-399.5 167t-395.5 -167 t-141.5 -470zM561 1913h223l166 -160q27 -27 27 -57q0 -25 -19.5 -46.5t-50.5 -21.5q-28 0 -59 27z" />
<glyph unicode="&#xd3;" horiz-adv-x="1624" d="M113 758q0 365 193.5 569.5t510.5 204.5q315 0 504.5 -203.5t189.5 -570.5q0 -369 -192.5 -571.5t-511.5 -202.5q-315 0 -504.5 203.5t-189.5 570.5zM270 758q0 -305 146.5 -473t400.5 -168q252 0 393.5 167t141.5 474q0 303 -145.5 470t-399.5 167t-395.5 -167 t-141.5 -470zM664 1696q0 31 26 57l166 160h223l-286 -258q-31 -27 -60 -27q-31 0 -50 21.5t-19 46.5z" />
<glyph unicode="&#xd4;" horiz-adv-x="1624" d="M113 758q0 365 193.5 569.5t510.5 204.5q315 0 504.5 -203.5t189.5 -570.5q0 -369 -192.5 -571.5t-511.5 -202.5q-315 0 -504.5 203.5t-189.5 570.5zM270 758q0 -305 146.5 -473t400.5 -168q252 0 393.5 167t141.5 474q0 303 -145.5 470t-399.5 167t-395.5 -167 t-141.5 -470zM451 1649l274 262q43 39 94 39q57 0 92 -39l277 -262h-230l-139 174l-139 -174h-229z" />
<glyph unicode="&#xd5;" horiz-adv-x="1624" d="M113 758q0 365 193.5 569.5t510.5 204.5q315 0 504.5 -203.5t189.5 -570.5q0 -369 -192.5 -571.5t-511.5 -202.5q-315 0 -504.5 203.5t-189.5 570.5zM270 758q0 -305 146.5 -473t400.5 -168q252 0 393.5 167t141.5 474q0 303 -145.5 470t-399.5 167t-395.5 -167 t-141.5 -470zM383 1722q39 111 111.5 164t150.5 53q86 0 150 -51l102 -73q45 -33 86 -33q88 0 143 139l115 -63q-37 -109 -110.5 -163.5t-149.5 -54.5q-86 1 -152 52l-100 73q-45 33 -86 33q-90 0 -145 -139z" />
<glyph unicode="&#xd6;" horiz-adv-x="1624" d="M113 758q0 365 193.5 569.5t510.5 204.5q315 0 504.5 -203.5t189.5 -570.5q0 -369 -192.5 -571.5t-511.5 -202.5q-315 0 -504.5 203.5t-189.5 570.5zM270 758q0 -305 146.5 -473t400.5 -168q252 0 393.5 167t141.5 474q0 303 -145.5 470t-399.5 167t-395.5 -167 t-141.5 -470zM475 1767.5q0 53.5 27.5 84t75 30.5t75 -30.5t27.5 -84t-27.5 -84t-75 -30.5t-75 30.5t-27.5 84zM944 1767.5q0 53.5 27.5 84t75 30.5t75 -30.5t27.5 -84t-27.5 -84t-75 -30.5t-75 30.5t-27.5 84z" />
<glyph unicode="&#xd7;" d="M154 252l344 346l-344 346l106 105l344 -344l344 344l107 -105l-344 -346l344 -346l-107 -105l-344 345l-344 -345z" />
<glyph unicode="&#xd8;" horiz-adv-x="1624" d="M113 758q0 365 193.5 569.5t510.5 204.5q168 0 303 -59l82 149h135l-112 -209q286 -204 286 -655q0 -369 -192.5 -571.5t-511.5 -202.5q-184 0 -318 65l-83 -155h-138l117 217q-272 205 -272 647zM270 758q0 -348 187 -518l596 1106q-113 51 -246 51q-254 0 -395.5 -167 t-141.5 -472zM557 174q113 -59 260 -59q252 0 393.5 168t141.5 475q0 358 -199 524z" />
<glyph unicode="&#xd9;" horiz-adv-x="1478" d="M154 541v983h155v-983q0 -207 108.5 -317.5t321.5 -110.5q430 0 430 428v983h156v-983q0 -266 -152.5 -418t-433 -152t-433 151.5t-152.5 418.5zM494 1915h223l166 -160q27 -27 26 -57q0 -25 -19.5 -46.5t-49.5 -21.5q-29 0 -60 27z" />
<glyph unicode="&#xda;" horiz-adv-x="1478" d="M154 541v983h155v-983q0 -207 108.5 -317.5t321.5 -110.5q430 0 430 428v983h156v-983q0 -266 -152.5 -418t-433 -152t-433 151.5t-152.5 418.5zM592 1698q0 31 26 57l166 160h224l-287 -258q-31 -27 -59 -27q-31 0 -50.5 21.5t-19.5 46.5z" />
<glyph unicode="&#xdb;" horiz-adv-x="1478" d="M154 541v983h155v-983q0 -207 108.5 -317.5t321.5 -110.5q430 0 430 428v983h156v-983q0 -266 -152.5 -418t-433 -152t-433 151.5t-152.5 418.5zM379 1649l274 262q44 39 95 39q57 0 92 -39l276 -262h-229l-139 174l-140 -174h-229z" />
<glyph unicode="&#xdc;" horiz-adv-x="1478" d="M154 541v983h155v-983q0 -207 108.5 -317.5t321.5 -110.5q430 0 430 428v983h156v-983q0 -266 -152.5 -418t-433 -152t-433 151.5t-152.5 418.5zM418 1767.5q0 53.5 27.5 84t74.5 30.5t75 -30.5t28 -84t-28 -84t-75 -30.5t-74.5 30.5t-27.5 84zM887 1767.5 q0 53.5 27.5 84t74.5 30.5t75 -30.5t28 -84t-28 -84t-75 -30.5t-74.5 30.5t-27.5 84z" />
<glyph unicode="&#xdd;" horiz-adv-x="1327" d="M20 1524h181l473 -723l456 723h177l-557 -862v-662h-160v657zM561 1698q0 31 27 57l166 160h223l-287 -258q-31 -27 -59 -27q-31 0 -50.5 21.5t-19.5 46.5z" />
<glyph unicode="&#xde;" horiz-adv-x="1288" d="M164 0v1524h151v-264h439q195 0 318.5 -125t123.5 -336q0 -213 -128 -337t-337 -124h-416v-338h-151zM315 471h416q150 0 236 87t86 243q0 152 -84 239.5t-224 87.5h-430v-657z" />
<glyph unicode="&#xdf;" horiz-adv-x="1161" d="M143 0v1161q0 209 113 310.5t289 101.5q182 0 296.5 -98.5t114.5 -274.5q0 -119 -77 -244l-113 -159l152 -129q151 -129 151 -293q0 -170 -111.5 -272.5t-295.5 -102.5h-185v131h185q133 0 195.5 65.5t62.5 174.5q0 102 -107 196l-133 117q-100 86 -25 193l95 131 q59 84 59 192q0 106 -71.5 172t-194.5 66q-250 0 -250 -277v-1161h-150z" />
<glyph unicode="&#xe0;" horiz-adv-x="1224" d="M102 291q0 174 123 254t318 80h338v127q0 233 -263 233q-123 0 -354 -63l-88 -25l-29 137l86 25q240 68 388 67q182 0 293.5 -92t111.5 -282v-576l137 -82l-59 -114l-100 59q-74 37 -146 16l-80 -20q-184 -49 -309 -49q-174 0 -270.5 80.5t-96.5 224.5zM254 299 q0 -180 235 -180q102 0 269 39l123 28v310h-340q-287 0 -287 -197zM356 1563h224l165 -160q27 -27 27 -57q0 -25 -19.5 -46.5t-50.5 -21.5q-28 0 -59 27z" />
<glyph unicode="&#xe1;" horiz-adv-x="1224" d="M102 291q0 174 123 254t318 80h338v127q0 233 -263 233q-123 0 -354 -63l-88 -25l-29 137l86 25q240 68 388 67q182 0 293.5 -92t111.5 -282v-576l137 -82l-59 -114l-100 59q-74 37 -146 16l-80 -20q-184 -49 -309 -49q-174 0 -270.5 80.5t-96.5 224.5zM254 299 q0 -180 235 -180q102 0 269 39l123 28v310h-340q-287 0 -287 -197zM485 1346q0 31 27 57l166 160h223l-287 -258q-31 -27 -59 -27q-31 0 -50.5 21.5t-19.5 46.5z" />
<glyph unicode="&#xe2;" horiz-adv-x="1224" d="M102 291q0 174 123 254t318 80h338v127q0 233 -263 233q-123 0 -354 -63l-88 -25l-29 137l86 25q240 68 388 67q182 0 293.5 -92t111.5 -282v-576l137 -82l-59 -114l-100 59q-74 37 -146 16l-80 -20q-184 -49 -309 -49q-174 0 -270.5 80.5t-96.5 224.5zM254 299 q0 -180 235 -180q102 0 269 39l123 28v310h-340q-287 0 -287 -197zM256 1266l274 262q44 39 95 39q57 0 92 -39l276 -262h-229l-139 174l-140 -174h-229z" />
<glyph unicode="&#xe3;" horiz-adv-x="1224" d="M102 291q0 174 123 254t318 80h338v127q0 233 -263 233q-123 0 -354 -63l-88 -25l-29 137l86 25q240 68 388 67q182 0 293.5 -92t111.5 -282v-576l137 -82l-59 -114l-100 59q-74 37 -146 16l-80 -20q-184 -49 -309 -49q-174 0 -270.5 80.5t-96.5 224.5zM182 1350 q39 111 112 164t150 53q86 0 150 -51l102 -74q45 -33 86 -33q88 0 144 139l114 -63q-37 -109 -110.5 -163t-149.5 -54q-85 0 -151 51l-101 74q-45 33 -86 32q-90 0 -145 -139zM254 299q0 -180 235 -180q102 0 269 39l123 28v310h-340q-287 0 -287 -197z" />
<glyph unicode="&#xe4;" horiz-adv-x="1224" d="M102 291q0 174 123 254t318 80h338v127q0 233 -263 233q-123 0 -354 -63l-88 -25l-29 137l86 25q240 68 388 67q182 0 293.5 -92t111.5 -282v-576l137 -82l-59 -114l-100 59q-74 37 -146 16l-80 -20q-184 -49 -309 -49q-174 0 -270.5 80.5t-96.5 224.5zM254 299 q0 -180 235 -180q102 0 269 39l123 28v310h-340q-287 0 -287 -197zM295 1454q0 53 27.5 84t74.5 31t75 -31t28 -84t-28 -84t-75 -31t-74.5 31t-27.5 84zM764 1454q0 53 27.5 84t74.5 31t75 -31t28 -84t-28 -84t-75 -31t-74.5 31t-27.5 84z" />
<glyph unicode="&#xe5;" horiz-adv-x="1224" d="M102 291q0 174 123 254t318 80h338v127q0 233 -263 233q-123 0 -354 -63l-88 -25l-29 137l86 25q240 68 388 67q182 0 293.5 -92t111.5 -282v-576l137 -82l-59 -114l-100 59q-74 37 -146 16l-80 -20q-184 -49 -309 -49q-174 0 -270.5 80.5t-96.5 224.5zM254 299 q0 -180 235 -180q102 0 269 39l123 28v310h-340q-287 0 -287 -197zM379 1421q0 94 64.5 152.5t160.5 58.5t161.5 -58t65.5 -153q0 -92 -66.5 -152.5t-160.5 -60.5t-159.5 60.5t-65.5 152.5zM481 1421q0 -53 34 -87t89 -34t90 34t35 87q0 51 -35 85t-90 34t-89 -33.5 t-34 -85.5z" />
<glyph unicode="&#xe6;" horiz-adv-x="1976" d="M102 291q0 174 123 254t318 80h338v127q0 233 -263 233q-123 0 -354 -63l-88 -25l-29 137l86 25q240 68 388 67q274 0 364 -190q137 195 399 194q229 0 364.5 -139t135.5 -407q0 -92 -86 -92h-762q8 -178 113.5 -269.5t271.5 -91.5q117 0 305 57l113 35l31 -135l-109 -35 q-203 -65 -346 -65q-168 0 -291 69q-61 33 -145 17l-199 -41q-236 -47 -311 -47q-174 0 -270.5 80.5t-96.5 224.5zM254 299q-1 -180 235 -180q102 0 269 39l213 45q-78 119 -86 293h-344q-287 0 -287 -197zM1036 625h693q0 166 -86.5 271t-260.5 105q-154 0 -244.5 -101 t-101.5 -275z" />
<glyph unicode="&#xe7;" horiz-adv-x="1077" d="M102 557q0 274 136.5 421.5t363.5 147.5q98 0 313 -57l91 -25l-29 -139l-92 25q-203 53 -277 53q-348 0 -348 -426t350 -426q72 0 275 53l92 25l29 -139l-91 -25q-215 -57 -313 -57q-233 0 -366.5 141t-133.5 428zM397 -362l27 88q82 -33 149 -33q96 0 97 63 q0 45 -45 57.5t-138 8.5l-8 14l84 164h86l-51 -104q80 0 129 -35t49 -101q0 -72 -53 -117.5t-148 -45.5q-84 0 -178 41z" />
<glyph unicode="&#xe8;" horiz-adv-x="1198" d="M102 555q0 285 143.5 430t360.5 145q229 0 364.5 -139t135.5 -407q0 -92 -86 -92h-762q8 -178 113.5 -269.5t271.5 -91.5q117 0 305 57l113 35l31 -135l-109 -35q-203 -65 -346 -65q-244 0 -389.5 145.5t-145.5 421.5zM258 625h692q0 166 -86 271t-260 105 q-154 0 -245 -101t-101 -275zM356 1563h224l165 -160q27 -27 27 -57q0 -25 -19.5 -46.5t-50.5 -21.5q-28 0 -59 27z" />
<glyph unicode="&#xe9;" horiz-adv-x="1198" d="M102 555q0 285 143.5 430t360.5 145q229 0 364.5 -139t135.5 -407q0 -92 -86 -92h-762q8 -178 113.5 -269.5t271.5 -91.5q117 0 305 57l113 35l31 -135l-109 -35q-203 -65 -346 -65q-244 0 -389.5 145.5t-145.5 421.5zM258 625h692q0 166 -86 271t-260 105 q-154 0 -245 -101t-101 -275zM506 1346q0 31 26 57l166 160h224l-287 -258q-31 -27 -60 -27q-31 0 -50 21.5t-19 46.5z" />
<glyph unicode="&#xea;" horiz-adv-x="1198" d="M102 555q0 285 143.5 430t360.5 145q229 0 364.5 -139t135.5 -407q0 -92 -86 -92h-762q8 -178 113.5 -269.5t271.5 -91.5q117 0 305 57l113 35l31 -135l-109 -35q-203 -65 -346 -65q-244 0 -389.5 145.5t-145.5 421.5zM246 1266l274 262q43 39 94 39q57 0 93 -39 l276 -262h-229l-140 174l-139 -174h-229zM258 625h692q0 166 -86 271t-260 105q-154 0 -245 -101t-101 -275z" />
<glyph unicode="&#xeb;" horiz-adv-x="1198" d="M102 555q0 285 143.5 430t360.5 145q229 0 364.5 -139t135.5 -407q0 -92 -86 -92h-762q8 -178 113.5 -269.5t271.5 -91.5q117 0 305 57l113 35l31 -135l-109 -35q-203 -65 -346 -65q-244 0 -389.5 145.5t-145.5 421.5zM258 625h692q0 166 -86 271t-260 105 q-154 0 -245 -101t-101 -275zM276 1454q0 53 28 84t75 31t74.5 -31t27.5 -84t-27.5 -84t-74.5 -31t-75 31t-28 84zM745 1454q0 53 28 84t75 31t74.5 -31t27.5 -84t-27.5 -84t-74.5 -31t-75 31t-28 84z" />
<glyph unicode="&#xec;" horiz-adv-x="491" d="M-43 1563h223l166 -160q27 -27 27 -57q0 -25 -19.5 -46.5t-50.5 -21.5q-28 0 -59 27zM170 0v1114h154v-1114h-154z" />
<glyph unicode="&#xed;" horiz-adv-x="491" d="M109 1346q0 31 26 57l166 160h223l-286 -258q-31 -27 -60 -27q-31 0 -50 21.5t-19 46.5zM170 0v1114h154v-1114h-154z" />
<glyph unicode="&#xee;" horiz-adv-x="491" d="M-119 1266l275 262q43 39 94 39q57 0 92 -39l276 -262h-229l-139 174l-139 -174h-230zM170 0v1114h154v-1114h-154z" />
<glyph unicode="&#xef;" horiz-adv-x="491" d="M-88 1454q0 53 27.5 84t74.5 31t75 -31t28 -84t-28 -84t-75 -31t-74.5 31t-27.5 84zM170 0v1114h154v-1114h-154zM381 1454q0 53 27.5 84t74.5 31t75 -31t28 -84t-28 -84t-75 -31t-74.5 31t-27.5 84z" />
<glyph unicode="&#xf0;" horiz-adv-x="1277" d="M123 532q0 227 128 379t382 152q121 0 352 -66v80q0 131 -51 217l-305 -168v150l219 115q-66 39 -193 39h-143v133h141q223 0 330 -93l182 105v-150l-100 -55q72 -119 72 -293v-571q0 -233 -132.5 -375.5t-375.5 -142.5q-240 0 -373 155.5t-133 388.5zM274 532 q0 -184 93.5 -295.5t265.5 -111.5q178 0 265 103.5t87 285.5v350q-203 54 -342 58q-369 0 -369 -390z" />
<glyph unicode="&#xf1;" horiz-adv-x="1193" d="M154 0v926q0 119 118 147q193 49 353 49q215 0 315 -109.5t100 -291.5v-721h-149v707q0 276 -283 276q-123 0 -305 -45v-938h-149zM178 1350q39 111 111.5 164t150.5 53q86 0 150 -51l102 -74q45 -33 86 -33q88 0 144 139l114 -63q-37 -109 -110.5 -163t-149.5 -54 q-85 0 -151 51l-101 74q-45 33 -86 32q-90 0 -145 -139z" />
<glyph unicode="&#xf2;" horiz-adv-x="1249" d="M102 557q0 270 142.5 419.5t384 149.5t380 -149.5t138.5 -419.5t-142.5 -419.5t-383.5 -149.5q-240 0 -379.5 150.5t-139.5 418.5zM258 557q0 -211 97.5 -324.5t273.5 -113.5t270 113.5t94 324.5q0 207 -98 322.5t-274.5 115.5t-269.5 -114.5t-93 -323.5zM397 1563h224 l165 -160q27 -27 27 -57q0 -25 -19.5 -46.5t-50.5 -21.5q-28 0 -59 27z" />
<glyph unicode="&#xf3;" horiz-adv-x="1249" d="M102 557q0 270 142.5 419.5t384 149.5t380 -149.5t138.5 -419.5t-142.5 -419.5t-383.5 -149.5q-240 0 -379.5 150.5t-139.5 418.5zM258 557q0 -211 97.5 -324.5t273.5 -113.5t270 113.5t94 324.5q0 207 -98 322.5t-274.5 115.5t-269.5 -114.5t-93 -323.5zM461 1346 q0 31 26 57l166 160h224l-287 -258q-31 -27 -60 -27q-31 0 -50 21.5t-19 46.5z" />
<glyph unicode="&#xf4;" horiz-adv-x="1249" d="M102 557q0 270 142.5 419.5t384 149.5t380 -149.5t138.5 -419.5t-142.5 -419.5t-383.5 -149.5q-240 0 -379.5 150.5t-139.5 418.5zM258 557q0 -211 97.5 -324.5t273.5 -113.5t270 113.5t94 324.5q0 207 -98 322.5t-274.5 115.5t-269.5 -114.5t-93 -323.5zM264 1266 l275 262q43 39 94 39q57 0 92 -39l276 -262h-229l-139 174l-139 -174h-230z" />
<glyph unicode="&#xf5;" horiz-adv-x="1249" d="M102 557q0 270 142.5 419.5t384 149.5t380 -149.5t138.5 -419.5t-142.5 -419.5t-383.5 -149.5q-240 0 -379.5 150.5t-139.5 418.5zM207 1350q39 111 111.5 164t150.5 53q86 0 149 -51l103 -74q45 -33 86 -33q88 0 143 139l115 -63q-37 -109 -110.5 -163t-149.5 -54 q-86 0 -152 51l-100 74q-45 33 -86 32q-90 0 -145 -139zM258 557q0 -211 97.5 -324.5t273.5 -113.5t270 113.5t94 324.5q0 207 -98 322.5t-274.5 115.5t-269.5 -114.5t-93 -323.5z" />
<glyph unicode="&#xf6;" horiz-adv-x="1249" d="M102 557q0 270 142.5 419.5t384 149.5t380 -149.5t138.5 -419.5t-142.5 -419.5t-383.5 -149.5q-240 0 -379.5 150.5t-139.5 418.5zM258 557q0 -211 97.5 -324.5t273.5 -113.5t270 113.5t94 324.5q0 207 -98 322.5t-274.5 115.5t-269.5 -114.5t-93 -323.5zM299 1454 q0 53 27.5 84t75 31t75 -31t27.5 -84t-27.5 -84t-75 -31t-75 31t-27.5 84zM768 1454q0 53 27.5 84t75 31t75 -31t27.5 -84t-27.5 -84t-75 -31t-75 31t-27.5 84z" />
<glyph unicode="&#xf7;" d="M119 530v146h968v-146h-968zM502 182q0 49 26.5 80t71.5 31t71.5 -31t26.5 -80t-26.5 -79.5t-71.5 -30.5t-71.5 30.5t-26.5 79.5zM502 1022q0 49 26.5 80t71.5 31t71.5 -31t26.5 -80t-26.5 -80t-71.5 -31t-71.5 31t-26.5 80z" />
<glyph unicode="&#xf8;" horiz-adv-x="1249" d="M102 557q0 270 142.5 419.5t384.5 149.5q117 0 217 -39l63 121h127l-92 -176q203 -145 203 -475q0 -270 -142.5 -419.5t-383.5 -149.5q-106 0 -205 32l-68 -126h-127l94 180q-213 145 -213 483zM258 557q0 -244 125 -356l399 764q-76 33 -161 32q-176 0 -269.5 -115.5 t-93.5 -324.5zM479 143q61 -27 150 -26q176 0 270 114.5t94 325.5q0 231 -119 346z" />
<glyph unicode="&#xf9;" horiz-adv-x="1193" d="M154 393v721h149v-706q0 -276 283 -277q123 0 305 45v938h149v-926q0 -119 -118 -147q-193 -49 -353 -49q-215 0 -315 109.5t-100 291.5zM336 1563h223l166 -160q27 -27 27 -57q0 -25 -19.5 -46.5t-50.5 -21.5q-28 0 -59 27z" />
<glyph unicode="&#xfa;" horiz-adv-x="1193" d="M154 393v721h149v-706q0 -276 283 -277q123 0 305 45v938h149v-926q0 -119 -118 -147q-193 -49 -353 -49q-215 0 -315 109.5t-100 291.5zM453 1346q0 31 26 57l166 160h223l-286 -258q-31 -27 -60 -27q-31 0 -50 21.5t-19 46.5z" />
<glyph unicode="&#xfb;" horiz-adv-x="1193" d="M154 393v721h149v-706q0 -276 283 -277q123 0 305 45v938h149v-926q0 -119 -118 -147q-193 -49 -353 -49q-215 0 -315 109.5t-100 291.5zM240 1266l274 262q43 39 94 39q57 0 92 -39l277 -262h-229l-140 174l-139 -174h-229z" />
<glyph unicode="&#xfc;" horiz-adv-x="1193" d="M154 393v721h149v-706q0 -276 283 -277q123 0 305 45v938h149v-926q0 -119 -118 -147q-193 -49 -353 -49q-215 0 -315 109.5t-100 291.5zM266 1454q0 53 28 84t75 31t74.5 -31t27.5 -84t-27.5 -84t-74.5 -31t-75 31t-28 84zM735 1454q0 53 28 84t75 31t74.5 -31t27.5 -84 t-27.5 -84t-74.5 -31t-75 31t-28 84z" />
<glyph unicode="&#xfd;" horiz-adv-x="1085" d="M49 1114h172l359 -979l305 979h168l-426 -1266q-74 -221 -305 -221q-82 0 -222 37l23 139q150 -37 201 -36q127 0 159 127l15 55zM449 1346q0 31 26 57l166 160h223l-286 -258q-31 -27 -60 -27q-31 0 -50 21.5t-19 46.5z" />
<glyph unicode="&#xfe;" horiz-adv-x="1222" d="M154 -381v1927l147 31v-500q201 45 317 45q240 0 371 -146.5t131 -414.5q0 -270 -131 -419.5t-371 -149.5q-106 0 -317 63v-405zM301 188q205 -51 309 -55q358 0 359 426q0 197 -88 310.5t-277 113.5q-113 0 -303 -45v-750z" />
<glyph unicode="&#xff;" horiz-adv-x="1085" d="M49 1114h172l359 -979l305 979h168l-426 -1266q-74 -221 -305 -221q-82 0 -222 37l23 139q150 -37 201 -36q127 0 159 127l15 55zM229 1454q0 53 28 84t75 31t74.5 -31t27.5 -84t-27.5 -84t-74.5 -31t-75 31t-28 84zM698 1454q0 53 28 84t75 31t74.5 -31t27.5 -84 t-27.5 -84t-74.5 -31t-75 31t-28 84z" />
<glyph unicode="&#x152;" horiz-adv-x="2271" d="M113 757.5q0 356.5 184 561.5t494 205h1361v-140h-821v-536h723v-137h-723v-572h828v-139h-1362q-309 0 -496.5 200.5t-187.5 557zM270 758q0 -295 139.5 -457t393.5 -162h371v1245v5h-357q-258 0 -402.5 -170t-144.5 -461z" />
<glyph unicode="&#x153;" horiz-adv-x="2086" d="M102 557q0 270 142.5 419.5t384.5 149.5q315 0 440 -247q125 252 426 251q229 0 364.5 -139t135.5 -407q0 -92 -86 -92h-762q8 -178 113.5 -269.5t271.5 -91.5q117 0 305 57l113 35l30 -135l-108 -35q-203 -65 -346 -65q-330 0 -459 248q-129 -248 -446 -248 q-240 0 -379.5 150.5t-139.5 418.5zM258 557q0 -211 97.5 -324.5t273.5 -113.5t270 113.5t94 324.5q0 207 -98 322.5t-274.5 115.5t-269.5 -114.5t-93 -323.5zM1147 625h692q0 166 -86 271t-260 105q-154 0 -245 -101t-101 -275z" />
<glyph unicode="&#x178;" horiz-adv-x="1327" d="M20 1524h181l473 -723l456 723h177l-557 -862v-662h-160v657zM340 1769.5q0 53.5 27.5 84t74.5 30.5t75 -30.5t28 -84t-28 -84t-75 -30.5t-74.5 30.5t-27.5 84zM809 1769.5q0 53.5 27.5 84t74.5 30.5t75 -30.5t28 -84t-28 -84t-75 -30.5t-74.5 30.5t-27.5 84z" />
<glyph unicode="&#x2c6;" horiz-adv-x="1087" d="M207 1266l274 262q43 39 94 39q57 0 93 -39l276 -262h-229l-140 174l-139 -174h-229z" />
<glyph unicode="&#x2dc;" horiz-adv-x="1087" d="M119 1350q39 111 111.5 164t150.5 53q86 0 149 -51l103 -74q45 -33 86 -33q88 0 143 139l115 -63q-37 -109 -110.5 -163t-149.5 -54q-86 0 -152 51l-100 74q-45 33 -86 32q-90 0 -146 -139z" />
<glyph unicode="&#x2000;" horiz-adv-x="975" />
<glyph unicode="&#x2001;" horiz-adv-x="1950" />
<glyph unicode="&#x2002;" horiz-adv-x="975" />
<glyph unicode="&#x2003;" horiz-adv-x="1950" />
<glyph unicode="&#x2004;" horiz-adv-x="650" />
<glyph unicode="&#x2005;" horiz-adv-x="487" />
<glyph unicode="&#x2006;" horiz-adv-x="325" />
<glyph unicode="&#x2007;" horiz-adv-x="325" />
<glyph unicode="&#x2008;" horiz-adv-x="243" />
<glyph unicode="&#x2009;" horiz-adv-x="390" />
<glyph unicode="&#x200a;" horiz-adv-x="108" />
<glyph unicode="&#x2010;" horiz-adv-x="845" d="M123 594v149h600v-149h-600z" />
<glyph unicode="&#x2011;" horiz-adv-x="845" d="M123 594v149h600v-149h-600z" />
<glyph unicode="&#x2012;" horiz-adv-x="845" d="M123 594v149h600v-149h-600z" />
<glyph unicode="&#x2013;" d="M123 594v147h962v-147h-962z" />
<glyph unicode="&#x2014;" horiz-adv-x="2048" d="M123 594v145h1802v-145h-1802z" />
<glyph unicode="&#x2018;" horiz-adv-x="425" d="M80 1163l94 336q18 63 80 64q45 0 64.5 -30t9.5 -73l-78 -297h-170z" />
<glyph unicode="&#x2019;" horiz-adv-x="425" d="M94 1266l78 297h170l-94 -336q-18 -63 -80 -64q-45 0 -64.5 30t-9.5 73z" />
<glyph unicode="&#x201a;" horiz-adv-x="425" d="M94 -84l78 297h170l-94 -336q-18 -63 -80 -63q-45 0 -64.5 29.5t-9.5 72.5z" />
<glyph unicode="&#x201c;" horiz-adv-x="784" d="M80 1163l94 336q18 63 80 64q45 0 64.5 -30t9.5 -73l-78 -297h-170zM438 1163l94 336q18 63 80 64q45 0 64.5 -30t9.5 -73l-78 -297h-170z" />
<glyph unicode="&#x201d;" horiz-adv-x="784" d="M94 1266l78 297h170l-94 -336q-18 -63 -80 -64q-45 0 -64.5 30t-9.5 73zM453 1266l77 297h170l-94 -336q-18 -63 -80 -64q-45 0 -64.5 30t-8.5 73z" />
<glyph unicode="&#x201e;" horiz-adv-x="784" d="M94 -84l78 297h170l-94 -336q-18 -63 -80 -63q-45 0 -64.5 29.5t-9.5 72.5zM453 -84l77 297h170l-94 -336q-18 -63 -80 -63q-45 0 -64.5 29.5t-8.5 72.5z" />
<glyph unicode="&#x2022;" horiz-adv-x="886" d="M199 682q0 129 65.5 201.5t182 72.5t183 -72.5t66.5 -201.5t-66.5 -201.5t-183 -72.5t-182 72.5t-65.5 201.5z" />
<glyph unicode="&#x2026;" horiz-adv-x="1277" d="M113 96.5q0 53.5 27.5 84t74.5 30.5t74.5 -30.5t27.5 -84t-27.5 -84t-74.5 -30.5t-74.5 30.5t-27.5 84zM539 96.5q0 53.5 27.5 84t74.5 30.5t74.5 -30.5t27.5 -84t-27.5 -84t-74.5 -30.5t-74.5 30.5t-27.5 84zM965 96.5q0 53.5 27.5 84t74.5 30.5t74.5 -30.5t27.5 -84 t-27.5 -84t-74.5 -30.5t-74.5 30.5t-27.5 84z" />
<glyph unicode="&#x202f;" horiz-adv-x="390" />
<glyph unicode="&#x2039;" horiz-adv-x="716" d="M109 575.5q0 51.5 45 96.5l297 289h194l-391 -386l391 -385h-194l-297 289q-45 45 -45 96.5z" />
<glyph unicode="&#x203a;" horiz-adv-x="716" d="M72 190l391 385l-391 386h194l297 -289q45 -45 45 -96.5t-45 -96.5l-297 -289h-194z" />
<glyph unicode="&#x205f;" horiz-adv-x="487" />
<glyph unicode="&#x20ac;" d="M61 555v135h156v146h-156v135h156q0 274 142.5 422.5t375.5 148.5q98 0 314 -57l90 -25l-29 -143l-92 24q-195 51 -279 52q-360 0 -360 -422h508v-135h-510v-146h510v-135h-508q0 -422 360 -422q84 0 279 51l92 25l29 -143l-90 -25q-215 -57 -314 -57 q-233 0 -375.5 148.5t-142.5 422.5h-156z" />
<glyph unicode="&#x2122;" horiz-adv-x="1779" d="M121 1415v109h624v-109h-249v-731h-127v731h-248zM889 684v774q0 35 24.5 55.5t59.5 20.5q74 0 94 -61l199 -627l200 622q18 59 93 60q84 0 83 -70v-774h-112v625l-197 -580q-14 -45 -69.5 -45t-69.5 45l-195 574v-619h-110z" />
<glyph unicode="&#x25fc;" horiz-adv-x="1116" d="M0 0v1116h1116v-1116h-1116z" />
</font>
</defs>
</svg>
