<?xml version="1.0" standalone="no"?>
<!DOCTYPE svg PUBLIC "-//W3C//DTD SVG 1.1//EN" "http://www.w3.org/Graphics/SVG/1.1/DTD/svg11.dtd" >
<svg xmlns="http://www.w3.org/2000/svg">
<metadata></metadata>
<defs>
<font id="newjuneregularitalic" horiz-adv-x="1167" >
<font-face units-per-em="2048" ascent="1597" descent="-451" />
<missing-glyph horiz-adv-x="616" />
<glyph unicode="&#xfb01;" horiz-adv-x="1159" d="M-92 -371l20 123q195 6 230 238l139 979h-168l16 125h168l17 108q55 365 352 365q74 0 203 -33l-31 -129q-113 29 -184 29q-102 0 -145.5 -64.5t-59.5 -187.5l-12 -88h618l-153 -1094h-142l135 969h-477l-139 -985q-25 -172 -126 -263.5t-261 -91.5zM952 1436q0 63 31 99 t82 36q84 0 84 -90q0 -61 -33 -96t-80 -35q-84 0 -84 86z" />
<glyph unicode="&#xfb02;" horiz-adv-x="1183" d="M-92 -371l20 123q195 6 230 238l139 979h-168l16 125h168l17 108q55 365 405 365q131 0 285 -45l143 53l-221 -1575h-139l198 1391q-141 43 -272 43q-113 0 -177.5 -56.5t-86.5 -195.5l-14 -88h329l-16 -125h-330l-139 -985q-25 -172 -126 -263.5t-261 -91.5z" />
<glyph horiz-adv-x="0" />
<glyph horiz-adv-x="682" />
<glyph unicode="&#xd;" horiz-adv-x="681" />
<glyph unicode=" "  horiz-adv-x="616" />
<glyph unicode="&#x09;" horiz-adv-x="616" />
<glyph unicode="&#xa0;" horiz-adv-x="616" />
<glyph unicode="!" horiz-adv-x="438" d="M72 72q0 63 30.5 99t81.5 36q84 0 84 -90q0 -61 -32.5 -96t-79.5 -35q-84 0 -84 86zM147 473l148 1051h141l-145 -1051h-144z" />
<glyph unicode="&#x22;" horiz-adv-x="712" d="M246 1563h141l-14 -410h-115zM584 1563h143l-14 -410h-113z" />
<glyph unicode="#" horiz-adv-x="1382" d="M98 438l19 131h258l65 377h-266l19 129h272l78 449h143l-78 -449h307l78 449h142l-78 -449h258l-19 -129h-258l-67 -377h268l-18 -131h-273l-78 -438h-141l78 438h-309l-82 -438h-148l84 438h-254zM518 569h311l68 377h-311z" />
<glyph unicode="$" d="M72 117l37 135l110 -43q223 -86 383 -86q162 0 256 66.5t94 209.5q0 178 -194 242l-295 96q-133 45 -203 141.5t-70 219.5q0 197 132.5 313.5t353.5 116.5l39 248h135l-41 -256q129 -20 281 -74l102 -37l-39 -135l-113 39q-240 82 -368 82q-158 0 -247 -70t-89 -215 q0 -174 190 -240l293 -98q137 -47 208 -141t71 -221q0 -195 -138.5 -307.5t-363.5 -112.5l-33 -254h-135l37 262q-127 16 -291 80z" />
<glyph unicode="%" horiz-adv-x="1753" d="M162 0l1347 1524h150l-1340 -1524h-157zM188 1102q0 197 114 330t290 133q139 0 220 -89.5t81 -238.5q0 -195 -111.5 -332t-289.5 -137q-141 0 -222.5 90t-81.5 244zM317 1104q0 -104 47.5 -168t137.5 -64q119 0 191.5 106.5t72.5 252.5q0 102 -48 164.5t-138 62.5 q-115 0 -189 -103.5t-74 -250.5zM932 297q0 197 113.5 330t289.5 133q139 0 220 -89t81 -239q0 -195 -111.5 -332t-289.5 -137q-141 0 -222 90t-81 244zM1061 299q0 -104 47 -167.5t137 -63.5q119 0 191.5 106.5t72.5 251.5q0 102 -48 164.5t-138 62.5q-115 0 -188.5 -103.5 t-73.5 -250.5z" />
<glyph unicode="&#x26;" horiz-adv-x="1290" d="M68 336q0 299 346 461q-117 174 -117 340q0 203 128 309t314 106q150 0 246 -83t96 -222q0 -174 -117.5 -290.5t-349.5 -208.5l308 -424q51 57 95 170.5t60 234.5l25 178h135l-27 -186q-20 -139 -78.5 -276.5t-136.5 -217.5l160 -227h-174l-90 129q-84 -68 -204 -111 t-234 -43q-182 0 -283.5 103.5t-101.5 257.5zM211 338q0 -100 62.5 -169t193.5 -69q88 0 187 34t165 89l-334 473q-147 -63 -210.5 -151t-63.5 -207zM434 1141q0 -145 115 -299q397 150 397 401q0 86 -56 139.5t-161 53.5q-141 0 -218 -82t-77 -213z" />
<glyph unicode="'" horiz-adv-x="382" d="M246 1563h151l-14 -410h-123z" />
<glyph unicode="(" horiz-adv-x="567" d="M86 362q0 121 13.5 258.5t52 303.5t98 295t162 217t231.5 88l-16 -121q-104 -2 -186.5 -113.5t-126.5 -278.5t-66.5 -335t-22.5 -311q0 -123 19.5 -206t53.5 -120t61.5 -50.5t64.5 -15.5l-16 -123q-59 0 -111.5 23t-103 75t-79 158t-28.5 256z" />
<glyph unicode=")" horiz-adv-x="567" d="M-31 -150l17 121q104 2 186 114t126 278.5t66.5 334.5t22.5 312q0 123 -19.5 205.5t-53 119.5t-61.5 50.5t-65 15.5l17 123q59 0 111.5 -22.5t102.5 -75t78.5 -158.5t28.5 -256q0 -121 -13 -258.5t-52 -303t-98.5 -294.5t-162 -217.5t-231.5 -88.5z" />
<glyph unicode="*" horiz-adv-x="1026" d="M156 1174l49 153l356 -145l-31 381h168l-30 -381l356 143l49 -154l-371 -88l248 -295l-137 -96l-199 334l-198 -332l-137 97l249 294z" />
<glyph unicode="+" d="M123 537v133h387v436h143v-436h391v-133h-391v-441h-143v441h-387z" />
<glyph unicode="," horiz-adv-x="409" d="M-6 -94l112 307h158l-129 -342q-20 -59 -84 -59q-37 0 -52 27.5t-5 66.5z" />
<glyph unicode="-" horiz-adv-x="761" d="M139 600l19 139h544l-18 -139h-545z" />
<glyph unicode="." horiz-adv-x="409" d="M72 72q0 63 30.5 99t81.5 36q84 0 84 -90q0 -61 -32.5 -96t-79.5 -35q-84 0 -84 86z" />
<glyph unicode="/" horiz-adv-x="808" d="M-33 0l805 1524h141l-800 -1524h-146z" />
<glyph unicode="0" d="M154 483l77 557q33 238 160 370t336 132t301 -134t57 -374l-75 -545q-35 -246 -156 -379t-328 -133q-211 0 -309 135.5t-63 370.5zM291 492q-51 -387 241 -388q152 0 233.5 97.5t108.5 290.5l76 540q55 385 -237 385q-291 0 -346 -385z" />
<glyph unicode="1" d="M90 0l16 131h416l178 1262h-90q-133 0 -229 -45v131q80 45 246 45h104q66 0 95.5 -38t19.5 -104l-176 -1251h336l-17 -131h-899z" />
<glyph unicode="2" d="M92 76q0 63 58 117l552 507q145 133 210 241t65 243q0 223 -246 223q-82 4 -346 -72l-94 -26l-23 129l82 26q237 78 387 78q168 0 274.5 -91t106.5 -259q0 -141 -71.5 -278.5t-251.5 -301.5l-535 -487h713l-17 -125h-786q-78 0 -78 76z" />
<glyph unicode="3" d="M86 90l35 131l86 -28q236 -80 352 -78q162 0 253 79.5t91 219.5q0 92 -59 172l-88 116h-264l16 123h264l102 123q98 123 99 258q0 90 -58.5 144.5t-179.5 54.5q-106 0 -346 -72l-84 -24l-22 131l82 24q250 74 376 74q182 0 276.5 -91t94.5 -239q0 -164 -121 -305 l-121 -139l95 -121q76 -96 75 -229q0 -193 -137 -311.5t-348 -118.5q-145 -2 -389 79z" />
<glyph unicode="4" d="M63 362q0 45 48 107l733 999q55 68 121 68q94 0 82 -102l-144 -1020h166l-18 -123h-166l-39 -291h-135l39 291h-615q-72 0 -72 71zM231 414h537l129 917z" />
<glyph unicode="5" d="M100 84l33 131l78 -27q211 -71 317 -71q182 0 283.5 126t101.5 328q0 270 -286 271q-102 0 -248 -43l-135 -41l106 766h776l-18 -138h-647l-66 -462q160 47 271 47q182 0 283.5 -98.5t101.5 -294.5q0 -270 -144.5 -432t-384.5 -162q-143 0 -348 73z" />
<glyph unicode="6" d="M162 498l80 571q29 217 154.5 342t324.5 125q147 0 350 -70l76 -26l-31 -131l-78 26q-209 70 -321 70q-293 0 -340 -348l-21 -150q188 63 312 64q195 0 294 -103.5t99 -292.5q0 -256 -142.5 -421.5t-371.5 -165.5q-215 0 -315.5 142t-69.5 368zM299 506 q-25 -170 36.5 -280.5t227.5 -110.5q160 0 259.5 126t99.5 330q0 268 -285 269q-90 -1 -299 -58z" />
<glyph unicode="7" d="M289 1393l16 131h803q86 0 86 -72q0 -40 -35 -106l-694 -1346h-158l727 1393h-745z" />
<glyph unicode="8" d="M102 332q0 172 138 313l120 133l-61 127q-51 98 -51 217q0 193 132 307.5t343 114.5q184 0 287.5 -92t103.5 -244q0 -150 -115 -303l-102 -137l84 -123q66 -98 66 -213q0 -207 -143 -331t-372 -124q-199 0 -314.5 94.5t-115.5 260.5zM240 334q0 -104 77 -164.5t220 -60.5 q176 0 273 85t97 228q0 78 -55 164l-78 116h-305l-115 -116q-113 -115 -114 -252zM387 1116q0 -96 37 -170l57 -121h312l88 121q94 129 94 256q0 96 -64.5 153.5t-193.5 57.5q-162 0 -246 -83t-84 -214z" />
<glyph unicode="9" d="M119 84l31 131l77 -27q209 -70 322 -69q293 0 340 348l20 149q-188 -63 -311 -63q-195 0 -294 103.5t-99 291.5q0 256 142 422t372 166q215 0 315.5 -142.5t69.5 -367.5l-80 -571q-29 -217 -155 -342t-324 -125q-147 0 -350 69zM344 952q0 -268 285 -268q90 0 299 57 l39 277q25 170 -37 280.5t-228 110.5q-160 0 -259 -126t-99 -331z" />
<glyph unicode=":" horiz-adv-x="450" d="M92 72q0 63 31 99t82 36q84 0 84 -90q0 -61 -33 -96t-80 -35q-84 0 -84 86zM184 965q0 63 31 99t82 36q84 0 84 -90q0 -61 -33 -96t-80 -35q-84 0 -84 86z" />
<glyph unicode=";" horiz-adv-x="450" d="M14 -94l113 307h158l-129 -342q-20 -59 -84 -59q-37 0 -52.5 27.5t-5.5 66.5zM184 965q0 63 31 99t82 36q84 0 84 -90q0 -61 -33 -96t-80 -35q-84 0 -84 86z" />
<glyph unicode="&#x3c;" d="M123 604q0 74 67 105l854 374v-161l-770 -322l770 -319v-156l-854 373q-68 27 -67 106z" />
<glyph unicode="=" d="M123 379v137h921v-137h-921zM123 707v139h921v-139h-921z" />
<glyph unicode="&#x3e;" d="M123 125v156l770 319l-770 322v161l854 -374q68 -31 67 -105q1 -79 -67 -106z" />
<glyph unicode="?" horiz-adv-x="915" d="M213 1450l82 27q168 53 305 53q158 0 242 -78t84 -221q0 -119 -53.5 -209t-153.5 -184l-184 -176l-31 -189h-129l16 115q10 68 25.5 102.5t60.5 81.5l158 158q100 106 123 149q33 61 33 148q0 174 -197 174q-104 0 -275 -49l-86 -25zM291 72q0 63 30.5 99t81.5 36 q84 0 84 -90q0 -61 -32.5 -96t-79.5 -35q-84 0 -84 86z" />
<glyph unicode="@" horiz-adv-x="1910" d="M180 721q0 360 229.5 590.5t585.5 230.5q322 0 533 -200t211 -511q0 -225 -120 -372.5t-280 -147.5q-49 0 -112.5 28t-87.5 28q-39 0 -123 -16.5t-137 -16.5q-158 0 -242 97t-84 247q0 188 112.5 317t311.5 129q76 0 211 -16l8 72h129l-94 -709q57 -45 119 -45 q96 0 176 112.5t80 295.5q0 258 -175.5 417.5t-435.5 159.5q-303 0 -490.5 -193.5t-187.5 -496.5q0 -272 159 -447.5t427 -175.5q102 0 249.5 40t217.5 40q68 0 127 -33l96 -57l-51 -100l-94 45q-39 18 -86 18q-51 0 -202.5 -37t-268.5 -37q-326 0 -518.5 212t-192.5 532z M686 674q0 -100 52.5 -164t156.5 -64q49 0 209 29l70 522q-106 14 -197 15q-145 0 -218 -96.5t-73 -241.5z" />
<glyph unicode="A" horiz-adv-x="1286" d="M-20 0l682 1452q39 86 122 86q80 0 97 -84l272 -1454h-154l-59 344h-651l-160 -344h-149zM344 467h576l-158 913z" />
<glyph unicode="B" horiz-adv-x="1261" d="M115 135l174 1260q8 59 48 94t103 35h453q156 0 242 -81t86 -222q0 -166 -117 -316l-117 -137l98 -127q76 -102 76 -219q0 -188 -131 -305t-332 -117h-465q-57 0 -92 36q-28 29 -28 74q0 12 2 25zM252 123h473q137 0 217 78t80 211q0 92 -57 174l-93 121h-540zM348 825 h537l98 121q98 127 98 273q0 86 -49 136t-153 50h-449z" />
<glyph unicode="C" horiz-adv-x="1298" d="M143 563q0 420 201 694.5t533 274.5q147 0 354 -78l88 -33l-37 -129l-98 35q-203 72 -320 72q-262 0 -417.5 -234.5t-155.5 -597.5q0 -229 101.5 -340.5t287.5 -111.5q131 0 342 71l108 37l21 -125l-98 -35q-220 -79 -383 -79h-4q-242 0 -382.5 149t-140.5 430z" />
<glyph unicode="D" horiz-adv-x="1378" d="M115 139l174 1245q10 63 52 101.5t105 38.5h332q244 0 386.5 -145.5t142.5 -426.5q0 -416 -203 -684t-537 -268h-336q-59 0 -92 39q-26 31 -26 75q0 12 2 25zM254 125h326q264 0 421.5 231.5t157.5 591.5q0 227 -104.5 339t-290.5 112h-324z" />
<glyph unicode="E" horiz-adv-x="1189" d="M115 139l174 1245q8 63 51 101.5t106 38.5h764l-16 -125h-756l-80 -555h678l-16 -125h-678l-86 -594h762l-17 -125h-770q-63 0 -95 38q-24 28 -24 70q0 15 3 31z" />
<glyph unicode="F" horiz-adv-x="1138" d="M92 0l195 1384q10 63 52 101.5t105 38.5h746l-19 -125h-737l-82 -584h690l-16 -127h-690l-98 -688h-146z" />
<glyph unicode="G" horiz-adv-x="1361" d="M143 563q0 420 205 694.5t547 274.5q164 0 365 -72l92 -33l-35 -129l-100 35q-195 66 -334 66q-274 0 -433 -232.5t-159 -599.5q0 -229 109.5 -342.5t306.5 -113.5q152 0 340 53l67 430h-348l14 123h353q61 0 94 -39q25 -29 25 -71q0 -14 -3 -29l-57 -385 q-8 -63 -41 -97.5t-96 -50.5q-222 -57 -365 -57q-254 0 -400.5 147.5t-146.5 427.5z" />
<glyph unicode="H" horiz-adv-x="1366" d="M92 0l215 1524h144l-97 -680h752l96 680h144l-216 -1524h-143l103 715h-752l-102 -715h-144z" />
<glyph unicode="I" horiz-adv-x="471" d="M92 0l215 1524h144l-215 -1524h-144z" />
<glyph unicode="J" horiz-adv-x="729" d="M-20 27l32 133q133 -35 193 -35q90 0 137 57.5t64 184.5l161 1157h142l-164 -1168q-51 -364 -353 -364h-2q-66 0 -210 35z" />
<glyph unicode="K" horiz-adv-x="1239" d="M92 0l213 1524h139l-127 -891l805 891h178l-489 -537l301 -987h-151l-265 872l-239 -260q-59 -63 -88 -98t-59.5 -96.5t-39.5 -128.5l-39 -289h-139z" />
<glyph unicode="L" horiz-adv-x="1083" d="M115 139l194 1385h148l-199 -1397h723l-16 -127h-734q-63 0 -95 38q-24 28 -24 70q0 15 3 31z" />
<glyph unicode="M" horiz-adv-x="1622" d="M92 0l199 1419q8 53 44 84t87 31q94 0 108 -98l224 -1284l581 1284q45 98 131 98h7q51 0 83 -30q25 -24 25 -64q0 -10 -2 -21l-199 -1419h-133l189 1346l-592 -1289q-35 -71 -109 -71h-2q-82 0 -94 71l-231 1274l-187 -1331h-129z" />
<glyph unicode="N" horiz-adv-x="1372" d="M92 0l199 1432q14 106 119 106q66 0 94 -65l524 -1258l186 1309h138l-201 -1428q-16 -106 -117 -106q-66 0 -94 65l-526 1254l-185 -1309h-137z" />
<glyph unicode="O" horiz-adv-x="1486" d="M143 610q0 414 214.5 668t523.5 254q244 0 389 -163t145 -458q0 -399 -213 -663t-528 -264q-244 0 -387.5 164.5t-143.5 461.5zM289 608q0 -246 106.5 -374t298.5 -128q164 0 295 109t204 292t73 402q0 244 -107 369t-297 125q-244 0 -408.5 -221t-164.5 -574z" />
<glyph unicode="P" horiz-adv-x="1157" d="M92 0l195 1384q10 63 52 101.5t105 38.5h365q166 0 262 -106.5t96 -282.5q0 -229 -141 -382t-348 -153h-356l-91 -600h-139zM338 723h356q150 0 245 117.5t95 287.5q0 125 -64.5 200t-181.5 75h-356z" />
<glyph unicode="Q" horiz-adv-x="1507" d="M154 610q0 414 214 668t523 254q244 0 389 -164t145 -457q0 -287 -136 -534.5t-343 -321.5q131 -55 273 -55h61l-18 -121h-62q-123 0 -270.5 52.5t-243.5 52.5q-244 0 -388 164.5t-144 461.5zM299 608q0 -246 104.5 -374t298.5 -128q248 0 411 233.5t163 567.5 q0 244 -105.5 371t-298.5 127q-244 0 -408.5 -222t-164.5 -575z" />
<glyph unicode="R" horiz-adv-x="1267" d="M92 0l195 1395q8 59 48 94t103 35h445q162 0 248 -85t86 -245q0 -178 -156 -367l-137 -159l211 -668h-148l-192 627h-473l-89 -627h-141zM338 748h500l100 122q137 176 137 320q0 100 -52 157.5t-159 57.5h-434z" />
<glyph unicode="S" horiz-adv-x="1224" d="M78 113l37 135l110 -43q223 -86 383 -86t255 68.5t95 211.5q0 178 -194 242l-295 96q-133 45 -202.5 141.5t-69.5 219.5q0 199 132 317.5t353 118.5q178 0 414 -84l102 -37l-39 -135l-112 39q-240 82 -369 82q-158 0 -247 -72t-89 -217q0 -174 190 -240l293 -98 q137 -47 208 -141t71 -221q0 -195 -138.5 -310.5t-361.5 -115.5q-193 0 -424 90z" />
<glyph unicode="T" horiz-adv-x="1169" d="M184 1399l17 125h1042l-16 -125h-449l-198 -1399h-146l199 1399h-449z" />
<glyph unicode="U" horiz-adv-x="1386" d="M174 541l137 983h142l-138 -983q-8 -57 -8 -107q0 -331 342 -332q387 0 447 439l137 983h143l-137 -983q-39 -268 -194.5 -419t-407.5 -151q-258 1 -379 151q-93 115 -93 300q0 56 9 119z" />
<glyph unicode="V" horiz-adv-x="1243" d="M215 1524h147l205 -1350l580 1350h158l-648 -1454q-37 -80 -116 -80q-82 0 -95 80z" />
<glyph unicode="W" horiz-adv-x="1804" d="M248 80l26 1444h136l-29 -1342l555 1264q31 78 113 78q80 0 90 -78l180 -1262l354 1340h142l-394 -1444q-23 -92 -118 -92q-94 0 -103 84l-178 1290l-557 -1292q-33 -82 -119 -82q-48 0 -74 24q-25 22 -24 62v6z" />
<glyph unicode="X" horiz-adv-x="1269" d="M0 0l586 772l-365 752h162l307 -637l467 637h174l-569 -756l360 -768h-166l-301 655l-481 -655h-174z" />
<glyph unicode="Y" horiz-adv-x="1245" d="M195 1524h161l310 -721l493 721h168l-608 -862l-94 -662h-148l94 657z" />
<glyph unicode="Z" horiz-adv-x="1216" d="M41 84q0 53 37 98l966 1217h-811l17 125h870q41 0 63.5 -23.5t22.5 -60.5q0 -56 -35 -99l-970 -1216h846l-15 -125h-905q-41 0 -63.5 23.5t-22.5 60.5z" />
<glyph unicode="[" horiz-adv-x="567" d="M45 -133l231 1657h353l-17 -123h-215l-198 -1411h215l-17 -123h-352z" />
<glyph unicode="\" horiz-adv-x="829" d="M168 1524h141l465 -1524h-145z" />
<glyph unicode="]" horiz-adv-x="567" d="M0 -133l16 123h215l199 1411h-215l16 123h353l-232 -1657h-352z" />
<glyph unicode="^" d="M145 88l351 954q25 70 86 70q68 0 92 -70l352 -954h-149l-295 840l-291 -840h-146z" />
<glyph unicode="_" horiz-adv-x="1024" d="M-4 -199h1032v-137h-1032v137z" />
<glyph unicode="`" horiz-adv-x="1095" d="M518 1563h191l133 -164q20 -23 20 -51q0 -23 -15.5 -41.5t-45.5 -18.5q-22 0 -51 25z" />
<glyph unicode="a" horiz-adv-x="1148" d="M92 457q0 262 150.5 450.5t400.5 188.5q119 0 270 -37l15 104h139l-152 -1013l115 -68l-61 -111l-86 47q-38 21 -90 21q-24 0 -50 -4l-79 -17q-113 -20 -177 -20q-197 0 -296 120t-99 339zM236 457q0 -152 64.5 -243t201.5 -91q100 0 200 22l78 17l115 774 q-145 33 -260 33q-186 0 -292.5 -150.5t-106.5 -361.5z" />
<glyph unicode="b" horiz-adv-x="1163" d="M115 168l196 1395h133l-65 -480q174 39 285 39q199 0 300 -125t101 -338q0 -174 -62.5 -323.5t-193.5 -247.5t-303 -98q-160 0 -289 35q-104 27 -104 116q0 13 2 27zM246 147q135 -30 260 -30h8q135 0 230.5 82t137.5 201.5t42 258.5q0 152 -70 241t-221 89h-10 q-122 0 -261 -24z" />
<glyph unicode="c" horiz-adv-x="1030" d="M102 455q0 283 154 476t399 193q106 0 279 -57l65 -23l-41 -129l-73 25q-156 53 -246 53q-184 0 -287.5 -158.5t-103.5 -379.5q0 -150 72.5 -243t201.5 -93q109 0 275 47l86 27l22 -125l-90 -27q-182 -53 -307 -53q-195 0 -300.5 129t-105.5 338z" />
<glyph unicode="d" horiz-adv-x="1159" d="M98 453q0 174 62.5 323.5t193.5 247.5t303 98q150 0 279 -35l68 476h135l-195 -1395q-14 -112 -137 -143q-143 -35 -295 -35q-207 0 -310.5 124t-103.5 339zM240 453q0 -152 69.5 -241t220.5 -89h10q122 0 261 24l117 818q-135 30 -261 30h-8q-135 0 -230 -82 t-137 -201.5t-42 -258.5z" />
<glyph unicode="e" horiz-adv-x="1148" d="M102 446q0 293 162 488.5t393 195.5q215 0 323 -144q77 -103 76 -271q0 -67 -12 -144q-10 -69 -67 -69h-2h-725q-2 -26 -2 -50q0 -140 68 -228q80 -104 212 -103q150 0 330 61l107 37l28 -127l-108 -35q-218 -69 -365 -69h-4q-188 0 -301 126t-113 332zM266 616h639 q10 55 10 104q-1 101 -43 177q-64 113 -225 113q-139 0 -242.5 -111t-138.5 -283z" />
<glyph unicode="f" horiz-adv-x="761" d="M-92 -371l20 123q195 6 230 238l139 979h-168l16 125h168l17 108q55 365 352 365q74 0 203 -33l-31 -129q-113 29 -184 29q-102 0 -145.5 -64.5t-59.5 -187.5l-12 -88h327l-16 -125h-330l-139 -985q-25 -172 -126 -263.5t-261 -91.5z" />
<glyph unicode="g" horiz-adv-x="1236" d="M61 -84q0 115 97 217l121 127q47 53 47 98q0 70 -74 144q-98 102 -98 227q0 190 144 286.5t343 96.5h141q156 0 215 18l199 64l31 -129l-228 -68q76 -66 76 -200q0 -188 -133 -285.5t-367 -97.5q-41 0 -76.5 3t-52.5 5l-14 4q18 -33 19 -78q0 -59 -64 -127h401 q154 0 233 -67.5t79 -176.5q0 -178 -156 -263t-414 -85q-217 0 -343 73t-126 214zM197 -80q0 -180 346 -180q422 0 422 229q-1 131 -191 131h-493q-84 -86 -84 -180zM289 727q0 -211 293 -211q162 0 260 67.5t98 211.5q0 204 -293 204q-358 0 -358 -272z" />
<glyph unicode="h" horiz-adv-x="1134" d="M92 0l219 1563h133l-71 -508q179 67 303 67h4q194 0 272 -108q58 -81 59 -204q0 -41 -7 -87l-103 -723h-137l98 709q6 41 6 76q0 83 -33 135q-47 74 -186 73q-96 0 -293 -71l-129 -922h-135z" />
<glyph unicode="i" horiz-adv-x="475" d="M92 0l156 1114h141l-156 -1114h-141zM268 1436q0 63 31 99t82 36q84 0 84 -90q0 -61 -33 -96t-80 -35q-84 0 -84 86z" />
<glyph unicode="j" horiz-adv-x="475" d="M-164 -371l21 123q195 6 229 238l160 1124h141l-160 -1130q-25 -172 -128 -263.5t-263 -91.5zM270 1436q0 63 31 99t82 36q84 0 84 -90q0 -61 -33 -96t-80 -35q-84 0 -84 86z" />
<glyph unicode="k" horiz-adv-x="1095" d="M92 0l219 1563h138l-152 -1061l618 612h181l-406 -393l301 -721h-151l-267 621l-172 -162q-72 -66 -102.5 -116t-44.5 -150l-29 -193h-133z" />
<glyph unicode="l" horiz-adv-x="481" d="M102 0l220 1563h139l-221 -1563h-138z" />
<glyph unicode="m" horiz-adv-x="1658" d="M92 0l129 930q16 106 129 143q145 49 285 49q170 0 246 -102q205 102 360 102q175 0 243 -101q51 -75 50 -191q0 -41 -6 -87l-105 -743h-133l103 729q4 36 4 67q0 80 -29 128q-41 68 -159.5 67.5t-280.5 -73.5q12 -49 13 -105q0 -34 -5 -70l-105 -743h-137l103 729 q5 36 5 67q0 197 -190 197q-113 0 -252 -45l-133 -948h-135z" />
<glyph unicode="n" horiz-adv-x="1130" d="M92 0l129 930q18 115 129 143q186 49 328 49q196 0 272 -110q58 -83 57 -205q0 -40 -6 -84l-102 -723h-137l98 709q6 41 6 77q0 84 -33 134q-47 72 -186 73q-115 0 -287 -45l-133 -948h-135z" />
<glyph unicode="o" horiz-adv-x="1165" d="M98 459q0 289 158.5 478t400.5 189q193 0 301.5 -126t108.5 -343q0 -279 -157.5 -474t-403.5 -195q-190 0 -299 127t-109 344zM244 461q0 -160 71.5 -255t208.5 -95q178 0 289 164.5t111 379.5q0 160 -72 253t-211 93q-174 0 -285.5 -160.5t-111.5 -379.5z" />
<glyph unicode="p" horiz-adv-x="1161" d="M31 -369l182 1313q14 112 137 143q143 35 295 35q207 0 310.5 -124t103.5 -339q0 -174 -62.5 -323.5t-193.5 -247.5t-303 -98q-150 0 -279 35l-55 -394h-135zM240 147q135 -30 260 -30h8q135 0 230.5 82t137.5 201.5t42 258.5q0 152 -70 241t-221 89h-10q-123 0 -261 -24 z" />
<glyph unicode="q" horiz-adv-x="1165" d="M109 453q0 174 62 323.5t193.5 247.5t303.5 98q160 0 288 -35q105 -27 105 -118q0 -12 -2 -25l-185 -1313h-133l54 398q-174 -39 -285 -39q-199 0 -300 125t-101 338zM250 453q0 -152 69.5 -241t221.5 -89h10q123 0 260 24l117 818q-135 30 -261 30h-8q-135 0 -230 -83 t-137 -202.5t-42 -256.5z" />
<glyph unicode="r" horiz-adv-x="735" d="M92 0l125 909q8 57 36 90t83 52q205 71 420 71l-21 -135q-211 0 -379 -63l-127 -924h-137z" />
<glyph unicode="s" horiz-adv-x="1038" d="M61 78l39 127l76 -25q199 -63 332 -63q235 0 235 186q0 61 -36.5 99t-116.5 61l-195 55q-235 68 -235 273q0 174 114.5 254.5t274.5 80.5q158 0 356 -67l72 -25l-37 -129l-78 25q-202 65 -326 65h-4q-235 0 -235 -190q0 -119 156 -162l196 -55q119 -33 176.5 -97.5 t57.5 -173.5q0 -168 -116 -249.5t-273 -81.5q-162 0 -361 67z" />
<glyph unicode="t" horiz-adv-x="825" d="M123 967l18 127h162l39 282l141 33l-43 -315h344l-18 -127h-344l-90 -617q-7 -46 -6 -82q0 -61 18 -96q30 -55 117 -55q82 0 219 45v-125q-147 -49 -242 -49q-251 0 -251 256q0 47 8 102l90 621h-162z" />
<glyph unicode="u" horiz-adv-x="1130" d="M129 391l102 723h138l-99 -708q-6 -41 -6 -77q0 -84 33 -135q47 -73 186 -73q115 0 287 45l133 948h135l-129 -930q-18 -115 -129 -143q-186 -49 -327 -49q-195 0 -272 110q-58 83 -58 205q0 40 6 84z" />
<glyph unicode="v" horiz-adv-x="1077" d="M143 1114h148l170 -975l454 975h152l-508 -1055q-39 -79 -119 -79h-2q-86 0 -100 79z" />
<glyph unicode="w" horiz-adv-x="1570" d="M174 1114h148l34 -967l400 906q31 67 94 67h2q68 0 80 -67l143 -906l324 967h141l-366 -1044q-31 -90 -123 -90q-80 0 -93 83l-129 871l-389 -873q-35 -79 -114 -79h-2q-90 0 -95 90z" />
<glyph unicode="x" horiz-adv-x="1034" d="M-10 0l448 561l-299 553h164l234 -444l335 444h172l-438 -545l309 -569h-163l-242 459l-350 -459h-170z" />
<glyph unicode="y" horiz-adv-x="1069" d="M0 -346l31 125q88 -27 141 -27q66 0 105.5 32t70.5 103l29 64l-252 1163h158l192 -979l418 979h156l-576 -1276q-96 -213 -305 -213q-74 0 -168 29z" />
<glyph unicode="z" horiz-adv-x="1060" d="M61 82q0 53 35 90l744 827h-645l14 115h711q80 0 79 -78q1 -55 -34 -92l-734 -825h652l-17 -119h-725q-37 0 -58.5 22.5t-21.5 59.5z" />
<glyph unicode="{" horiz-adv-x="563" d="M98 649v88q133 2 133 111q0 57 -53 193.5t-53 215.5q0 125 78 196t198 71h82v-127h-82q-141 0 -141 -148q0 -74 48 -202.5t48 -198.5q0 -49 -20.5 -88t-40.5 -51l-21 -15q8 -4 22.5 -14t37 -51t22.5 -90q0 -70 -48 -199t-48 -203q0 -147 141 -147h82v-127h-82 q-121 0 -198.5 70.5t-77.5 195.5q0 80 53 216t53 194q0 108 -133 110z" />
<glyph unicode="|" horiz-adv-x="444" d="M158 -369v1934h129v-1934h-129z" />
<glyph unicode="}" horiz-adv-x="563" d="M98 -10h82q141 0 142 147q0 74 -48.5 203t-48.5 199q0 49 20.5 88t41.5 53l20 14q-8 4 -22.5 14.5t-37 50.5t-22.5 89q0 70 48.5 199t48.5 202q0 147 -142 148h-82v127h82q121 0 199 -71t78 -196q0 -80 -53.5 -216t-53.5 -193q0 -109 133 -111v-88q-133 -2 -133 -110 q0 -57 53.5 -193.5t53.5 -216.5q0 -125 -78 -195.5t-199 -70.5h-82v127z" />
<glyph unicode="~" d="M100 557q90 246 287 246q92 0 176 -64l117 -92q49 -41 98 -41t88 37t78 135l117 -76q-90 -246 -285 -245q-92 0 -176 63l-117 92q-49 41 -98 41t-89 -36.5t-79 -135.5z" />
<glyph unicode="&#xa1;" horiz-adv-x="438" d="M37 -381l145 1051h144l-148 -1051h-141zM205 1026q0 61 32.5 96t79.5 35q84 0 84 -86q0 -63 -30.5 -99t-81.5 -36q-84 0 -84 90z" />
<glyph unicode="&#xa2;" d="M156 455q0 264 135 452.5t356 210.5l35 258h135l-37 -260q90 -14 207 -51l66 -23l-41 -129l-74 25q-156 53 -246 53q-184 0 -287.5 -158.5t-103.5 -377.5q0 -150 72.5 -242t201.5 -92q109 0 275 47l86 27l22 -125l-90 -27q-154 -45 -250 -51l-38 -262h-136l41 266 q-158 23 -243.5 147.5t-85.5 311.5z" />
<glyph unicode="&#xa3;" d="M27 51q0 76 67 76q74 0 131.5 22.5t91 57.5t55 83t29 91t7.5 88q0 27 -13 100h-239l16 121h184q-102 281 -102 414q0 211 123 322.5t330 111.5q162 0 358 -74l72 -26l-29 -131l-78 26q-209 72 -321 72q-309 0 -310 -303q0 -127 105 -410h368l-16 -121h-319 q12 -57 12 -100q0 -197 -143 -340h309q98 0 149 39t68 135h115q-20 -143 -108.5 -224t-233.5 -81h-627q-51 0 -51 51z" />
<glyph unicode="&#xa5;" d="M123 444l16 121h385l23 162h-385l18 119h326l-270 678h159l248 -650l418 650h166l-457 -678h322l-19 -119h-379l-22 -162h379l-17 -121h-379l-61 -444h-148l62 444h-385z" />
<glyph unicode="&#xa6;" horiz-adv-x="444" d="M154 -369v770h139v-770h-139zM154 795v768h139v-768h-139z" />
<glyph unicode="&#xa7;" d="M49 -287l29 131l80 -24q211 -68 319 -68q301 0 350 348l23 148q-188 -63 -301 -64q-221 0 -321.5 127.5t-67.5 360.5l55 391q31 215 159 344t333 129q129 0 352 -70l76 -24l-31 -131l-80 24q-217 70 -319 70q-301 0 -351 -348l-20 -150q188 63 299 64q221 0 321.5 -125 t67.5 -357l-57 -395q-31 -215 -158 -345t-330 -130q-137 0 -352 70zM299 666q-23 -168 36.5 -258.5t233.5 -90.5q94 0 297 56l19 123q23 166 -38 255t-235 89q-88 0 -297 -58z" />
<glyph unicode="&#xa8;" horiz-adv-x="1142" d="M397 1436q0 63 31 99t82 36q84 0 84 -90q0 -61 -33 -96t-80 -35q-84 0 -84 86zM827 1436q0 63 31 99t82 36q84 0 84 -90q0 -61 -33 -96t-80 -35q-84 0 -84 86z" />
<glyph unicode="&#xa9;" horiz-adv-x="1910" d="M152 752q0 346 232 572t570 226q336 0 568.5 -224t232.5 -574q0 -344 -233.5 -573.5t-567.5 -229.5q-336 0 -569 229.5t-233 573.5zM279 752q0 -293 195.5 -485.5t479.5 -192.5q281 0 476.5 193.5t195.5 484.5q0 299 -193.5 487t-478 188t-480 -190t-195.5 -485zM557 748 q0 207 107.5 318.5t289.5 111.5q78 0 246 -43l72 -19l-29 -112l-74 18q-145 37 -211 37q-270 0 -270 -311q0 -309 273 -310q57 0 208 39l74 19l29 -113l-72 -18q-168 -43 -246 -43q-184 0 -290.5 105.5t-106.5 320.5z" />
<glyph unicode="&#xaa;" d="M221 913q0 256 330 256h225v74q0 172 -166 172q-88 0 -256 -41l-84 -20l-24 114l86 25q166 47 280 47q131 0 213 -71.5t82 -225.5v-436l92 -53l-47 -99l-84 41q-45 20 -127 4l-98 -20q-96 -18 -149 -18q-129 0 -201 70.5t-72 180.5zM358 920q0 -143 154 -144q47 0 176 25 l88 16v242h-227q-96 0 -143.5 -33t-47.5 -106z" />
<glyph unicode="&#xab;" horiz-adv-x="1083" d="M98 561q0 55 56 111l305 289h190l-409 -392l340 -379h-183l-264 289q-35 35 -35 82zM504 561q0 55 55 111l305 289h191l-410 -392l340 -379h-182l-264 289q-35 35 -35 82z" />
<glyph unicode="&#xac;" d="M123 635v137h911v-582h-135v445h-776z" />
<glyph unicode="&#xad;" horiz-adv-x="761" d="M139 600l19 139h544l-18 -139h-545z" />
<glyph unicode="&#xae;" horiz-adv-x="1910" d="M152 752q0 346 232 572t570 226q336 0 568.5 -224t232.5 -574q0 -344 -233.5 -573.5t-567.5 -229.5q-336 0 -569 229.5t-233 573.5zM279 752q0 -293 195.5 -485.5t479.5 -192.5q281 0 476.5 193.5t195.5 484.5q0 299 -193.5 487t-478 188t-480 -190t-195.5 -485zM668 342 v725q0 104 118 104h258q111 0 176.5 -64.5t65.5 -170.5q0 -82 -43 -150l-72 -104l172 -340h-137l-145 299h-270v-299h-123zM791 750h284l53 77q29 50 29 109t-35 93t-92 34h-239v-313z" />
<glyph unicode="&#xaf;" horiz-adv-x="1064" d="M342 1356l18 135h605l-19 -135h-604z" />
<glyph unicode="&#xb0;" horiz-adv-x="948" d="M213 1167q0 172 106.5 285t280.5 113t277.5 -113t103.5 -285q0 -174 -105.5 -286.5t-279.5 -112.5q-176 0 -279.5 112.5t-103.5 286.5zM346 1167q0 -131 66.5 -210.5t187.5 -79.5t185.5 78.5t64.5 211.5q0 129 -67.5 208t-186.5 79q-121 0 -185.5 -78t-64.5 -209z" />
<glyph unicode="&#xb1;" d="M123 0v127h921v-127h-921zM123 598v135h387v373h141v-373h393v-135h-393v-354h-141v354h-387z" />
<glyph unicode="&#xb4;" horiz-adv-x="1095" d="M512 1346q0 29 33 59l166 158h215l-297 -254q-31 -25 -57.5 -25t-43 18.5t-16.5 43.5z" />
<glyph unicode="&#xb5;" d="M174 -377v1491h148v-706q0 -131 57 -202t201 -71q109 0 280 45v934h148v-921q0 -119 -113 -148q-180 -49 -330 -49q-166 -2 -246 72v-445h-145z" />
<glyph unicode="&#xb6;" horiz-adv-x="1187" d="M100 995.5q0 231.5 117 380t340 148.5h526v-1905h-133v1786h-270v-1786h-133v848q-215 0 -331 148.5t-116 380z" />
<glyph unicode="&#xb7;" horiz-adv-x="772" d="M324 727q0 63 30.5 99t81.5 36q84 0 84 -90q0 -61 -32.5 -96t-79.5 -35q-84 0 -84 86z" />
<glyph unicode="&#xb8;" horiz-adv-x="1073" d="M274 -362l31 88q76 -33 146 -33q102 0 102 71q0 39 -42 48.5t-132 9.5l-8 14l102 164h86l-63 -104q166 -1 166 -132q0 -80 -60.5 -123.5t-152.5 -43.5q-82 0 -175 41z" />
<glyph unicode="&#xba;" d="M211 1104q0 203 101.5 320.5t273.5 117.5t271 -116.5t99 -321.5q0 -203 -101 -321.5t-273 -118.5t-271.5 117.5t-99.5 322.5zM346 1103.5q0 -151.5 63.5 -237.5t176.5 -86q115 0 176 85t61 239q0 150 -64.5 235.5t-176.5 85.5q-115 0 -175.5 -85t-60.5 -236.5z" />
<glyph unicode="&#xbb;" horiz-adv-x="1083" d="M72 190l409 392l-340 379h183l264 -289q35 -35 35 -82q0 -55 -56 -111l-305 -289h-190zM477 190l410 392l-340 379h182l264 -289q35 -35 35 -82q0 -55 -55 -111l-305 -289h-191z" />
<glyph unicode="&#xbf;" horiz-adv-x="913" d="M20 -88q0 119 53.5 209t153.5 184l185 176l30 189h129l-16 -115q-10 -68 -25.5 -102.5t-60.5 -81.5l-158 -158q-100 -106 -123 -150q-33 -61 -32 -147q-1 -174 196 -174q104 0 275 49l86 25l20 -123l-82 -27q-168 -53 -305 -53q-158 0 -242 78t-84 221zM459 1026 q0 61 32.5 96t79.5 35q84 0 84 -86q0 -63 -30.5 -99t-81.5 -36q-84 0 -84 90z" />
<glyph unicode="&#xc0;" horiz-adv-x="1286" d="M-20 0l682 1452q39 86 122 86q80 0 97 -84l272 -1454h-154l-59 344h-651l-160 -344h-149zM344 467h576l-158 913zM567 1915h191l133 -164q20 -23 20 -51q0 -23 -15 -41.5t-46 -18.5q-22 0 -51 25z" />
<glyph unicode="&#xc1;" horiz-adv-x="1286" d="M-20 0l682 1452q39 86 122 86q80 0 97 -84l272 -1454h-154l-59 344h-651l-160 -344h-149zM344 467h576l-158 913zM651 1698q0 29 33 59l166 158h215l-297 -254q-31 -25 -57.5 -25t-43 18.5t-16.5 43.5z" />
<glyph unicode="&#xc2;" horiz-adv-x="1286" d="M-20 0l682 1452q39 86 122 86q80 0 97 -84l272 -1454h-154l-59 344h-651l-160 -344h-149zM344 467h576l-158 913zM459 1661l276 254q41 37 92 37q41 0 78 -37l207 -254h-180l-117 174l-160 -174h-196z" />
<glyph unicode="&#xc3;" horiz-adv-x="1286" d="M-20 0l682 1452q39 86 122 86q80 0 97 -84l272 -1454h-154l-59 344h-651l-160 -344h-149zM344 467h576l-158 913zM399 1710q49 106 119 157.5t137 51.5q86 0 150 -57l72 -66q39 -35 73 -35q80 0 150 140l96 -62q-49 -106 -118.5 -157.5t-137.5 -51.5q-89 1 -152 62 l-67 63q-35 35 -76 35q-80 0 -149 -141z" />
<glyph unicode="&#xc4;" horiz-adv-x="1286" d="M-20 0l682 1452q39 86 122 86q80 0 97 -84l272 -1454h-154l-59 344h-651l-160 -344h-149zM344 467h576l-158 913zM506 1755q0 63 30.5 99t81.5 36q84 0 84 -90q0 -61 -32.5 -96t-79.5 -35q-84 0 -84 86zM936 1755q0 63 31 99t82 36q84 0 84 -90q0 -61 -33 -96t-80 -35 q-84 0 -84 86z" />
<glyph unicode="&#xc5;" horiz-adv-x="1286" d="M-20 0l684 1458q-76 49 -76 153.5t67.5 170t165.5 65.5q80 0 132.5 -48t52.5 -134q0 -137 -127 -207l274 -1458h-154l-59 344h-651l-160 -344h-149zM344 467h576l-158 913zM682 1616q0 -104 96 -105q53 0 93 43t40 107q0 47 -26.5 75.5t-71.5 28.5q-57 0 -94 -44 t-37 -105z" />
<glyph unicode="&#xc6;" horiz-adv-x="1935" d="M-20 0l686 1401q57 123 190 123h1100l-19 -125h-755l-80 -555h678l-17 -125h-678l-86 -594h762l-16 -125h-768q-63 0 -95 38t-22 101l29 205h-592l-164 -344h-153zM358 467h549l133 932h-237z" />
<glyph unicode="&#xc7;" horiz-adv-x="1298" d="M143 563q0 420 201 694.5t533 274.5q147 0 354 -78l88 -33l-37 -129l-98 35q-203 72 -320 72q-262 0 -417.5 -234.5t-155.5 -597.5q0 -229 101.5 -340.5t287.5 -111.5q131 0 342 71l108 37l21 -125l-98 -35q-223 -80 -387 -79q-242 0 -382.5 149t-140.5 430zM434 -362 l31 88q76 -33 145 -33q102 0 103 71q0 39 -42 48.5t-132 9.5l-9 14l103 164h86l-64 -104q166 -1 166 -132q0 -80 -60.5 -123.5t-152.5 -43.5q-82 0 -174 41z" />
<glyph unicode="&#xc8;" horiz-adv-x="1189" d="M115 139l174 1245q8 63 51 101.5t106 38.5h764l-16 -125h-756l-80 -555h678l-16 -125h-678l-86 -594h762l-17 -125h-770q-63 0 -95 38t-21 101zM518 1915h191l133 -164q20 -23 20 -51q0 -23 -15.5 -41.5t-45.5 -18.5q-22 0 -51 25z" />
<glyph unicode="&#xc9;" horiz-adv-x="1189" d="M115 139l174 1245q8 63 51 101.5t106 38.5h764l-16 -125h-756l-80 -555h678l-16 -125h-678l-86 -594h762l-17 -125h-770q-63 0 -95 38t-21 101zM633 1698q0 29 33 59l165 158h216l-297 -254q-31 -25 -58 -25q-29 0 -44 18.5t-15 43.5z" />
<glyph unicode="&#xca;" horiz-adv-x="1189" d="M115 139l174 1245q8 63 51 101.5t106 38.5h764l-16 -125h-756l-80 -555h678l-16 -125h-678l-86 -594h762l-17 -125h-770q-63 0 -95 38t-21 101zM449 1659l276 254q41 37 92 37q41 0 78 -37l207 -254h-180l-117 174l-160 -174h-196z" />
<glyph unicode="&#xcb;" horiz-adv-x="1189" d="M115 139l174 1245q8 63 51 101.5t106 38.5h764l-16 -125h-756l-80 -555h678l-16 -125h-678l-86 -594h762l-17 -125h-770q-63 0 -95 38t-21 101zM489 1759q0 63 31 99t82 36q84 0 84 -90q0 -61 -32.5 -96t-80.5 -35q-84 0 -84 86zM920 1759q0 63 30.5 99t81.5 36 q84 0 84 -90q0 -61 -32.5 -96t-79.5 -35q-84 0 -84 86z" />
<glyph unicode="&#xcc;" horiz-adv-x="471" d="M92 0l215 1524h144l-215 -1524h-144zM166 1913h190l133 -164q20 -23 21 -51q0 -23 -15.5 -41.5t-45.5 -18.5q-23 0 -52 25z" />
<glyph unicode="&#xcd;" horiz-adv-x="471" d="M92 0l215 1524h144l-215 -1524h-144zM264 1696q0 29 33 59l166 158h215l-297 -254q-31 -25 -57 -25q-29 0 -44.5 18.5t-15.5 43.5z" />
<glyph unicode="&#xce;" horiz-adv-x="471" d="M59 1659l277 254q41 37 92 37q41 0 78 -37l207 -254h-181l-116 174l-160 -174h-197zM92 0l215 1524h144l-215 -1524h-144z" />
<glyph unicode="&#xcf;" horiz-adv-x="471" d="M92 0l215 1524h144l-215 -1524h-144zM96 1757q0 61 31 98t82 37q84 0 84 -90q0 -61 -33 -96t-80 -35q-84 0 -84 86zM526 1757q0 61 31 98t82 37q84 0 84 -90q0 -61 -33 -96t-80 -35q-84 0 -84 86z" />
<glyph unicode="&#xd0;" horiz-adv-x="1402" d="M70 717l16 127h152l75 540q10 63 52.5 101.5t105.5 38.5h332q244 0 386 -145.5t142 -426.5q0 -416 -202.5 -684t-536.5 -268h-336q-59 0 -92 39t-25 100l80 578h-149zM279 125h325q264 0 422 231.5t158 591.5q0 227 -104.5 339t-291.5 112h-323l-82 -555h428l-16 -127 h-430z" />
<glyph unicode="&#xd1;" horiz-adv-x="1372" d="M92 0l199 1432q14 106 119 106q66 0 94 -65l524 -1258l186 1309h138l-201 -1428q-16 -106 -117 -106q-66 0 -94 65l-526 1254l-185 -1309h-137zM483 1724q49 106 119 157.5t137 51.5q86 0 150 -57l72 -66q39 -35 73 -34q80 0 150 139l96 -62q-49 -106 -118.5 -157 t-137.5 -51q-89 0 -152 61l-67 63q-35 35 -76 35q-80 0 -149 -141z" />
<glyph unicode="&#xd2;" horiz-adv-x="1486" d="M143 610q0 414 214.5 668t523.5 254q244 0 389 -163t145 -458q0 -399 -213 -663t-528 -264q-244 0 -387.5 164.5t-143.5 461.5zM289 608q0 -246 106.5 -374t298.5 -128q164 0 295 109t204 292t73 402q0 244 -107 369t-297 125q-244 0 -408.5 -221t-164.5 -574zM655 1913 h191l133 -164q20 -23 20 -51q0 -23 -15 -41.5t-46 -18.5q-22 0 -51 25z" />
<glyph unicode="&#xd3;" horiz-adv-x="1486" d="M143 610q0 414 214.5 668t523.5 254q244 0 389 -163t145 -458q0 -399 -213 -663t-528 -264q-244 0 -387.5 164.5t-143.5 461.5zM289 608q0 -246 106.5 -374t298.5 -128q164 0 295 109t204 292t73 402q0 244 -107 369t-297 125q-244 0 -408.5 -221t-164.5 -574zM778 1696 q0 29 33 59l166 158h215l-297 -254q-31 -25 -57.5 -25t-43 18.5t-16.5 43.5z" />
<glyph unicode="&#xd4;" horiz-adv-x="1486" d="M143 610q0 414 214.5 668t523.5 254q244 0 389 -163t145 -458q0 -399 -213 -663t-528 -264q-244 0 -387.5 164.5t-143.5 461.5zM289 608q0 -246 106.5 -374t298.5 -128q164 0 295 109t204 292t73 402q0 244 -107 369t-297 125q-244 0 -408.5 -221t-164.5 -574zM563 1659 l277 254q41 37 92 37q41 0 78 -37l207 -254h-181l-116 174l-160 -174h-197z" />
<glyph unicode="&#xd5;" horiz-adv-x="1486" d="M143 610q0 414 214.5 668t523.5 254q244 0 389 -163t145 -458q0 -399 -213 -663t-528 -264q-244 0 -387.5 164.5t-143.5 461.5zM289 608q0 -246 106.5 -374t298.5 -128q164 0 295 109t204 292t73 402q0 244 -107 369t-297 125q-244 0 -408.5 -221t-164.5 -574zM528 1718 q49 106 119 157.5t137 51.5q86 0 150 -57l72 -66q39 -35 73 -35q80 0 150 140l96 -62q-49 -106 -118.5 -157.5t-137.5 -51.5q-88 1 -151 62l-68 63q-35 35 -76 35q-80 0 -149 -141z" />
<glyph unicode="&#xd6;" horiz-adv-x="1486" d="M143 610q0 414 214.5 668t523.5 254q244 0 389 -163t145 -458q0 -399 -213 -663t-528 -264q-244 0 -387.5 164.5t-143.5 461.5zM289 608q0 -246 106.5 -374t298.5 -128q164 0 295 109t204 292t73 402q0 244 -107 369t-297 125q-244 0 -408.5 -221t-164.5 -574zM606 1755 q0 63 31 99t82 36q84 0 84 -90q0 -61 -33 -96t-80 -35q-84 0 -84 86zM1036 1755q0 63 31 99t82 36q84 0 84 -90q0 -61 -33 -96t-80 -35q-84 0 -84 86z" />
<glyph unicode="&#xd7;" d="M156 268l327 330l-327 330l100 98l328 -328l327 328l101 -98l-328 -330l328 -330l-101 -98l-327 328l-328 -328z" />
<glyph unicode="&#xd8;" horiz-adv-x="1486" d="M143 610q0 414 214.5 668t523.5 254q150 0 272 -68l94 158h119l-131 -219q180 -168 180 -492q0 -399 -213 -663t-528 -264q-145 0 -252 57l-88 -147h-121l123 204q-193 164 -193 512zM289 608q0 -260 119 -389l673 1127q-88 57 -219 57q-244 0 -408.5 -221t-164.5 -574z M489 154q82 -47 205 -48q164 0 295 109t204 292t73 402q0 244 -107 369z" />
<glyph unicode="&#xd9;" horiz-adv-x="1386" d="M174 541l137 983h142l-138 -983q-59 -438 334 -439q387 0 447 439l137 983h143l-137 -983q-39 -268 -194.5 -419t-407.5 -151q-258 0 -379 150.5t-84 419.5zM598 1915h190l134 -164q20 -23 20 -51q0 -23 -15.5 -41.5t-45.5 -18.5q-23 0 -52 25z" />
<glyph unicode="&#xda;" horiz-adv-x="1386" d="M174 541l137 983h142l-138 -983q-59 -438 334 -439q387 0 447 439l137 983h143l-137 -983q-39 -268 -194.5 -419t-407.5 -151q-258 0 -379 150.5t-84 419.5zM737 1698q0 29 33 59l166 158h215l-297 -254q-31 -25 -57.5 -25t-43 18.5t-16.5 43.5z" />
<glyph unicode="&#xdb;" horiz-adv-x="1386" d="M174 541l137 983h142l-138 -983q-59 -438 334 -439q387 0 447 439l137 983h143l-137 -983q-39 -268 -194.5 -419t-407.5 -151q-258 0 -379 150.5t-84 419.5zM539 1659l276 254q41 37 92 37q41 0 78 -37l207 -254h-180l-117 174l-160 -174h-196z" />
<glyph unicode="&#xdc;" horiz-adv-x="1386" d="M174 541l137 983h142l-138 -983q-59 -438 334 -439q387 0 447 439l137 983h143l-137 -983q-39 -268 -194.5 -419t-407.5 -151q-258 0 -379 150.5t-84 419.5zM573 1753q0 61 31 98t82 37q84 0 84 -90q0 -61 -32.5 -96t-80.5 -35q-84 0 -84 86zM1004 1753q0 61 30.5 98 t81.5 37q84 0 84 -90q0 -61 -32.5 -96t-80.5 -35q-84 0 -83 86z" />
<glyph unicode="&#xdd;" horiz-adv-x="1245" d="M195 1524h161l310 -721l493 721h168l-608 -862l-94 -662h-148l94 657zM668 1698q0 29 32 59l166 158h215l-297 -254q-31 -25 -57.5 -25t-42.5 18.5t-16 43.5z" />
<glyph unicode="&#xde;" horiz-adv-x="1153" d="M92 0l215 1524h144l-37 -267h358q166 0 262 -106.5t96 -282.5q0 -229 -141 -379.5t-348 -150.5h-356l-49 -338h-144zM301 461h356q150 0 245 115.5t95 285.5q0 125 -64.5 200t-180.5 75h-357z" />
<glyph unicode="&#xdf;" horiz-adv-x="1097" d="M82 0l162 1174q29 209 141.5 305t271.5 96q156 0 247 -89t91 -231q0 -172 -108 -299l-133 -161l120 -136q105 -114 105 -253q0 -180 -121 -293t-305 -113h-166l16 121h160q133 0 206 76.5t73 201.5q0 94 -70 174l-104 119q-39 41 -39 88q0 45 43 101l104 131 q82 104 82 239q0 92 -54 146.5t-159 54.5q-225 0 -264 -278l-162 -1174h-137z" />
<glyph unicode="&#xe0;" horiz-adv-x="1148" d="M92 457q0 262 150.5 450.5t400.5 188.5q119 0 270 -37l15 104h139l-152 -1013l115 -68l-61 -111l-86 47q-55 31 -140 17l-79 -17q-113 -20 -177 -20q-197 0 -296 120t-99 339zM236 457q0 -152 64.5 -243t201.5 -91q100 0 200 22l78 17l115 774q-145 33 -260 33 q-186 0 -292.5 -150.5t-106.5 -361.5zM494 1563h190l133 -164q20 -23 21 -51q0 -23 -15.5 -41.5t-46.5 -18.5q-22 0 -51 25z" />
<glyph unicode="&#xe1;" horiz-adv-x="1148" d="M92 457q0 262 150.5 450.5t400.5 188.5q119 0 270 -37l15 104h139l-152 -1013l115 -68l-61 -111l-86 47q-55 31 -140 17l-79 -17q-113 -20 -177 -20q-197 0 -296 120t-99 339zM236 457q0 -152 64.5 -243t201.5 -91q100 0 200 22l78 17l115 774q-145 33 -260 33 q-186 0 -292.5 -150.5t-106.5 -361.5zM614 1346q0 29 33 59l166 158h215l-297 -254q-31 -25 -57.5 -25t-43 18.5t-16.5 43.5z" />
<glyph unicode="&#xe2;" horiz-adv-x="1148" d="M92 457q0 262 150.5 450.5t400.5 188.5q119 0 270 -37l15 104h139l-152 -1013l115 -68l-61 -111l-86 47q-55 31 -140 17l-79 -17q-113 -20 -177 -20q-197 0 -296 120t-99 339zM236 457q0 -152 64.5 -243t201.5 -91q100 0 200 22l78 17l115 774q-145 33 -260 33 q-186 0 -292.5 -150.5t-106.5 -361.5zM385 1274l277 254q41 37 92 37q41 0 77 -37l207 -254h-180l-117 174l-159 -174h-197z" />
<glyph unicode="&#xe3;" horiz-adv-x="1148" d="M92 457q0 262 150.5 450.5t400.5 188.5q119 0 270 -37l15 104h139l-152 -1013l115 -68l-61 -111l-86 47q-55 31 -140 17l-79 -17q-113 -20 -177 -20q-197 0 -296 120t-99 339zM236 457q0 -152 64.5 -243t201.5 -91q100 0 200 22l78 17l115 774q-145 33 -260 33 q-186 0 -292.5 -150.5t-106.5 -361.5zM311 1356q49 106 119 157.5t137 51.5q86 0 150 -58l71 -65q39 -35 74 -35q80 0 150 139l96 -61q-49 -106 -118.5 -157.5t-137.5 -51.5q-89 0 -152 61l-67 64q-35 35 -76 35q-80 0 -149 -142z" />
<glyph unicode="&#xe4;" horiz-adv-x="1148" d="M92 457q0 262 150.5 450.5t400.5 188.5q119 0 270 -37l15 104h139l-152 -1013l115 -68l-61 -111l-86 47q-55 31 -140 17l-79 -17q-113 -20 -177 -20q-197 0 -296 120t-99 339zM236 457q0 -152 64.5 -243t201.5 -91q100 0 200 22l78 17l115 774q-145 33 -260 33 q-186 0 -292.5 -150.5t-106.5 -361.5zM432 1436q0 63 31 99t82 36q84 0 84 -90q0 -61 -33 -96t-80 -35q-84 0 -84 86zM862 1436q0 63 31 99t82 36q84 0 84 -90q0 -61 -33 -96t-80 -35q-84 0 -84 86z" />
<glyph unicode="&#xe5;" horiz-adv-x="1148" d="M92 457q0 262 150.5 450.5t400.5 188.5q119 0 270 -37l15 104h139l-152 -1013l115 -68l-61 -111l-86 47q-55 31 -140 17l-79 -17q-113 -20 -177 -20q-197 0 -296 120t-99 339zM236 457q0 -152 64.5 -243t201.5 -91q100 0 200 22l78 17l115 774q-145 33 -260 33 q-186 0 -292.5 -150.5t-106.5 -361.5zM522 1397q0 104 67.5 169.5t166.5 65.5q80 0 132 -48t52 -134q0 -100 -71.5 -166.5t-163.5 -66.5q-80 0 -131.5 48t-51.5 132zM616 1401q0 -104 97 -105q53 0 93 43t40 107q0 47 -26.5 75.5t-71.5 28.5q-57 0 -94.5 -44t-37.5 -105z " />
<glyph unicode="&#xe6;" horiz-adv-x="1859" d="M88 279q0 100 38 171.5t105.5 109.5t143.5 55.5t166 17.5h303l20 119q20 123 -34 183t-160.5 60t-317.5 -57l-119 -33l-22 123l113 33q229 66 362 65q248 0 301 -196q72 98 175.5 149t209.5 51q213 0 319.5 -144t63.5 -415q-10 -70 -69 -69h-725q-14 -176 62.5 -278.5 t211.5 -102.5q150 0 330 61l106 37l29 -127l-109 -35q-221 -69 -368 -69q-59 0 -129 19.5t-111 49.5q-39 29 -137 9l-201 -41q-174 -35 -252 -35q-145 0 -225 82t-80 207zM231 281q0 -74 46.5 -118t132.5 -44t206 24l258 52q-33 57 -45 137t-10 131l4 51h-303 q-289 0 -289 -233zM977 616h647q23 168 -42.5 281t-223.5 113q-139 0 -242.5 -111t-138.5 -283z" />
<glyph unicode="&#xe7;" horiz-adv-x="1030" d="M102 455q0 283 154 476t399 193q106 0 279 -57l65 -23l-41 -129l-73 25q-156 53 -246 53q-184 0 -287.5 -158.5t-103.5 -379.5q0 -150 72.5 -243t201.5 -93q109 0 275 47l86 27l22 -125l-90 -27q-182 -53 -307 -53q-195 0 -300.5 129t-105.5 338zM307 -362l31 88 q76 -33 145 -33q102 0 103 71q0 39 -42 48.5t-132 9.5l-9 14l103 164h86l-64 -104q166 -1 166 -132q0 -80 -60.5 -123.5t-152.5 -43.5q-82 0 -174 41z" />
<glyph unicode="&#xe8;" horiz-adv-x="1148" d="M102 446q0 293 162 488.5t393 195.5q215 0 322.5 -144t64.5 -415q-10 -70 -69 -69h-725q-14 -174 66.5 -277.5t211.5 -103.5q150 0 330 61l107 37l28 -127l-108 -35q-221 -70 -369 -69q-188 0 -301 126t-113 332zM266 616h639q31 168 -32.5 281t-225.5 113 q-139 0 -242.5 -111t-138.5 -283zM489 1563h191l133 -164q20 -23 21 -51q0 -23 -15.5 -41.5t-46.5 -18.5q-22 0 -51 25z" />
<glyph unicode="&#xe9;" horiz-adv-x="1148" d="M102 446q0 293 162 488.5t393 195.5q215 0 322.5 -144t64.5 -415q-10 -70 -69 -69h-725q-14 -174 66.5 -277.5t211.5 -103.5q150 0 330 61l107 37l28 -127l-108 -35q-221 -70 -369 -69q-188 0 -301 126t-113 332zM266 616h639q31 168 -32.5 281t-225.5 113 q-139 0 -242.5 -111t-138.5 -283zM594 1346q0 29 33 59l166 158h215l-297 -254q-31 -25 -57.5 -25t-43 18.5t-16.5 43.5z" />
<glyph unicode="&#xea;" horiz-adv-x="1148" d="M102 446q0 293 162 488.5t393 195.5q215 0 322.5 -144t64.5 -415q-10 -70 -69 -69h-725q-14 -174 66.5 -277.5t211.5 -103.5q150 0 330 61l107 37l28 -127l-108 -35q-221 -70 -369 -69q-188 0 -301 126t-113 332zM266 616h639q31 168 -32.5 281t-225.5 113 q-139 0 -242.5 -111t-138.5 -283zM356 1274l277 254q41 37 92 37q41 0 78 -37l207 -254h-181l-116 174l-160 -174h-197z" />
<glyph unicode="&#xeb;" horiz-adv-x="1148" d="M102 446q0 293 162 488.5t393 195.5q215 0 322.5 -144t64.5 -415q-10 -70 -69 -69h-725q-14 -174 66.5 -277.5t211.5 -103.5q150 0 330 61l107 37l28 -127l-108 -35q-221 -70 -369 -69q-188 0 -301 126t-113 332zM266 616h639q31 168 -32.5 281t-225.5 113 q-139 0 -242.5 -111t-138.5 -283zM406 1436q0 63 30.5 99t81.5 36q84 0 84 -90q0 -61 -32.5 -96t-80.5 -35q-84 0 -83 86zM836 1436q0 63 30.5 99t81.5 36q84 0 84 -90q0 -61 -32.5 -96t-79.5 -35q-84 0 -84 86z" />
<glyph unicode="&#xec;" horiz-adv-x="475" d="M92 0l156 1114h141l-156 -1114h-141zM121 1563h190l133 -164q20 -23 21 -51q0 -23 -15.5 -41.5t-46.5 -18.5q-22 0 -51 25z" />
<glyph unicode="&#xed;" horiz-adv-x="475" d="M92 0l156 1114h141l-156 -1114h-141zM211 1346q0 29 33 59l166 158h215l-297 -254q-31 -25 -57.5 -25t-43 18.5t-16.5 43.5z" />
<glyph unicode="&#xee;" horiz-adv-x="475" d="M6 1274l277 254q41 37 92 37q41 0 78 -37l206 -254h-180l-117 174l-159 -174h-197zM92 0l156 1114h141l-156 -1114h-141z" />
<glyph unicode="&#xef;" horiz-adv-x="475" d="M43 1436q0 63 31 99t82 36q84 0 84 -90q0 -61 -33 -96t-80 -35q-84 0 -84 86zM92 0l156 1114h141l-156 -1114h-141zM473 1436q0 63 31 99t82 36q84 0 84 -90q0 -61 -33 -96t-80 -35q-84 0 -84 86z" />
<glyph unicode="&#xf0;" horiz-adv-x="1228" d="M133 434q0 254 143.5 437.5t403.5 183.5q112 0 311 -68l15 96q23 143 -11 226l-305 -174l19 139l227 123q-59 45 -188 45h-125l16 121h125q207 0 295 -95l182 109l-20 -139l-105 -60q49 -127 25 -303l-82 -569q-33 -236 -169 -377t-358 -141q-193 0 -296 122.5 t-103 323.5zM272 432q0 -147 70 -232t205 -85q162 0 256 105.5t121 293.5l51 352q-201 54 -305 58q-201 0 -299.5 -138.5t-98.5 -353.5z" />
<glyph unicode="&#xf1;" horiz-adv-x="1130" d="M92 0l129 930q18 115 129 143q186 49 328 49q195 0 271.5 -109.5t51.5 -289.5l-102 -723h-137l98 709q20 139 -27 211.5t-186 72.5q-115 0 -287 -45l-133 -948h-135zM285 1356q49 106 118.5 157.5t137.5 51.5q86 0 149 -58l72 -65q39 -35 74 -35q80 0 149 139l96 -61 q-49 -106 -118.5 -157.5t-137.5 -51.5q-88 0 -151 61l-68 64q-35 35 -76 35q-80 0 -149 -142z" />
<glyph unicode="&#xf2;" horiz-adv-x="1165" d="M98 459q0 289 158.5 478t400.5 189q193 0 301.5 -126t108.5 -343q0 -279 -157.5 -474t-403.5 -195q-190 0 -299 127t-109 344zM244 461q0 -160 71.5 -255t208.5 -95q178 0 289 164.5t111 379.5q0 160 -72 253t-211 93q-174 0 -285.5 -160.5t-111.5 -379.5zM496 1563h190 l133 -164q20 -23 21 -51q0 -23 -15.5 -41.5t-46.5 -18.5q-22 0 -51 25z" />
<glyph unicode="&#xf3;" horiz-adv-x="1165" d="M98 459q0 289 158.5 478t400.5 189q193 0 301.5 -126t108.5 -343q0 -279 -157.5 -474t-403.5 -195q-190 0 -299 127t-109 344zM244 461q0 -160 71.5 -255t208.5 -95q178 0 289 164.5t111 379.5q0 160 -72 253t-211 93q-174 0 -285.5 -160.5t-111.5 -379.5zM575 1346 q0 29 33 59l166 158h215l-297 -254q-31 -25 -57 -25q-29 0 -44.5 18.5t-15.5 43.5z" />
<glyph unicode="&#xf4;" horiz-adv-x="1165" d="M98 459q0 289 158.5 478t400.5 189q193 0 301.5 -126t108.5 -343q0 -279 -157.5 -474t-403.5 -195q-190 0 -299 127t-109 344zM244 461q0 -160 71.5 -255t208.5 -95q178 0 289 164.5t111 379.5q0 160 -72 253t-211 93q-174 0 -285.5 -160.5t-111.5 -379.5zM348 1274 l277 254q41 37 92 37q41 0 78 -37l206 -254h-180l-116 174l-160 -174h-197z" />
<glyph unicode="&#xf5;" horiz-adv-x="1165" d="M98 459q0 289 158.5 478t400.5 189q193 0 301.5 -126t108.5 -343q0 -279 -157.5 -474t-403.5 -195q-190 0 -299 127t-109 344zM244 461q0 -160 71.5 -255t208.5 -95q178 0 289 164.5t111 379.5q0 160 -72 253t-211 93q-174 0 -285.5 -160.5t-111.5 -379.5zM297 1356 q49 106 118.5 157.5t137.5 51.5q86 0 149 -58l72 -65q39 -35 74 -35q80 0 149 139l97 -61q-49 -106 -119 -157.5t-137 -51.5q-89 0 -152 61l-68 64q-35 35 -75 35q-80 0 -150 -142z" />
<glyph unicode="&#xf6;" horiz-adv-x="1165" d="M98 459q0 289 158.5 478t400.5 189q193 0 301.5 -126t108.5 -343q0 -279 -157.5 -474t-403.5 -195q-190 0 -299 127t-109 344zM244 461q0 -160 71.5 -255t208.5 -95q178 0 289 164.5t111 379.5q0 160 -72 253t-211 93q-174 0 -285.5 -160.5t-111.5 -379.5zM410 1436 q0 63 30.5 99t81.5 36q84 0 84 -90q0 -61 -32.5 -96t-79.5 -35q-84 0 -84 86zM840 1436q0 63 30.5 99t81.5 36q84 0 84 -90q0 -61 -32.5 -96t-79.5 -35q-84 0 -84 86z" />
<glyph unicode="&#xf7;" d="M123 532v138h921v-138h-921zM481 182q0 47 27 79t74 32q45 0 71.5 -32t26.5 -79t-26.5 -78.5t-71.5 -31.5q-47 0 -74 31.5t-27 78.5zM481 1022q0 47 27 79t74 32q45 0 71.5 -32t26.5 -79t-26.5 -79t-71.5 -32q-47 0 -74 32t-27 79z" />
<glyph unicode="&#xf8;" horiz-adv-x="1165" d="M98 459q0 289 158.5 478t400.5 189q113 0 195 -43l76 125h112l-108 -182q135 -123 135 -369q0 -279 -157.5 -474t-403.5 -195q-96 0 -172 30l-74 -124h-115l105 178q-152 123 -152 387zM244 461q0 -178 80 -266l460 772q-59 34 -143 34q-174 0 -285.5 -160.5 t-111.5 -379.5zM403 135q51 -25 121 -24q178 0 289 164.5t111 379.5q0 156 -68 244z" />
<glyph unicode="&#xf9;" horiz-adv-x="1130" d="M129 391l102 723h138l-99 -708q-20 -139 27 -212t186 -73q115 0 287 45l133 948h135l-129 -930q-18 -115 -129 -143q-186 -49 -327 -49q-195 0 -272 109.5t-52 289.5zM436 1563h191l133 -164q20 -23 20 -51q0 -23 -15 -41.5t-46 -18.5q-22 0 -51 25z" />
<glyph unicode="&#xfa;" horiz-adv-x="1130" d="M129 391l102 723h138l-99 -708q-20 -139 27 -212t186 -73q115 0 287 45l133 948h135l-129 -930q-18 -115 -129 -143q-186 -49 -327 -49q-195 0 -272 109.5t-52 289.5zM553 1346q0 29 33 59l166 158h215l-297 -254q-31 -25 -57.5 -25t-43 18.5t-16.5 43.5z" />
<glyph unicode="&#xfb;" horiz-adv-x="1130" d="M129 391l102 723h138l-99 -708q-20 -139 27 -212t186 -73q115 0 287 45l133 948h135l-129 -930q-18 -115 -129 -143q-186 -49 -327 -49q-195 0 -272 109.5t-52 289.5zM340 1274l276 254q42 37 93 37q41 0 77 -37l207 -254h-180l-117 174l-159 -174h-197z" />
<glyph unicode="&#xfc;" horiz-adv-x="1130" d="M129 391l102 723h138l-99 -708q-20 -139 27 -212t186 -73q115 0 287 45l133 948h135l-129 -930q-18 -115 -129 -143q-186 -49 -327 -49q-195 0 -272 109.5t-52 289.5zM375 1436q0 63 30.5 99t81.5 36q84 0 84 -90q0 -61 -32.5 -96t-79.5 -35q-84 0 -84 86zM805 1436 q0 63 31 99t82 36q84 0 83 -90q0 -61 -32.5 -96t-79.5 -35q-84 0 -84 86z" />
<glyph unicode="&#xfd;" horiz-adv-x="1069" d="M0 -346l31 125q88 -27 141 -27q66 0 105.5 32t70.5 103l29 64l-252 1163h158l192 -979l418 979h156l-576 -1276q-96 -213 -305 -213q-74 0 -168 29zM526 1346q0 29 33 59l166 158h215l-297 -254q-31 -25 -57 -25q-29 0 -44.5 18.5t-15.5 43.5z" />
<glyph unicode="&#xfe;" horiz-adv-x="1163" d="M31 -369l276 1932h133l-65 -480q174 39 284 39q199 0 300.5 -125t101.5 -338q0 -174 -62.5 -323.5t-193.5 -247.5t-303 -98q-152 0 -281 35l-55 -394h-135zM242 147q139 -31 268 -30q135 0 230.5 82t137.5 201.5t42 258.5q0 152 -70 241t-221 89q-126 1 -271 -24z" />
<glyph unicode="&#xff;" horiz-adv-x="1069" d="M0 -346l31 125q88 -27 141 -27q66 0 105.5 32t70.5 103l29 64l-252 1163h158l192 -979l418 979h156l-576 -1276q-96 -213 -305 -213q-74 0 -168 29zM324 1436q0 63 30.5 99t81.5 36q84 0 84 -90q0 -61 -32.5 -96t-79.5 -35q-84 0 -84 86zM754 1436q0 63 30.5 99t81.5 36 q84 0 84 -90q0 -61 -32.5 -96t-79.5 -35q-84 0 -84 86z" />
<glyph unicode="&#x152;" horiz-adv-x="2078" d="M143 621q0 395 213 649t518 254h1225l-18 -125h-756l-80 -555h678l-16 -125h-678l-86 -594h762l-17 -125h-1237q-233 0 -370.5 172t-137.5 449zM291 623q0 -225 104.5 -361.5t298.5 -136.5h307l181 1276h-320q-248 0 -409.5 -224.5t-161.5 -553.5z" />
<glyph unicode="&#x153;" horiz-adv-x="1955" d="M98 459q0 289 159 478t400 189q139 0 233.5 -68.5t135.5 -193.5q76 125 189.5 195.5t248.5 70.5q215 0 322.5 -144t64.5 -415q-10 -70 -69 -69h-725q-14 -174 66.5 -277.5t211.5 -103.5q150 0 330 61l107 37l28 -127l-108 -35q-221 -70 -369 -69q-137 0 -233.5 69.5 t-139.5 192.5q-160 -262 -444 -262q-190 0 -299 127t-109 344zM244 461q0 -160 71.5 -255t208.5 -95q178 0 289 164.5t111 379.5q0 160 -72 253t-211 93q-174 0 -285.5 -160.5t-111.5 -379.5zM1073 616h639q31 168 -32.5 281t-225.5 113q-139 0 -242.5 -111t-138.5 -283z " />
<glyph unicode="&#x178;" horiz-adv-x="1245" d="M195 1524h161l310 -721l493 721h168l-608 -862l-94 -662h-148l94 657zM479 1757q0 61 31 98t82 37q84 0 84 -90q0 -61 -33 -96t-80 -35q-84 0 -84 86zM909 1757q0 61 31 98t82 37q84 0 84 -90q0 -61 -33 -96t-80 -35q-84 0 -84 86z" />
<glyph unicode="&#x2c6;" horiz-adv-x="1062" d="M332 1274l276 254q41 37 92 37q41 0 78 -37l207 -254h-180l-117 174l-160 -174h-196z" />
<glyph unicode="&#x2dc;" horiz-adv-x="1056" d="M256 1356q49 106 118.5 157.5t137.5 51.5q86 0 150 -58l71 -65q39 -35 74 -35q80 0 149 139l97 -61q-49 -106 -119 -157.5t-137 -51.5q-89 0 -152 61l-67 64q-35 35 -76 35q-80 0 -150 -142z" />
<glyph unicode="&#x2000;" horiz-adv-x="976" />
<glyph unicode="&#x2001;" horiz-adv-x="1952" />
<glyph unicode="&#x2002;" horiz-adv-x="976" />
<glyph unicode="&#x2003;" horiz-adv-x="1952" />
<glyph unicode="&#x2004;" horiz-adv-x="650" />
<glyph unicode="&#x2005;" horiz-adv-x="488" />
<glyph unicode="&#x2006;" horiz-adv-x="325" />
<glyph unicode="&#x2007;" horiz-adv-x="325" />
<glyph unicode="&#x2008;" horiz-adv-x="244" />
<glyph unicode="&#x2009;" horiz-adv-x="390" />
<glyph unicode="&#x200a;" horiz-adv-x="108" />
<glyph unicode="&#x2010;" horiz-adv-x="761" d="M139 600l19 139h544l-18 -139h-545z" />
<glyph unicode="&#x2011;" horiz-adv-x="761" d="M139 600l19 139h544l-18 -139h-545z" />
<glyph unicode="&#x2012;" horiz-adv-x="761" d="M139 600l19 139h544l-18 -139h-545z" />
<glyph unicode="&#x2013;" horiz-adv-x="1087" d="M139 600l19 137h876l-18 -137h-877z" />
<glyph unicode="&#x2014;" horiz-adv-x="1843" d="M135 600l19 135h1640l-18 -135h-1641z" />
<glyph unicode="&#x2018;" horiz-adv-x="446" d="M184 1161l129 342q20 59 84 60q37 0 52.5 -28t5.5 -67l-113 -307h-158z" />
<glyph unicode="&#x2019;" horiz-adv-x="446" d="M193 1255l112 308h158l-129 -342q-20 -59 -84 -60q-37 0 -52.5 28t-4.5 66z" />
<glyph unicode="&#x201a;" horiz-adv-x="442" d="M14 -94l113 307h158l-129 -342q-20 -59 -84 -59q-37 0 -52.5 27.5t-5.5 66.5z" />
<glyph unicode="&#x201c;" horiz-adv-x="774" d="M180 1161l129 342q20 59 84 60q37 0 52.5 -28t5.5 -67l-113 -307h-158zM547 1161l129 342q20 59 84 60q37 0 52 -28t5 -67l-112 -307h-158z" />
<glyph unicode="&#x201d;" horiz-adv-x="774" d="M193 1255l112 308h158l-129 -342q-20 -59 -84 -60q-37 0 -52.5 28t-4.5 66zM559 1255l113 308h157l-129 -342q-20 -59 -84 -60q-37 0 -52 28t-5 66z" />
<glyph unicode="&#x201e;" horiz-adv-x="772" d="M14 -94l113 307h158l-129 -342q-20 -59 -84 -59q-37 0 -52.5 27.5t-5.5 66.5zM381 -94l113 307h157l-129 -342q-20 -59 -84 -59q-37 0 -52 27.5t-5 66.5z" />
<glyph unicode="&#x2022;" horiz-adv-x="813" d="M221 684q0 119 59.5 184.5t165.5 65.5q109 0 168.5 -65.5t59.5 -184.5t-59.5 -184.5t-168.5 -65.5q-106 0 -165.5 65.5t-59.5 184.5z" />
<glyph unicode="&#x2026;" horiz-adv-x="1148" d="M72 72q0 63 30.5 99t81.5 36q84 0 84 -90q0 -61 -32.5 -96t-79.5 -35q-84 0 -84 86zM455 72q0 63 30.5 99t81.5 36q84 0 84 -90q0 -61 -32.5 -96t-79.5 -35q-84 0 -84 86zM838 72q0 63 30.5 99t81.5 36q84 0 84 -90q0 -61 -32.5 -96t-79.5 -35q-84 0 -84 86z" />
<glyph unicode="&#x202f;" horiz-adv-x="390" />
<glyph unicode="&#x2039;" horiz-adv-x="696" d="M98 561q0 55 56 111l305 289h190l-409 -392l340 -379h-183l-264 289q-35 35 -35 82z" />
<glyph unicode="&#x203a;" horiz-adv-x="692" d="M72 190l409 392l-340 379h183l264 -289q35 -35 35 -82q0 -55 -56 -111l-305 -289h-190z" />
<glyph unicode="&#x205f;" horiz-adv-x="488" />
<glyph unicode="&#x20ac;" d="M84 561l18 125h142l22 160h-141l16 123h142q41 289 180 431t356 142q111 0 279 -51l78 -25l-31 -133l-78 25q-154 47 -248 47q-166 0 -263 -101.5t-128 -334.5h463l-17 -123h-462l-23 -160h463l-18 -125h-463q-61 -438 268 -438q86 0 260 49l86 25l23 -131l-86 -25 q-203 -57 -293 -57q-219 0 -331 149.5t-73 427.5h-141z" />
<glyph unicode="&#x2122;" horiz-adv-x="1751" d="M213 1415v109h600v-109h-240v-731h-122v731h-238zM950 684v774q0 35 22.5 55.5t57.5 20.5q72 0 90 -61l191 -627l194 622q14 59 88 60q80 0 80 -70v-774h-108v625l-189 -580q-14 -45 -65 -45q-53 0 -68 45l-186 574v-619h-107z" />
<glyph unicode="&#x25fc;" horiz-adv-x="1116" d="M0 0v1116h1116v-1116h-1116z" />
</font>
</defs>
</svg>
