<?xml version="1.0" standalone="no"?>
<!DOCTYPE svg PUBLIC "-//W3C//DTD SVG 1.1//EN" "http://www.w3.org/Graphics/SVG/1.1/DTD/svg11.dtd" >
<svg xmlns="http://www.w3.org/2000/svg">
<metadata></metadata>
<defs>
<font id="newjuneserifultrabolditalic" horiz-adv-x="1290" >
<font-face units-per-em="2048" ascent="1597" descent="-451" />
<missing-glyph horiz-adv-x="450" />
<glyph unicode="&#xfb01;" horiz-adv-x="1716" d="M-143 -410l22 129q106 0 171 50.5t83 136.5q12 58 13.5 118.5t-2 106.5t-0.5 122.5t18 160.5l102 565h-184l20 123h187l16 88q20 112 68 192t136.5 138t225 86t326.5 28q188 0 359.5 -20.5t249.5 -41.5l77 -20l-178 -432q-35 64 -93 124t-134.5 109t-174.5 79t-200 30 q-42 0 -80.5 -7.5t-75 -24t-58.5 -50t-22 -80.5q0 -25 12.5 -83t6.5 -115h903l-170 -844l139 47l33 -121l-555 -211q-2 1 -6 4t-15 14.5t-20 26.5t-18.5 42t-13.5 59t-2.5 79t11.5 101l129 680h-432l-168 -954q-37 -209 -221.5 -322t-484.5 -113z" />
<glyph unicode="&#xfb02;" horiz-adv-x="1687" d="M-143 -410l22 129q106 0 171 50.5t83 136.5q12 58 13.5 118.5t-2 106.5t-0.5 122.5t18 160.5l102 565h-184l20 123h187l16 88q16 90 46.5 157.5t85.5 123t135.5 90.5t196 54t267.5 19q264 0 486 -63l209 49l-252 -1362l139 47l33 -121l-570 -211q-2 1 -6 4t-14.5 14.5 t-19.5 26.5t-18 42t-13.5 59t-3 79t11.5 101l201 1106q-137 57 -271 57q-56 0 -103 -16.5t-79.5 -56.5t-32.5 -97q0 -23 11.5 -78.5t5.5 -111.5h260l-21 -123h-256l-168 -954q-37 -209 -221.5 -322t-484.5 -113z" />
<glyph horiz-adv-x="0" />
<glyph horiz-adv-x="682" />
<glyph unicode=" "  horiz-adv-x="450" />
<glyph unicode="&#x09;" horiz-adv-x="450" />
<glyph unicode="&#xa0;" horiz-adv-x="450" />
<glyph unicode="!" horiz-adv-x="591" d="M-31 150q0 111 82.5 175t216.5 64q103 0 160 -44t57 -124q0 -116 -84.5 -180t-207.5 -64q-107 0 -165.5 44.5t-58.5 128.5zM190 1260q-4 135 73.5 209.5t197.5 74.5q116 0 176 -80t16 -204l-303 -781h-133z" />
<glyph unicode="&#x22;" horiz-adv-x="1030" d="M176 1339q-38 116 24.5 198.5t178.5 82.5q115 0 179 -80.5t24 -200.5l-136 -389h-133zM651 1339q-38 116 24.5 198.5t178.5 82.5q115 0 179 -80.5t24 -200.5l-135 -389h-134z" />
<glyph unicode="#" horiz-adv-x="1431" d="M49 387l35 244h225l47 241h-231l37 242h239l78 410h264l-77 -410h233l78 410h266l-78 -410h221l-36 -242h-228l-45 -241h230l-37 -244h-238l-71 -387h-267l74 387h-238l-75 -387h-269l76 387h-213zM573 631h240l45 241h-237z" />
<glyph unicode="$" d="M6 80l156 561q26 -91 68.5 -172.5t98 -146t126.5 -102.5t147 -38q77 0 130.5 41.5t53.5 126.5q0 46 -27 81.5t-72 57t-102 44.5t-116 43.5t-116 54.5t-102 76.5t-72 111t-27 156.5q0 112 32 204t87 155.5t132.5 107.5t165 66t187.5 26l43 246h147l-45 -248 q127 -6 241 -30t165 -45l51 -21l-141 -512q-49 181 -159.5 294t-258.5 113q-78 0 -128 -40.5t-50 -125.5q0 -41 21.5 -72.5t58 -52.5t84 -39.5t99.5 -36.5t104 -39.5t99.5 -53.5t84 -73t58 -103.5t21.5 -139.5q0 -114 -33 -208.5t-90.5 -160t-137 -111.5t-170.5 -68.5 t-193 -26.5l-41 -246h-148l43 250q-129 7 -248 31t-173 45z" />
<glyph unicode="%" horiz-adv-x="1878" d="M61 0l1467 1524h364l-1464 -1524h-367zM125 1094q0 198 144.5 329t359.5 131q178 0 276.5 -87.5t98.5 -243.5q0 -142 -67 -248.5t-180.5 -160.5t-254.5 -54q-180 0 -278.5 88t-98.5 246zM453 954q0 -106 63 -106q45 0 83.5 100.5t56.5 215.5t18 192q0 108 -62 108 q-45 0 -83.5 -100.5t-57 -216t-18.5 -193.5zM942 299q0 131 66 236.5t181.5 165t256.5 59.5q178 0 276.5 -88t98.5 -244q0 -142 -67 -248.5t-180.5 -160.5t-254.5 -54q-180 0 -278.5 88t-98.5 246zM1270 160q0 -107 63 -107q45 0 83.5 100.5t56.5 215.5t18 192 q0 109 -61 109q-45 0 -84 -100.5t-57.5 -216t-18.5 -193.5z" />
<glyph unicode="&#x26;" horiz-adv-x="1703" d="M37 367q0 154 103.5 253.5t310.5 161.5q-136 154 -136 334q0 210 165.5 321t451.5 111q233 0 368.5 -79t135.5 -232q0 -316 -492 -455l299 -383q58 67 101 156t65 233l23 146h210l-22 -148q-50 -327 -266 -528q115 -133 250 -139l-17 -119h-317q-159 0 -250 59 q-162 -84 -424 -84q-143 0 -253 31.5t-175.5 86.5t-98 124t-32.5 150zM514 350q0 -93 47.5 -146.5t134.5 -53.5q110 0 181 38l-293 394q-70 -104 -70 -232zM793 1120q0 -108 55 -188q147 130 147 362q0 129 -69 129q-53 0 -93 -84.5t-40 -218.5z" />
<glyph unicode="'" horiz-adv-x="552" d="M176 1339q-38 116 24.5 198.5t178.5 82.5q115 0 179 -80.5t24 -200.5l-136 -389h-133z" />
<glyph unicode="(" horiz-adv-x="821" d="M66 475q0 180 34 338.5t94.5 280.5t144 218t184 158t212.5 94.5t230 32.5l-17 -98q-95 0 -182 -121t-144.5 -304t-91.5 -393t-34 -394q0 -87 12 -151.5t29 -99t43.5 -56t46.5 -28t47 -9.5l-19 -97q-89 0 -166.5 15.5t-157.5 58t-136.5 110.5t-92.5 182t-36 263z" />
<glyph unicode=")" horiz-adv-x="821" d="M-84 -154l16 99q95 0 182 121t145 304t92 393.5t34 393.5q0 87 -12 151.5t-29 99t-43.5 56t-46.5 28t-47 9.5l18 96q62 0 118.5 -7.5t117 -27t111 -50t96.5 -80t78 -113t50.5 -153t18.5 -197.5q0 -215 -48 -399t-132.5 -315.5t-198.5 -224.5t-246 -138.5t-274 -45.5z" />
<glyph unicode="*" horiz-adv-x="1214" d="M199 1182q32 101 109 128.5t157 -42.5l158 -142l-91 199q-43 96 9 161.5t159 65.5q105 0 155.5 -65.5t8.5 -161.5l-90 -203l164 146q80 70 157 42.5t109 -128.5q33 -101 -12.5 -170.5t-151.5 -59.5l-194 21l168 -96q92 -56 89.5 -137t-89.5 -144q-56 -40 -111.5 -45.5 t-99 28.5t-58.5 103l-45 215l-43 -215q-14 -69 -57 -103t-99 -28.5t-112 45.5q-87 63 -89.5 144t89.5 137l168 96l-195 -21q-106 -10 -151 59t-12 171z" />
<glyph unicode="+" d="M123 518v248h379v403h280v-403h385v-248h-385v-403h-280v403h-379z" />
<glyph unicode="," horiz-adv-x="593" d="M-80 -244l133 480q23 84 84.5 124.5t130.5 40.5q83 0 140 -51t57 -137q0 -99 -68 -164l-358 -350z" />
<glyph unicode="-" horiz-adv-x="927" d="M96 518l45 250h723l-45 -250h-723z" />
<glyph unicode="." horiz-adv-x="593" d="M-29 158q0 120 86 187t209 67q108 0 167 -46.5t59 -134.5q0 -115 -83 -182t-219 -67q-105 0 -162 45.5t-57 130.5z" />
<glyph unicode="/" horiz-adv-x="942" d="M-76 0l873 1524h297l-867 -1524h-303z" />
<glyph unicode="0" d="M66 567l75 432q45 257 219.5 400t454.5 143q289 0 412.5 -155t75.5 -435l-76 -432q-46 -258 -220 -400.5t-454 -142.5q-289 0 -412 155t-75 435zM497.5 201.5q5.5 -95.5 71.5 -95.5q63 0 101.5 93t79.5 331l79 457q14 82 23 140t13 108t2 82t-10 54.5t-22.5 32t-37.5 9.5 q-63 0 -102 -93.5t-81 -332.5l-79 -457q-43 -233 -37.5 -328.5z" />
<glyph unicode="1" d="M0 0l20 127h357l225 1268h-278l22 129h748l-248 -1397h344l-21 -127h-1169z" />
<glyph unicode="2" d="M2 135q0 131 125 211l457 297q116 76 171.5 155t55.5 187q0 178 -217 178q-106 0 -205 -26l-162 -43l-57 327l156 52q86 28 216 47.5t236 19.5q259 0 405 -100.5t146 -286.5q0 -66 -13 -120.5t-44 -103t-67 -86.5t-99.5 -82t-122 -79t-152.5 -86l-450 -246h715l20 117h82 l-82 -467h-962q-76 0 -114 36.5t-38 98.5z" />
<glyph unicode="3" d="M-16 102l202 523q14 -70 28 -124.5t40.5 -119.5t58.5 -108t81.5 -72t109.5 -29q94 0 157.5 63.5t63.5 192.5q0 87 -57 180l-52 82h-219l23 125h217l65 84q72 90 72 168q0 113 -151 113q-114 0 -232 -31l-168 -43l-63 319l155 52q192 63 455 63q271 0 404 -92t133 -258 q0 -197 -136 -330l-114 -112l86 -105q71 -86 71 -201q0 -208 -173.5 -333t-501.5 -125q-104 0 -199.5 12t-157 29.5t-109 35t-68.5 29.5z" />
<glyph unicode="4" d="M-2 403q0 50 51 119l602 840q135 182 344 182q111 0 173 -63t42 -176l-149 -846h178l-25 -142h-176l-34 -190h129l-21 -127h-745l20 127h139l35 190h-461q-51 0 -76.5 23t-25.5 63zM197 459h387l127 727z" />
<glyph unicode="5" d="M-12 102l194 492q13 -68 28 -121t41 -112t58 -97.5t81.5 -64t109.5 -25.5q121 0 202.5 110t81.5 294q0 114 -57.5 164.5t-148.5 50.5q-143 0 -299 -78l-115 -58l153 867h1018l-84 -467h-118l22 117h-768l-53 -302q7 5 21 12t58.5 26.5t91 34t116 26.5t137.5 12 q238 0 374 -101.5t136 -297.5q0 -266 -212 -433t-562 -167q-93 0 -179.5 12t-143 29.5t-100 35t-63.5 29.5z" />
<glyph unicode="6" d="M55 539l88 501q20 116 70.5 206t135 156t209.5 101t286 35q93 0 180.5 -12.5t146 -30t104 -34.5t66.5 -29l21 -13l-180 -475q-12 64 -29.5 119t-45.5 109t-62.5 91.5t-83.5 61t-107 23.5q-103 0 -153 -66t-76 -213l-23 -117q88 21 164 21q246 0 363.5 -97t117.5 -286 q0 -174 -94.5 -312.5t-252.5 -214t-347 -75.5q-282 0 -412.5 147.5t-85.5 403.5zM494.5 209.5q9.5 -84.5 74.5 -84.5q54 0 101 82t71.5 196t24.5 220q0 95 -28.5 141.5t-98.5 46.5q-12 0 -27 -2t-24 -4l-10 -2l-56 -305q-37 -204 -27.5 -288.5z" />
<glyph unicode="7" d="M154 0l878 1153h-727l-20 -117h-119l86 488h958q77 0 116.5 -36t39.5 -97q0 -44 -11.5 -83.5t-21.5 -57.5t-43 -76l-665 -1174h-471z" />
<glyph unicode="8" d="M6 340q0 198 166 338l119 100l-74 113q-61 92 -61 196q0 115 46.5 202.5t132 142t201 81.5t259.5 27q247 0 389.5 -89.5t142.5 -252.5q0 -183 -156 -336l-114 -112l86 -101q68 -83 71 -200q0 -212 -171 -340.5t-492 -128.5q-267 0 -406 100t-139 260zM473 240 q0 -129 88 -129q84 0 132 118t48 301q0 2 -6 95l-6 84h-119l-41 -86q-96 -209 -96 -383zM618 1008q0 -67 3 -90l10 -84h119l38 86q93 210 93 368q0 123 -90 123q-79 0 -126 -110.5t-47 -292.5z" />
<glyph unicode="9" d="M6 106l180 476q12 -64 29.5 -119t45.5 -109t62.5 -91.5t83.5 -61t107 -23.5q103 0 153 66t76 213l23 116q-88 -20 -164 -20q-246 0 -363.5 97t-117.5 286q0 174 94.5 312.5t252.5 214t347 75.5q282 0 412.5 -147.5t85.5 -403.5l-88 -502q-87 -497 -701 -497 q-93 0 -180.5 12t-146 29.5t-104 35t-66.5 29.5zM602 903q0 -95 28.5 -141.5t98.5 -46.5q12 0 27.5 2t25.5 4l9 2l55 305q37 204 27.5 288.5t-74.5 84.5q-54 0 -101 -82t-71.5 -196t-24.5 -220z" />
<glyph unicode=":" horiz-adv-x="593" d="M-29 158q0 120 86 187t209 67q108 0 167 -46.5t59 -134.5q0 -115 -83 -182t-219 -67q-105 0 -162 45.5t-57 130.5zM90 848q0 120 86 187t209 67q108 0 166.5 -46t58.5 -134q0 -116 -83 -183t-218 -67q-105 0 -162 45.5t-57 130.5z" />
<glyph unicode=";" horiz-adv-x="593" d="M-80 -244l133 480q23 84 84.5 124.5t130.5 40.5q83 0 140 -51t57 -137q0 -99 -68 -164l-358 -350zM102 848q0 120 86 187t209 67q108 0 167 -46t59 -134q0 -116 -83 -183t-218 -67q-105 0 -162.5 46t-57.5 130z" />
<glyph unicode="&#x3c;" d="M123 645q0 164 145 213l899 318v-324l-708 -207l708 -209v-313l-893 309q-151 52 -151 213z" />
<glyph unicode="=" d="M121 332v239h1046v-239h-1046zM121 705v239h1046v-239h-1046z" />
<glyph unicode="&#x3e;" d="M123 123v313l708 209l-708 207v324l899 -318q145 -49 145 -213q0 -161 -151 -213z" />
<glyph unicode="?" horiz-adv-x="1032" d="M104 1417l136 45q79 28 192.5 50t206.5 22q220 0 334 -89t114 -257q0 -127 -61.5 -221t-202.5 -162l-219 -107l-117 -223h-151l-10 139q-11 141 77 207l127 97q51 39 71 73t20 86q0 47 -28.5 80t-86.5 33q-93 0 -219 -37l-127 -39zM113 150q0 111 82.5 175t216.5 64 q103 0 160 -44t57 -124q0 -116 -85 -180t-208 -64q-107 0 -165 44.5t-58 128.5z" />
<glyph unicode="@" horiz-adv-x="1957" d="M178 662q0 184 69 347.5t186.5 279.5t280 183.5t343.5 67.5q319 0 513.5 -178t194.5 -475q0 -125 -37 -232t-99.5 -178t-144.5 -111t-171 -40q-49 0 -107.5 18t-85.5 18q-34 0 -113.5 -15t-138.5 -15q-166 0 -247.5 85.5t-81.5 237.5q0 92 31 177t87.5 151t144 105.5 t193.5 39.5q28 0 60 -4.5t49 -9.5l18 -4l256 64l-129 -672q46 -23 74 -23q91 0 161 110t70 288q0 217 -134.5 341.5t-375.5 124.5q-188 0 -337 -90t-230.5 -244t-81.5 -341q0 -226 127.5 -364t354.5 -138q83 0 232 37t224 37q84 0 140 -35l116 -72l-86 -156l-114 56 q-27 14 -78 14q-47 0 -115 -17.5t-155.5 -35t-182.5 -17.5q-161 0 -290.5 52t-214 144.5t-130 217.5t-45.5 271zM815 659q0 -84 22 -127t72 -43q33 0 80 15l82 459q-60 12 -80 12q-72 0 -121.5 -95t-54.5 -221z" />
<glyph unicode="A" horiz-adv-x="1759" d="M-51 0l18 127h135l635 1268h-155l20 129h457q241 0 280 -211l201 -1186h127l-18 -127h-824l19 127h145l-35 264h-465l-127 -264h138l-19 -127h-532zM551 530h389l-88 623z" />
<glyph unicode="B" horiz-adv-x="1560" d="M-51 0l20 127h154l225 1270h-153l22 127h1018q162 0 259 -83.5t97 -221.5q0 -198 -155 -353l-115 -110l98 -119q74 -90 74 -203q0 -134 -69.5 -233.5t-188.5 -150t-270 -50.5h-1016zM645 119h123q93 0 159 84t66 227q0 91 -59 184l-57 88h-129zM770 827h123l76 91 q64 77 94.5 151.5t30.5 175.5q0 73 -33 114.5t-92 41.5h-99z" />
<glyph unicode="C" horiz-adv-x="1441" d="M61 592q0 223 72.5 403t199 297t295.5 179.5t365 62.5q99 0 188.5 -10.5t147.5 -25.5t101.5 -30t63.5 -26l19 -10l-202 -523q-20 66 -38 113t-50 105t-68 94t-91 61t-120 25q-61 0 -114.5 -26.5t-91.5 -72.5t-68 -105t-48 -126.5t-27 -134.5t-9 -131q0 -338 313 -338 q133 0 391 73v-352q-191 -70 -320 -96q-120 -24 -233 -23h-18q-305 0 -481.5 161.5t-176.5 455.5z" />
<glyph unicode="D" horiz-adv-x="1667" d="M-51 0l20 127h154l225 1270h-153l22 127h793q146 0 264.5 -34.5t207 -104t137 -183.5t48.5 -264q0 -198 -66.5 -370t-186 -298t-297.5 -198t-390 -72h-778zM645 119h90q97 0 179 98t132.5 249.5t78.5 320.5t28 323q0 149 -49.5 220t-151.5 71h-82z" />
<glyph unicode="E" horiz-adv-x="1462" d="M-51 0l20 127h154l225 1268h-153l22 129h1030q81 0 150 -6t98 -12l29 -7l-92 -424q-36 65 -76.5 118.5t-93 101.5t-117 75t-133.5 27h-142l-98 -559h254l31 182h143l-86 -488h-143l30 173h-253l-103 -578h168q243 0 535 322l-39 -424q-103 -25 -285 -25h-1075z" />
<glyph unicode="F" horiz-adv-x="1419" d="M-51 0l20 127h154l225 1270h-153l22 127h1038q81 0 150 -6t98 -12l29 -7l-94 -424q-36 65 -76.5 118.5t-93 101.5t-117 75t-133.5 27h-141l-105 -588h264l33 182h143l-86 -487h-143l31 172h-264l-99 -549h152l-21 -127h-833z" />
<glyph unicode="G" horiz-adv-x="1622" d="M61 578q0 298 126 516.5t344 329t501 110.5q106 0 203 -10.5t160 -26t110.5 -31t68.5 -26.5l21 -10l-196 -521q-23 64 -46 114.5t-59 106t-76.5 92.5t-97.5 61t-123 24q-79 0 -145 -43t-109.5 -116t-75.5 -159.5t-49 -183.5t-24.5 -178t-7.5 -152q0 -165 58 -240t181 -75 q22 0 42.5 1.5t30.5 2.5l9 2l66 371h-221l22 131h828l-23 -131h-125l-53 -295q-13 -74 -50.5 -114t-119.5 -69q-221 -77 -492 -77q-327 0 -502.5 154.5t-175.5 441.5z" />
<glyph unicode="H" horiz-adv-x="1804" d="M-51 0l20 127h154l225 1268h-153l22 129h821l-22 -129h-133l-99 -549h344l99 549h-131l22 129h819l-22 -129h-160l-225 -1268h160l-21 -127h-819l20 127h131l105 582h-344l-105 -582h134l-21 -127h-821z" />
<glyph unicode="I" horiz-adv-x="927" d="M-51 0l20 127h154l225 1268h-153l22 129h844l-23 -129h-153l-226 -1268h154l-20 -127h-844z" />
<glyph unicode="J" horiz-adv-x="937" d="M-133 -414l27 150q245 0 282 201q7 40 7 100q0 54 -5 123q-5 63 -5 115q0 72 9 126l176 994h-153l22 129h844l-22 -129h-154l-233 -1319q-43 -240 -245.5 -365t-549.5 -125z" />
<glyph unicode="K" horiz-adv-x="1667" d="M-51 0l20 127h154l225 1268h-153l22 129h821l-22 -129h-144l-102 -574l535 576h-154l23 127h616l-23 -127h-153l-377 -369l180 -743q9 -37 16.5 -58.5t23 -48.5t42 -40t64.5 -13l-21 -125h-358q-138 0 -210.5 55.5t-101.5 188.5l-86 346l-24 -25q-53 -62 -68 -157 l-51 -281h143l-20 -127h-817z" />
<glyph unicode="L" horiz-adv-x="1449" d="M-51 0l20 127h154l225 1268h-153l22 129h842l-23 -129h-153l-226 -1268h156q243 0 535 322l-39 -424q-103 -25 -285 -25h-1075z" />
<glyph unicode="M" horiz-adv-x="2123" d="M-55 0l20 127h154l225 1268h-154l23 129h551q125 0 194 -55t72 -160l29 -809l342 809q44 109 118 162t195 53h541l-23 -129h-155l-226 -1268h154l-20 -127h-764l22 129h129l168 961l-360 -879q-87 -211 -320 -211q-111 0 -173 53.5t-71 157.5l-73 881l-168 -963h129 l-23 -129h-536z" />
<glyph unicode="N" horiz-adv-x="1679" d="M-51 0l20 127h154l225 1268h-153l22 129h535q120 0 185 -55t89 -160l229 -811l160 897h-149l22 129h535l-23 -127h-133l-209 -1186q-41 -231 -344 -231q-137 0 -209 54t-102 167l-256 891l-168 -963h129l-23 -129h-536z" />
<glyph unicode="O" horiz-adv-x="1712" d="M61 606q0 192 71.5 363t197 295.5t305.5 197t387 72.5q205 0 359 -71t242.5 -213t88.5 -339q0 -192 -71.5 -363t-196.5 -295t-305 -196.5t-387 -72.5q-205 0 -359.5 70.5t-243 212.5t-88.5 339zM598 410q0 -289 178 -289q77 0 144 68.5t113 176.5t79 241t48.5 261.5 t15.5 239.5q0 289 -179 289q-77 0 -144 -68.5t-112.5 -176.5t-78.5 -241t-48.5 -261.5t-15.5 -239.5z" />
<glyph unicode="P" horiz-adv-x="1511" d="M-51 0l20 127h154l225 1268h-153l22 129h827q252 0 385.5 -95.5t133.5 -289.5q0 -135 -52 -241t-146 -172.5t-219 -101t-276 -34.5h-139l-82 -463h160l-21 -127h-839zM754 713h49q44 0 88 31.5t81.5 91t61 157t23.5 217.5q0 193 -129 193h-54z" />
<glyph unicode="Q" horiz-adv-x="1712" d="M61 606q0 192 71.5 363t197 295.5t305.5 197t387 72.5q205 0 359 -71t242.5 -213t88.5 -339q0 -139 -33.5 -261t-91 -215t-138.5 -168.5t-172.5 -126t-195.5 -81.5l39 -22q42 -25 119 -25q136 0 311 154l-57 -377q-95 -15 -177 -15q-210 0 -341 97l-117 86 q-22 16 -46 24.5t-39 9.5t-42 1q-114 0 -215 24.5t-184.5 74.5t-143.5 122.5t-93.5 172.5t-33.5 220zM598 410q0 -289 178 -289q77 0 144 68.5t113 176.5t79 241t48.5 261.5t15.5 239.5q0 289 -179 289q-77 0 -144 -68.5t-112.5 -176.5t-78.5 -241t-48.5 -261.5 t-15.5 -239.5z" />
<glyph unicode="R" horiz-adv-x="1613" d="M-51 0l20 127h154l225 1268h-153l22 129h991q169 0 272 -89t103 -241q0 -209 -172 -391l-133 -141l98 -412q13 -62 43.5 -94.5t89.5 -32.5l-20 -123h-305q-140 0 -211.5 54t-91.5 175l-82 410h-62l-92 -512h143l-20 -127h-819zM760 768h108l76 100q70 92 101.5 172.5 t31.5 198.5q0 77 -33 117.5t-94 40.5h-80z" />
<glyph unicode="S" horiz-adv-x="1388" d="M20 80l164 561q36 -123 101 -225t160.5 -168t201.5 -66q80 0 136.5 41.5t56.5 126.5q0 46 -28.5 81.5t-75.5 57t-107 44.5t-122 43.5t-122 54.5t-107 76.5t-75.5 111t-28.5 156.5q0 118 37 213.5t100.5 159.5t152 107t187.5 62t211 19q100 0 196 -10.5t162 -25t118 -29 t77 -25.5l25 -10l-148 -512q-53 182 -169 294.5t-271 112.5q-81 0 -133.5 -40.5t-52.5 -125.5q0 -41 22.5 -72.5t61 -52.5t88 -39.5t104 -36.5t109.5 -39.5t104.5 -53.5t88 -73t61 -103.5t22.5 -139.5q0 -119 -37 -215.5t-101.5 -162.5t-153 -111t-189 -65.5t-213.5 -20.5 q-103 0 -204.5 10.5t-172 25t-126 29t-82.5 25.5z" />
<glyph unicode="T" horiz-adv-x="1538" d="M164 1069l33 430q119 25 301 25h870q81 0 154 -6t106 -12l33 -7l-102 -430q-62 152 -146.5 240t-204.5 88h-26l-226 -1270h152l-21 -127h-843l20 127h164l225 1270h-24q-120 0 -234 -87.5t-231 -240.5z" />
<glyph unicode="U" horiz-adv-x="1681" d="M193 1395l22 129h832l-23 -129h-143l-152 -860q-9 -47 -9 -87q0 -81 37 -133q55 -77 189 -77q127 0 209.5 77.5t108.5 223.5l151 856h-149l22 129h537l-23 -127h-133l-149 -848q-49 -277 -242 -428.5t-485 -151.5q-335 0 -491 152q-117 114 -118 303q0 62 13 131l149 840 h-153z" />
<glyph unicode="V" horiz-adv-x="1720" d="M184 1395l23 129h831l-22 -129h-146l113 -979l457 979h-137l22 129h539l-23 -129h-137l-584 -1200q-93 -211 -358 -211q-125 0 -196.5 53.5t-80.5 157.5l-174 1200h-127z" />
<glyph unicode="W" horiz-adv-x="2273" d="M184 1395l23 129h770l-23 -129h-125l-59 -961l354 879q84 211 320 211q113 0 178.5 -54t65.5 -157l6 -881l293 963h-117l22 129h525l-23 -129h-135l-430 -1219q-70 -196 -328 -196q-244 0 -250 196l-32 807l-330 -805q-43 -104 -116.5 -150t-201.5 -46 q-120 0 -188.5 49.5t-67.5 146.5l2 1217h-133z" />
<glyph unicode="X" horiz-adv-x="1654" d="M-51 0l22 129h146l461 592l-246 674h-137l22 129h856l-22 -129h-127l129 -418l290 418h-135l23 129h557l-23 -129h-145l-451 -588l234 -678h137l-22 -129h-856l22 129h129l-121 424l-299 -424h137l-22 -129h-559z" />
<glyph unicode="Y" horiz-adv-x="1708" d="M184 1395l23 129h850l-23 -129h-127l160 -500l334 500h-135l22 129h563l-22 -129h-146l-553 -738l-94 -530h152l-21 -127h-843l20 125h164l92 514l-278 756h-138z" />
<glyph unicode="Z" horiz-adv-x="1515" d="M-10 113q0 77 67 155l934 1129h-243q-239 0 -535 -322l35 424q102 25 284 25h867q57 0 90 -29.5t33 -83.5q0 -78 -66 -156l-938 -1128h283q242 0 534 322l-32 -424q-103 -25 -285 -25h-903q-56 0 -90.5 30.5t-34.5 82.5z" />
<glyph unicode="[" horiz-adv-x="774" d="M-39 -135l305 1732h652l-21 -118h-199l-264 -1499h199l-21 -115h-651z" />
<glyph unicode="\" horiz-adv-x="942" d="M193 1524h272l360 -1524h-278z" />
<glyph unicode="]" horiz-adv-x="774" d="M-80 -135l21 115h198l264 1499h-198l20 118h652l-306 -1732h-651z" />
<glyph unicode="^" d="M119 119l315 901q53 147 209 147q157 0 209 -145l319 -903h-321l-207 692l-209 -692h-315z" />
<glyph unicode="_" horiz-adv-x="1024" d="M-4 -170h1032v-154h-1032v154z" />
<glyph unicode="`" horiz-adv-x="1024" d="M299 1446q0 98 64.5 153.5t154.5 55.5q88 0 152 -58l297 -274l-54 -111l-421 39q-96 9 -144.5 60t-48.5 135z" />
<glyph unicode="a" horiz-adv-x="1353" d="M51 422q0 304 179 492t472 188q80 0 153 -12t105 -24l33 -13l330 112l-184 -1001l123 -49l-37 -119l-144 37q-52 14 -104 14q-60 0 -185.5 -28.5t-242.5 -28.5q-252 0 -375 113t-123 319zM520 311q0 -182 90 -182q19 0 35 2t23 4l6 2l145 807q-16 8 -53 8 q-59 0 -108.5 -70.5t-78 -174.5t-44 -209t-15.5 -187z" />
<glyph unicode="b" horiz-adv-x="1349" d="M51 82l256 1415h-137l23 123h598l-91 -506q83 14 134 14q237 0 350.5 -112.5t113.5 -315.5q0 -205 -84.5 -364.5t-250.5 -252.5t-390 -93q-138 0 -268.5 23t-192.5 46zM528 133q17 -4 60 -4q51 0 98 66.5t77.5 167.5t49 217.5t18.5 218.5q0 88 -23 133t-75 45 q-18 0 -32.5 -2t-19.5 -4l-5 -2z" />
<glyph unicode="c" horiz-adv-x="1122" d="M51 420q0 174 53 310.5t146 221t214.5 128.5t262.5 44q76 0 147 -10.5t117.5 -26t82.5 -31t52 -26.5l17 -10l-166 -432q-16 69 -36.5 127t-48.5 110t-65 81.5t-79 29.5q-61 0 -106.5 -42.5t-68.5 -109t-33 -129.5t-10 -123q0 -198 189 -198q107 0 270 55v-307 q-141 -54 -247 -77t-216 -23q-231 0 -353 115.5t-122 322.5z" />
<glyph unicode="d" horiz-adv-x="1353" d="M51 422q0 206 81 365.5t232 249t349 89.5q25 0 58 -3t53 -6l20 -3l67 383h-137l23 123h598l-256 -1456l123 -49l-37 -119l-144 37q-52 14 -104 14q-65 0 -201 -28.5t-227 -28.5q-252 0 -375 113t-123 319zM518 311q0 -182 90 -182q19 0 35 2t23 4l6 2l147 832 q-16 8 -53 8q-59 0 -109 -74.5t-78.5 -183.5t-44.5 -217.5t-16 -190.5z" />
<glyph unicode="e" horiz-adv-x="1234" d="M51 432q0 145 40.5 264t107 198t156.5 133.5t185.5 78.5t196.5 24q228 0 342.5 -109t114.5 -300q0 -95 -33 -142t-110 -47h-521v-8q0 -213 224 -213q146 0 333 58v-289q-149 -54 -266 -76t-243 -22q-261 0 -394 117t-133 333zM541 659h202q10 47 16.5 84t12.5 80 q5 39 5 68q-1 3 -1 5q0 30 -5.5 57.5t-20 41t-37.5 13.5q-54 0 -98.5 -89.5t-73.5 -259.5z" />
<glyph unicode="f" horiz-adv-x="944" d="M-143 -410l22 129q106 0 171 50.5t83 136.5q12 58 13 118q1 19 1 35q0 40 -3 72q-1 25 -1 58q0 29 1 65q3 76 18 160l102 565h-186l20 123h187l28 162q31 178 151.5 273t326.5 95q102 0 183 -15t112 -29l30 -15l-115 -395q-21 116 -76 185t-122 69q-41 0 -64.5 -28.5 t-23.5 -76.5q-1 -29 17 -99q14 -54 14 -98q0 -15 -1 -28h261l-21 -123h-256l-166 -954q-37 -209 -221.5 -322t-484.5 -113z" />
<glyph unicode="g" horiz-adv-x="1300" d="M-20 -133q0 105 48 170t134 110l119 66q60 32 86 62t26 67q0 30 -26 50.5t-80 43.5q-81 34 -134 99t-53 165q0 195 144.5 298.5t396.5 103.5h168q236 0 416 311l127 -311q-58 -36 -148 -61t-145 -25q83 -33 126.5 -97.5t43.5 -146.5q0 -186 -166 -289.5t-438 -103.5 l-64 4q6 -12 6 -35q0 -29 -12.5 -60.5t-24.5 -47.5l-12 -17l197 15q54 4 102 4q373 0 373 -240q0 -100 -59.5 -181t-160.5 -131.5t-229 -77t-270 -26.5q-247 0 -369 74.5t-122 206.5zM381 -156q0 -63 40.5 -97t115.5 -34q83 0 140.5 51.5t57.5 139.5q0 94 -129 106l-164 10 q-7 -8 -17 -23t-27 -61t-17 -92zM545 614q0 -58 17 -86t56 -28q65 0 109.5 97.5t44.5 262.5q0 117 -76 117q-63 0 -107 -99.5t-44 -263.5z" />
<glyph unicode="h" horiz-adv-x="1392" d="M41 0l262 1497h-137l22 123h594l-98 -553q17 6 45.5 15.5t104.5 25.5t137 16q321 0 321 -264q0 -51 -12 -112l-100 -490l139 47l33 -121l-555 -211q-2 1 -6.5 4t-15.5 14.5t-20 26.5t-19 42t-14 59q-3 22 -3 51q0 13 1 28q2 47 13 101l90 446q7 42 7 74q0 117 -95 117 q-21 0 -40.5 -4t-28.5 -8l-9 -4l-159 -920h-457z" />
<glyph unicode="i" horiz-adv-x="796" d="M105 198q2 47 12 101l129 680h-127l20 123h594l-170 -844l139 47l33 -121l-555 -211q-2 1 -6 4t-15 14.5t-20 26.5t-18.5 42t-13.5 59q-3 21 -3 49q0 14 1 30zM279 1386q0 114 85 178t207 64q108 0 167 -44t59 -128q0 -109 -82.5 -173t-216.5 -64q-104 0 -161.5 44 t-57.5 123z" />
<glyph unicode="j" horiz-adv-x="751" d="M-184 -410l22 129q107 0 173.5 51t80.5 136q8 46 8 110q0 40 -3 87q-3 43 -3 80q0 71 10 124l119 670h-125l21 125h592l-189 -1077q-38 -210 -222.5 -322.5t-483.5 -112.5zM264 1386q0 114 85.5 178t207.5 64q108 0 166.5 -44t58.5 -128q0 -109 -82.5 -173t-216.5 -64 q-104 0 -161.5 44t-57.5 123z" />
<glyph unicode="k" horiz-adv-x="1366" d="M41 0l262 1497h-137l22 123h594l-182 -1028l363 387h-134l21 123h547l-21 -123h-153l-234 -229l133 -476q9 -27 12.5 -37t13 -33.5t19 -34t24.5 -24t34.5 -19t44.5 -5.5l-21 -121h-282q-136 0 -208 47.5t-108 171.5l-35 150l-22 -25q-50 -56 -66 -151l-32 -193h-455z" />
<glyph unicode="l" horiz-adv-x="759" d="M74 198q2 47 12 101l219 1198h-127l23 123h600l-254 -1362l139 47l33 -121l-569 -211q-2 1 -6 4t-15 14.5t-20 26.5t-18.5 42t-13.5 59q-3 23 -3 54v25z" />
<glyph unicode="m" horiz-adv-x="2056" d="M72 0l166 948l-125 47l32 117l211 -43q45 -10 86 -10q55 0 119.5 16.5t150.5 32.5t193 16q185 0 281 -80q175 80 360 80q226 0 329 -101q76 -75 76 -191q0 -41 -9 -87l-99 -487l139 47l33 -121l-551 -211q-2 1 -6.5 4t-15.5 14.5t-20 26.5t-18.5 42t-13.5 59q-3 21 -3 49 q0 14 1 30q2 47 13 101l90 455q8 42 8 74q0 108 -96 108q-25 0 -53.5 -8t-43.5 -16l-16 -9q2 -8 5 -21.5t7 -58.5q1 -13 0 -25q0 -32 -6 -63l-129 -735h-452l131 754q8 44 8 76q0 40 -12 64q-22 42 -82 42q-21 0 -40 -4t-28 -8l-8 -4l-162 -920h-450z" />
<glyph unicode="n" horiz-adv-x="1425" d="M72 0l166 948l-123 43l35 123l206 -45q45 -10 86 -10q28 0 103.5 16.5t175 32.5t186.5 16q226 0 332 -105q79 -78 79 -197q0 -40 -9 -85l-97 -479l140 47l32 -121l-555 -211q-2 1 -6.5 4t-15.5 14.5t-20 26.5t-18.5 42t-13.5 59q-3 21 -3 49q0 14 1 30q2 47 13 101 l90 446q7 41 7 73q0 118 -97 118q-21 0 -40.5 -4t-28.5 -8l-9 -4l-160 -920h-456z" />
<glyph unicode="o" horiz-adv-x="1363" d="M51 453q0 189 97.5 344.5t266 243t371.5 87.5q245 0 386 -125.5t141 -338.5q0 -153 -57 -281t-156.5 -214t-234 -133.5t-287.5 -47.5q-246 0 -386.5 125.5t-140.5 339.5zM524 274q0 -79 20 -119t66 -40q52 0 97 71t73 180t44 234t16 240q0 79 -20 119t-66 40 q-52 0 -97 -71t-73 -180t-44 -234t-16 -240z" />
<glyph unicode="p" horiz-adv-x="1368" d="M-143 -401l22 122h135l215 1227l-123 49l37 119l144 -37q49 -14 98 -14t179.5 28.5t254.5 28.5q252 0 375 -113t123 -319t-81 -365.5t-232 -249t-349 -89.5q-25 0 -58 3t-53 6l-20 3l-49 -277h146l-23 -122h-741zM549 143q16 -8 53 -8q59 0 109 74.5t78.5 183.5 t44.5 217.5t16 190.5q0 182 -90 182q-19 0 -35 -2t-23 -4l-6 -2z" />
<glyph unicode="q" horiz-adv-x="1349" d="M51 414q0 205 84.5 364.5t250.5 252.5t390 93q138 0 268.5 -23t191.5 -46l62 -23l-237 -1311h137l-22 -122h-744l23 122h145l51 279q-82 -14 -133 -14q-237 0 -352 113t-115 315zM518 315q0 -178 100 -178q18 0 32.5 2t19.5 4l6 2l145 836q-16 4 -59 4 q-67 0 -125.5 -112.5t-88.5 -265.5t-30 -292z" />
<glyph unicode="r" horiz-adv-x="1079" d="M72 0l166 948l-125 45l34 121l209 -45q58 -12 95 -12q69 0 205 35.5t243 35.5q72 0 124.5 -12t69.5 -24l17 -13l-154 -510q-36 156 -92 248t-129 92q-14 0 -26.5 -1.5t-18.5 -3.5l-6 -1l-152 -903h-460z" />
<glyph unicode="s" horiz-adv-x="1107" d="M-10 53l137 398q48 -138 142 -227t212 -89q58 0 95.5 26.5t37.5 82.5q0 36 -28.5 62.5t-74.5 45t-101.5 37t-111 44.5t-101.5 60.5t-74.5 91.5t-28.5 132q0 88 31 158t83.5 116t125.5 76.5t154.5 43.5t173.5 13q81 0 158 -7.5t129 -18t92 -21.5t59 -19l18 -7l-131 -385 q-46 137 -129 221t-196 84q-127 0 -127 -107q0 -36 28 -62.5t73.5 -45t100 -36.5t109 -43.5t100 -59t73.5 -89.5t28 -129q0 -88 -32 -159.5t-86 -119t-129 -80t-158 -46.5t-175 -14q-84 0 -164.5 7.5t-134.5 18t-96 21.5t-62 19z" />
<glyph unicode="t" horiz-adv-x="1019" d="M92 979l21 123h172l178 387h338l-70 -387h309l-20 -123h-309l-88 -496q-6 -33 -6 -59q0 -42 16 -64q25 -36 100 -36q34 0 78 8.5t71 17.5l27 8v-311q-19 -7 -53.5 -16.5t-134.5 -26t-193 -16.5q-224 0 -322 116q-70 83 -70 214q0 52 11 112l101 549h-156z" />
<glyph unicode="u" horiz-adv-x="1425" d="M41 918l555 210q2 -1 6.5 -4t15.5 -14.5t20 -26t18.5 -41.5t13.5 -59q3 -21 3 -49q0 -14 -1 -30q-2 -47 -13 -101l-90 -447q-7 -40 -7 -72q0 -118 97 -118q21 0 40.5 4t28.5 8l9 4l160 920h457l-166 -948l123 -43l-35 -123l-207 45q-45 10 -86 10q-47 0 -209.5 -33 t-255.5 -33q-226 -1 -332 105q-79 79 -78 198q0 40 9 85l96 479l-139 -47z" />
<glyph unicode="v" horiz-adv-x="1415" d="M41 918l555 210q2 -1 6.5 -4t15.5 -14.5t20 -26t18.5 -41.5t13.5 -59q3 -21 3 -49q0 -14 -1 -30q-2 -47 -13 -101l-90 -447q-9 -46 -9 -80q0 -110 93 -110q77 0 139 88q63 86 96 222q32 132 32 277v9q-1 91 -13.5 176t-24.5 124l-12 40h504q0 -127 -30 -260.5t-83 -258 t-132 -235t-172.5 -193t-208.5 -130.5t-236 -48q-96 0 -170.5 20.5t-122 57t-76.5 87.5t-33 113q-1 14 0 28q0 49 9 104l94 457l-139 -47z" />
<glyph unicode="w" horiz-adv-x="2072" d="M41 918l551 210q2 -1 6.5 -4t15.5 -14.5t20 -26t18.5 -41.5t13.5 -59q3 -21 3 -49q0 -14 -1 -30q-2 -47 -13 -101l-90 -447q-9 -46 -9 -80q0 -110 93 -110q77 0 137 88q62 87 92 222q30 131 29 276v10q-1 91 -13 176t-24 124l-12 40h504q0 -135 -21.5 -262.5t-48 -208 t-48 -175.5t-21.5 -173q0 -117 92 -117q77 0 139 88q64 86 96 222q32 131 31 277v9q-1 91 -13 176t-24 124l-12 40h500q0 -127 -29.5 -260.5t-82.5 -258t-131.5 -235t-171.5 -193t-207.5 -130.5t-235.5 -48q-119 0 -191.5 31t-112.5 96q-67 -58 -166.5 -92.5t-195.5 -34.5 q-234 0 -330 113q-69 82 -69 200q0 46 10 97l94 457l-139 -47z" />
<glyph unicode="x" horiz-adv-x="1404" d="M-20 0l20 123h131l315 397q-141 136 -238.5 291.5t-115.5 290.5h613q-1 -15 -1 -30q0 -172 115 -372l209 279h-123l21 123h499l-20 -123h-131l-332 -418q133 -133 225.5 -282.5t110.5 -278.5h-612q1 12 1 24q0 164 -104 351l-186 -252h123l-21 -123h-499z" />
<glyph unicode="y" horiz-adv-x="1415" d="M41 918l555 210q2 -1 6.5 -4t15.5 -14.5t20 -26t18.5 -41.5t13.5 -59q3 -21 3 -49q0 -14 -1 -30q-2 -47 -13 -101l-94 -418q-9 -46 -9 -80q0 -110 93 -110q78 0 141 80t97 209q33 126 33 270v8q-1 91 -13.5 176t-24.5 124l-12 40h504q0 -66 -7 -129t-16.5 -115.5 t-29 -109t-35.5 -97.5t-46.5 -94.5t-51 -87t-59 -88t-61 -84t-67 -88t-67.5 -88.5q-82 -110 -143 -249t-84 -273h-502q98 197 354 417q-43 -10 -76 -10q-96 0 -168 20.5t-116 57t-69 87.5t-26 113v10q0 57 11 122l98 428l-139 -47z" />
<glyph unicode="z" horiz-adv-x="1271" d="M31 109q0 81 63 147l649 725h-77q-130 0 -270 -81.5t-249 -203.5l27 381q98 25 272 25h682q53 0 83 -28.5t30 -76.5q0 -81 -63 -151l-652 -725h92q129 0 268.5 81t248.5 204l-25 -381q-98 -25 -272 -25h-695q-53 0 -82.5 30t-29.5 79z" />
<glyph unicode="{" horiz-adv-x="759" d="M61 674v114q84 0 116 18t32 64q0 48 -21 107t-45.5 105.5t-45.5 106.5t-21 111q0 137 112 218t312 81h219v-112h-76q-62 0 -101.5 -40.5t-39.5 -113.5q0 -79 44 -228.5t44 -209.5q0 -104 -88 -164q88 -60 88 -164q0 -60 -44 -209.5t-44 -228.5q0 -73 39.5 -113.5 t101.5 -40.5h76v-112h-219q-200 0 -312 81t-112 218q0 51 21 111t45.5 106.5t45.5 105.5t21 107q0 46 -32 64t-116 18z" />
<glyph unicode="|" horiz-adv-x="552" d="M139 -410v2030h275v-2030h-275z" />
<glyph unicode="}" horiz-adv-x="759" d="M41 -25h76q62 0 101.5 40.5t39.5 113.5q0 79 -44 228.5t-44 209.5q0 104 88 164q-88 60 -88 164q0 60 44 209.5t44 228.5q0 73 -39.5 113.5t-101.5 40.5h-76v112h219q200 0 312 -81t112 -218q0 -51 -21 -111t-45.5 -106.5t-45.5 -105.5t-21 -107q0 -46 31.5 -64 t115.5 -18v-114q-84 0 -115.5 -18t-31.5 -64q0 -48 21 -107t45.5 -105.5t45.5 -106.5t21 -111q0 -137 -112 -218t-312 -81h-219v112z" />
<glyph unicode="~" d="M53 442q43 171 165 286.5t282 115.5q69 0 135.5 -20.5t110 -45t96.5 -45t98 -20.5q73 0 121 29.5t84 99.5l119 -35q-45 -171 -167 -286t-282 -115q-68 0 -123.5 13.5t-92.5 33t-70.5 38.5t-71.5 32.5t-80 13.5q-73 0 -121 -29.5t-84 -99.5z" />
<glyph unicode="&#xa1;" horiz-adv-x="591" d="M-59 -123l303 780h133l26 -780q4 -135 -73 -210t-197 -75q-116 0 -176 80.5t-16 204.5zM109 915q0 116 84.5 180t207.5 64q107 0 165.5 -44t58.5 -128q0 -111 -82.5 -175t-216.5 -64q-103 0 -160 44t-57 123z" />
<glyph unicode="&#xa2;" d="M63 420q0 159 47.5 287t133 213t197 135t245.5 63l49 279h148l-49 -275q72 -3 138.5 -14.5t111 -26t78.5 -28.5t50 -23l15 -10l-176 -432q-17 69 -39.5 127t-52.5 110t-69.5 81.5t-84.5 29.5q-65 0 -113 -42.5t-72.5 -108.5t-35.5 -130t-11 -123q0 -198 201 -198 q115 0 289 55v-307q-257 -90 -430 -98l-43 -256h-148l43 258q-207 19 -314.5 131.5t-107.5 302.5z" />
<glyph unicode="&#xa3;" d="M-45 0l18 115h68q120 0 206.5 92.5t86.5 238.5q0 35 -7 68t-13 48l-7 16h-239l22 124h178q-96 190 -96 342q0 122 47.5 218t132 156t196 91t243.5 31q92 0 183 -10.5t154 -25.5t113.5 -30t74.5 -26l25 -10l-151 -514q-45 180 -152 293.5t-243 113.5q-86 0 -134.5 -56.5 t-48.5 -168.5q0 -55 19 -112.5t51.5 -136.5t50.5 -148h332l-23 -127h-280q2 -21 2 -50q0 -54 -14 -106.5t-45 -106.5t-88 -103.5t-136 -86.5l150 14q130 12 276.5 104.5t278.5 280.5l-17 -475q-14 -6 -40.5 -15t-119.5 -23.5t-198 -14.5h-856z" />
<glyph unicode="&#xa5;" d="M31 451l22 120h377l27 152h-377l20 121h332l-149 553h-97l23 127h692l-22 -127h-93l74 -432l201 432h-98l22 127h434l-22 -127h-94l-312 -553h301l-20 -121h-348l-27 -152h348l-22 -120h-349l-57 -326h139l-20 -125h-758l21 125h151l58 326h-377z" />
<glyph unicode="&#xa6;" horiz-adv-x="552" d="M139 -375v824h275v-824h-275zM139 809v811h275v-811h-275z" />
<glyph unicode="&#xa7;" d="M-74 -291l180 475q16 -81 41 -148t63.5 -127t96.5 -94t129 -34q103 0 153.5 65.5t76.5 212.5l20 119q-96 -24 -205 -24q-145 0 -246.5 69.5t-140.5 184t-14 251.5l65 377q20 116 70.5 206.5t135 157.5t209.5 102.5t286 35.5q93 0 180.5 -12.5t146 -30t104 -34.5t66.5 -29 l21 -13l-178 -475q-12 64 -29.5 119t-45.5 109t-62.5 91.5t-83.5 61t-107 23.5q-103 0 -153 -66t-76 -213l-23 -121q86 27 205 27q109 0 195.5 -40.5t135.5 -109.5t70 -161t0 -195l-65 -377q-42 -238 -214 -370t-489 -132q-93 0 -180.5 12.5t-146 30t-104 34.5t-66.5 29z M530 436.5q1 -63.5 36 -100.5t106 -37l35 2l43 244q14 84 13 147.5t-36 100t-106 36.5l-35 -2l-43 -243q-14 -84 -13 -147.5z" />
<glyph unicode="&#xa8;" horiz-adv-x="1024" d="M154 1391q0 114 82 177.5t198 63.5q105 0 161 -44t56 -128q0 -109 -79 -173t-207 -64q-101 0 -156 44t-55 124zM682 1391q0 114 82 177.5t199 63.5q105 0 161 -44t56 -128q0 -109 -79.5 -173t-207.5 -64q-101 0 -156 44t-55 124z" />
<glyph unicode="&#xa9;" horiz-adv-x="1957" d="M152 752q0 172 63.5 322t171.5 253.5t255.5 163t311.5 59.5q163 0 309.5 -58.5t255 -161.5t172.5 -253.5t64 -324.5q0 -171 -64 -321t-172 -255.5t-255.5 -166t-309.5 -60.5q-164 0 -311.5 60.5t-255.5 166t-171.5 255.5t-63.5 321zM369 752q0 -132 44.5 -244.5 t122.5 -191t186 -122.5t232 -44q163 0 295.5 75.5t209.5 213.5t77 313q0 136 -45 249t-123 189.5t-184.5 119t-229.5 42.5q-124 0 -232 -43t-186 -120t-122.5 -190t-44.5 -247zM532 756q0 209 119 318.5t318 109.5q91 0 172.5 -19.5t116.5 -38.5l36 -20l-82 -326 q-24 55 -45 95.5t-48.5 81.5t-58 63t-61.5 22q-61 0 -90.5 -52.5t-29.5 -174.5q0 -225 170 -225q61 0 127 18l73 21l41 -232l-76 -26q-75 -25 -132.5 -36t-135.5 -11q-204 0 -309 112.5t-105 319.5z" />
<glyph unicode="&#xaa;" d="M211 899q0 59 23 101.5t69.5 69t103.5 42t138 25.5l149 18v12q0 60 -32 86.5t-101 26.5q-94 0 -225 -39l-74 -20l-41 239l84 23q196 55 363 55q188 0 286.5 -74.5t98.5 -236.5v-416l82 -37l-25 -90l-160 41q-56 16 -127 2l-82 -18q-134 -29 -227 -29q-303 0 -303 219z M584 909q0 -58 16.5 -81t46.5 -23q23 0 37 4l10 2v240l-28 -7q-38 -6 -60 -33.5t-22 -101.5z" />
<glyph unicode="&#xab;" horiz-adv-x="1316" d="M109 590l579 491l123 -110l-301 -389l164 -392l-160 -90zM625 590l538 491l123 -110l-280 -389l143 -392l-160 -90z" />
<glyph unicode="&#xac;" d="M123 696v248h1044v-647h-278v399h-766z" />
<glyph unicode="&#xad;" horiz-adv-x="927" d="M96 518l45 250h723l-45 -250h-723z" />
<glyph unicode="&#xae;" horiz-adv-x="1957" d="M152 752q0 172 63.5 322t171.5 253.5t255.5 163t311.5 59.5q163 0 309.5 -58.5t255 -161.5t172.5 -253.5t64 -324.5q0 -171 -64 -321t-172 -255.5t-255.5 -166t-309.5 -60.5q-164 0 -311.5 60.5t-255.5 166t-171.5 255.5t-63.5 321zM369 752q0 -132 44.5 -244.5 t122.5 -191t186 -122.5t232 -44q163 0 295.5 75.5t209.5 213.5t77 313q0 136 -45 249t-123 189.5t-184.5 119t-229.5 42.5q-124 0 -232 -43t-186 -120t-122.5 -190t-44.5 -247zM553 342v92h82v643h-82v94h532q106 0 174 -53.5t68 -154.5q0 -96 -59 -175l-58 -81l74 -205 q25 -68 84 -68v-92h-164q-71 0 -120.5 39.5t-73.5 107.5l-62 187h-35v-242h78v-92h-438zM913 774h70l31 47q23 34 31 64.5t8 75.5q0 65 -25 90.5t-70 25.5h-45v-303z" />
<glyph unicode="&#xaf;" horiz-adv-x="1024" d="M270 1268l52 291h737l-51 -291h-738z" />
<glyph unicode="&#xb0;" horiz-adv-x="995" d="M211 1157q0 177 109 292.5t290 115.5q180 0 285.5 -115t105.5 -293q0 -180 -107.5 -293.5t-287.5 -113.5q-182 0 -288.5 114t-106.5 293zM440 1157q0 -88 45 -141t123 -53q80 0 124 53t44 141q0 85 -46 138t-124 53q-80 0 -123 -52.5t-43 -138.5z" />
<glyph unicode="&#xb1;" d="M123 0v233h1044v-233h-1044zM123 594v246h379v284h278v-284h387v-246h-387v-275h-278v275h-379z" />
<glyph unicode="&#xb4;" horiz-adv-x="1024" d="M348 1323l344 274q72 58 160 58q80 0 131 -49.5t51 -135.5q0 -93 -55.5 -151t-165.5 -68l-426 -39z" />
<glyph unicode="&#xb6;" horiz-adv-x="1320" d="M61 985q0 113 33.5 209.5t98.5 171t169 116.5t236 42h604v-1905h-254v1671h-186v-1671h-264v836q-142 17 -242.5 92.5t-147.5 187t-47 250.5z" />
<glyph unicode="&#xb7;" horiz-adv-x="716" d="M109 582q0 120 85.5 187t208.5 67q108 0 167 -46.5t59 -134.5q0 -115 -83 -182t-218 -67q-105 0 -162 45.5t-57 130.5z" />
<glyph unicode="&#xb8;" horiz-adv-x="1024" d="M47 -383l59 156q4 -2 21.5 -10.5t23 -11.5t22 -10t25.5 -10t25 -8t28.5 -7t29.5 -3.5t34 -1.5q101 0 101 47q0 43 -105 43q-53 0 -116 -8l-11 23l127 184h170l-65 -98q38 1 77 1t75 -9t64 -24t45 -45t17 -71q0 -93 -93 -149t-259 -56q-68 0 -148.5 18t-146.5 50z" />
<glyph unicode="&#xba;" d="M162 1110q0 195 131 312.5t354 117.5q218 0 348.5 -115t130.5 -309q0 -198 -131 -314t-354 -116q-218 0 -348.5 115.5t-130.5 308.5zM547 1112q0 -170 21.5 -251t84.5 -81q20 0 35 9.5t24.5 31t15.5 46t8.5 66.5t3.5 80t1 97q0 173 -20.5 253.5t-83.5 80.5 q-58 0 -74 -76.5t-16 -255.5z" />
<glyph unicode="&#xbb;" horiz-adv-x="1316" d="M45 211l279 391l-142 389l160 90l363 -491l-537 -490zM520 211l299 391l-162 389l160 90l404 -491l-578 -490z" />
<glyph unicode="&#xbf;" horiz-adv-x="1032" d="M-82 -45q0 127 61.5 221t202.5 162l219 106l117 224h152l10 -140q10 -140 -78 -206l-127 -97q-51 -38 -70.5 -72.5t-19.5 -86.5q0 -47 28.5 -80t86.5 -33q93 0 219 37l127 39l55 -303l-135 -45q-79 -28 -192.5 -50t-206.5 -22q-220 0 -334.5 89t-114.5 257zM377 922 q0 116 85 179.5t208 63.5q107 0 165 -44t58 -128q0 -111 -82.5 -175t-216.5 -64q-103 0 -160 44t-57 124z" />
<glyph unicode="&#xc0;" horiz-adv-x="1759" d="M-51 0l18 127h135l635 1268h-155l20 129h457q241 0 280 -211l201 -1186h127l-18 -127h-824l19 127h145l-35 264h-465l-127 -264h138l-19 -127h-532zM551 530h389l-88 623zM653 1817q0 98 64 153t155 55q89 0 152 -57l297 -274l-53 -111l-422 39q-96 9 -144.5 60 t-48.5 135z" />
<glyph unicode="&#xc1;" horiz-adv-x="1759" d="M-51 0l18 127h135l635 1268h-155l20 129h457q241 0 280 -211l201 -1186h127l-18 -127h-824l19 127h145l-35 264h-465l-127 -264h138l-19 -127h-532zM551 530h389l-88 623zM678 1694l344 274q71 57 160 57q80 0 131 -49t51 -135q0 -93 -55.5 -151t-165.5 -68l-426 -39z " />
<glyph unicode="&#xc2;" horiz-adv-x="1759" d="M-51 0l18 127h135l635 1268h-155l20 129h457q241 0 280 -211l201 -1186h127l-18 -127h-824l19 127h145l-35 264h-465l-127 -264h138l-19 -127h-532zM545 1700l508 354l381 -352l-60 -111l-366 131l-424 -133zM551 530h389l-88 623z" />
<glyph unicode="&#xc3;" horiz-adv-x="1759" d="M-51 0l18 127h135l635 1268h-155l20 129h457q241 0 280 -211l201 -1186h127l-18 -127h-824l19 127h145l-35 264h-465l-127 -264h138l-19 -127h-532zM532 1620q40 169 143 284t234 115q56 0 106.5 -20.5t81.5 -45t71 -45t77 -20.5q57 0 94 28.5t76 100.5l113 -35 q-41 -170 -145 -284.5t-234 -114.5q-55 0 -98 13.5t-70 32.5t-50.5 38.5t-52.5 33t-63 13.5q-57 0 -94 -28.5t-76 -100.5zM551 530h389l-88 623z" />
<glyph unicode="&#xc4;" horiz-adv-x="1759" d="M-51 0l18 127h135l635 1268h-155l20 129h457q241 0 280 -211l201 -1186h127l-18 -127h-824l19 127h145l-35 264h-465l-127 -264h138l-19 -127h-532zM498 1755q0 114 82 178t198 64q105 0 161 -44t56 -128q0 -109 -79 -173.5t-207 -64.5q-101 0 -156 44t-55 124zM551 530 h389l-88 623zM1026 1755q0 114 82.5 178t198.5 64q105 0 161 -44t56 -128q0 -109 -79.5 -173.5t-207.5 -64.5q-101 0 -156 44t-55 124z" />
<glyph unicode="&#xc5;" horiz-adv-x="1759" d="M-51 0l18 127h135l684 1348q-41 53 -41 124q0 137 103.5 220.5t257.5 83.5q134 0 205 -58.5t71 -156.5q0 -126 -84 -207l242 -1354h127l-18 -127h-824l19 127h145l-35 264h-465l-127 -264h138l-19 -127h-532zM551 530h389l-88 623zM961 1628q0 -33 23 -51t67 -18 q54 0 86 28.5t32 73.5q0 32 -23.5 51t-66.5 19q-46 0 -82 -27t-36 -76z" />
<glyph unicode="&#xc6;" horiz-adv-x="2344" d="M-66 0l21 127h137l770 1268h-155l22 129h1419q81 0 150 -6t98 -12l29 -7l-111 -424q-36 65 -76.5 118.5t-93 101.5t-117 75t-133.5 27h-141l-98 -559h254l30 182h144l-86 -488h-144l31 173h-254l-102 -578h168q242 0 534 322l-39 -424q-102 -25 -284 -25h-1073l20 127 h154l47 264h-553l-156 -264h137l-20 -127h-529zM580 530h499l154 865h-143z" />
<glyph unicode="&#xc7;" horiz-adv-x="1441" d="M61 592q0 223 72.5 403t199 297t295.5 179.5t365 62.5q99 0 188.5 -10.5t147.5 -25.5t101.5 -30t63.5 -26l19 -10l-202 -523q-20 66 -38 113t-50 105t-68 94t-91 61t-120 25q-61 0 -114.5 -26.5t-91.5 -72.5t-68 -105t-48 -126.5t-27 -134.5t-9 -131q0 -338 313 -338 q133 0 391 73v-352q-191 -70 -320 -95.5t-251 -23.5q-305 0 -481.5 161.5t-176.5 455.5zM348 -395l60 155l19 -9.5t20.5 -10t19.5 -9t21.5 -9t21 -7.5t24 -7t24.5 -4.5t28.5 -3.5t29.5 -1q101 0 101 47q0 43 -105 43q-53 0 -116 -8l-11 22l127 185h170l-65 -99q38 1 77 1 t75 -9t64 -24t45 -44.5t17 -70.5q0 -93 -93 -149t-259 -56q-68 0 -148.5 18t-146.5 50z" />
<glyph unicode="&#xc8;" horiz-adv-x="1462" d="M-51 0l20 127h154l225 1268h-153l22 129h1030q81 0 150 -6t98 -12l29 -7l-92 -424q-36 65 -76.5 118.5t-93 101.5t-117 75t-133.5 27h-142l-98 -559h254l31 182h143l-86 -488h-143l30 173h-253l-103 -578h168q243 0 535 322l-39 -424q-103 -25 -285 -25h-1075zM508 1817 q0 98 64 153t155 55q89 0 152 -57l297 -274l-54 -111l-422 39q-96 9 -144 60t-48 135z" />
<glyph unicode="&#xc9;" horiz-adv-x="1462" d="M-51 0l20 127h154l225 1268h-153l22 129h1030q81 0 150 -6t98 -12l29 -7l-92 -424q-36 65 -76.5 118.5t-93 101.5t-117 75t-133.5 27h-142l-98 -559h254l31 182h143l-86 -488h-143l30 173h-253l-103 -578h168q243 0 535 322l-39 -424q-103 -25 -285 -25h-1075zM600 1694 l344 274q71 57 160 57q80 0 131 -49t51 -135q0 -93 -55.5 -151t-165.5 -68l-426 -39z" />
<glyph unicode="&#xca;" horiz-adv-x="1462" d="M-51 0l20 127h154l225 1268h-153l22 129h1030q81 0 150 -6t98 -12l29 -7l-92 -424q-36 65 -76.5 118.5t-93 101.5t-117 75t-133.5 27h-142l-98 -559h254l31 182h143l-86 -488h-143l30 173h-253l-103 -578h168q243 0 535 322l-39 -424q-103 -25 -285 -25h-1075zM457 1700 l508 354l381 -352l-60 -111l-366 131l-424 -133z" />
<glyph unicode="&#xcb;" horiz-adv-x="1462" d="M-51 0l20 127h154l225 1268h-153l22 129h1030q81 0 150 -6t98 -12l29 -7l-92 -424q-36 65 -76.5 118.5t-93 101.5t-117 75t-133.5 27h-142l-98 -559h254l31 182h143l-86 -488h-143l30 173h-253l-103 -578h168q243 0 535 322l-39 -424q-103 -25 -285 -25h-1075zM383 1755 q0 114 82.5 178t198.5 64q105 0 161 -44t56 -128q0 -109 -79.5 -173.5t-207.5 -64.5q-101 0 -156 44t-55 124zM911 1755q0 114 82.5 178t198.5 64q105 0 161 -44t56 -128q0 -109 -79.5 -173.5t-207.5 -64.5q-101 0 -156 44t-55 124z" />
<glyph unicode="&#xcc;" horiz-adv-x="927" d="M-51 0l20 127h154l225 1268h-153l22 129h844l-23 -129h-153l-226 -1268h154l-20 -127h-844zM291 1817q0 98 64 153t155 55q89 0 152 -57l296 -274l-53 -111l-422 39q-96 9 -144 60t-48 135z" />
<glyph unicode="&#xcd;" horiz-adv-x="927" d="M-51 0l20 127h154l225 1268h-153l22 129h844l-23 -129h-153l-226 -1268h154l-20 -127h-844zM309 1694l344 274q71 57 160 57q80 0 131 -49t51 -135q0 -93 -55.5 -151t-165.5 -68l-426 -39z" />
<glyph unicode="&#xce;" horiz-adv-x="927" d="M-51 0l20 127h154l225 1268h-153l22 129h844l-23 -129h-153l-226 -1268h154l-20 -127h-844zM207 1700l508 354l381 -352l-60 -111l-366 131l-424 -133z" />
<glyph unicode="&#xcf;" horiz-adv-x="927" d="M-51 0l20 127h154l225 1268h-153l22 129h844l-23 -129h-153l-226 -1268h154l-20 -127h-844zM150 1755q0 114 82 178t198 64q105 0 161 -44t56 -128q0 -109 -79.5 -173.5t-207.5 -64.5q-101 0 -155.5 44t-54.5 124zM678 1755q0 114 82 178t198 64q105 0 161.5 -44 t56.5 -128q0 -109 -79.5 -173.5t-207.5 -64.5q-101 0 -156 44t-55 124z" />
<glyph unicode="&#xd0;" horiz-adv-x="1667" d="M-51 0l20 127h154l102 582h-143l22 137h146l98 551h-153l22 127h793q146 0 264.5 -34.5t207 -104t137 -183.5t48.5 -264q0 -198 -66.5 -370t-186 -298t-297.5 -198t-390 -72h-778zM645 119h90q97 0 179 98t132.5 249.5t78.5 320.5t28 323q0 149 -49.5 220t-151.5 71h-82 l-98 -555h203l-23 -137h-204z" />
<glyph unicode="&#xd1;" horiz-adv-x="1679" d="M-51 0l20 127h154l225 1268h-153l22 129h535q120 0 185 -55t89 -160l229 -811l160 897h-149l22 129h535l-23 -127h-133l-209 -1186q-41 -231 -344 -231q-137 0 -209 54t-102 167l-256 891l-168 -963h129l-23 -129h-536zM557 1620q40 169 143 284t234 115 q56 0 106.5 -20.5t81.5 -45t71 -45t77 -20.5q57 0 94 28.5t76 100.5l112 -35q-42 -170 -145 -284.5t-233 -114.5q-55 0 -98 13.5t-70 32.5t-50.5 38.5t-52.5 33t-63 13.5q-57 0 -94 -28.5t-76 -100.5z" />
<glyph unicode="&#xd2;" horiz-adv-x="1712" d="M61 606q0 192 71.5 363t197 295.5t305.5 197t387 72.5q205 0 359 -71t242.5 -213t88.5 -339q0 -192 -71.5 -363t-196.5 -295t-305 -196.5t-387 -72.5q-205 0 -359.5 70.5t-243 212.5t-88.5 339zM598 410q0 -289 178 -289q77 0 144 68.5t113 176.5t79 241t48.5 261.5 t15.5 239.5q0 289 -179 289q-77 0 -144 -68.5t-112.5 -176.5t-78.5 -241t-48.5 -261.5t-15.5 -239.5zM672 1817q0 98 64 153t155 55q88 0 151 -57l297 -274l-53 -111l-422 39q-96 9 -144 60t-48 135z" />
<glyph unicode="&#xd3;" horiz-adv-x="1712" d="M61 606q0 192 71.5 363t197 295.5t305.5 197t387 72.5q205 0 359 -71t242.5 -213t88.5 -339q0 -192 -71.5 -363t-196.5 -295t-305 -196.5t-387 -72.5q-205 0 -359.5 70.5t-243 212.5t-88.5 339zM598 410q0 -289 178 -289q77 0 144 68.5t113 176.5t79 241t48.5 261.5 t15.5 239.5q0 289 -179 289q-77 0 -144 -68.5t-112.5 -176.5t-78.5 -241t-48.5 -261.5t-15.5 -239.5zM762 1694l344 274q71 57 160 57q80 0 131 -49t51 -135q0 -93 -55.5 -151t-165.5 -68l-426 -39z" />
<glyph unicode="&#xd4;" horiz-adv-x="1712" d="M61 606q0 192 71.5 363t197 295.5t305.5 197t387 72.5q205 0 359 -71t242.5 -213t88.5 -339q0 -192 -71.5 -363t-196.5 -295t-305 -196.5t-387 -72.5q-205 0 -359.5 70.5t-243 212.5t-88.5 339zM592 1700l508 354l381 -352l-60 -111l-366 131l-424 -133zM598 410 q0 -289 178 -289q77 0 144 68.5t113 176.5t79 241t48.5 261.5t15.5 239.5q0 289 -179 289q-77 0 -144 -68.5t-112.5 -176.5t-78.5 -241t-48.5 -261.5t-15.5 -239.5z" />
<glyph unicode="&#xd5;" horiz-adv-x="1712" d="M61 606q0 192 71.5 363t197 295.5t305.5 197t387 72.5q205 0 359 -71t242.5 -213t88.5 -339q0 -192 -71.5 -363t-196.5 -295t-305 -196.5t-387 -72.5q-205 0 -359.5 70.5t-243 212.5t-88.5 339zM565 1620q40 169 143 284t234 115q56 0 106.5 -20.5t81.5 -45t71 -45 t77 -20.5q57 0 94 28.5t76 100.5l113 -35q-41 -170 -145 -284.5t-234 -114.5q-55 0 -98 13.5t-70 32.5t-50.5 38.5t-52.5 33t-63 13.5q-57 0 -94 -28.5t-76 -100.5zM598 410q0 -289 178 -289q77 0 144 68.5t113 176.5t79 241t48.5 261.5t15.5 239.5q0 289 -179 289 q-77 0 -144 -68.5t-112.5 -176.5t-78.5 -241t-48.5 -261.5t-15.5 -239.5z" />
<glyph unicode="&#xd6;" horiz-adv-x="1712" d="M61 606q0 192 71.5 363t197 295.5t305.5 197t387 72.5q205 0 359 -71t242.5 -213t88.5 -339q0 -192 -71.5 -363t-196.5 -295t-305 -196.5t-387 -72.5q-205 0 -359.5 70.5t-243 212.5t-88.5 339zM561 1755q0 114 82.5 178t198.5 64q105 0 161 -44t56 -128 q0 -109 -79.5 -173.5t-207.5 -64.5q-101 0 -156 44t-55 124zM598 410q0 -289 178 -289q77 0 144 68.5t113 176.5t79 241t48.5 261.5t15.5 239.5q0 289 -179 289q-77 0 -144 -68.5t-112.5 -176.5t-78.5 -241t-48.5 -261.5t-15.5 -239.5zM1090 1755q0 114 82 178t198 64 q105 0 161 -44t56 -128q0 -109 -79.5 -173.5t-207.5 -64.5q-101 0 -155.5 44t-54.5 124z" />
<glyph unicode="&#xd7;" d="M139 328l305 309l-305 309l197 197l309 -307l307 307l199 -197l-307 -309l307 -309l-199 -197l-307 305l-309 -305z" />
<glyph unicode="&#xd8;" horiz-adv-x="1705" d="M61 606q0 192 71.5 363t197 295.5t305.5 197t387 72.5q120 0 225 -27l86 129h281l-148 -223q118 -78 182 -205.5t64 -296.5q0 -192 -71.5 -363t-196.5 -295t-305 -196.5t-387 -72.5q-101 0 -211 20l-74 -113h-285l135 205q-123 78 -189.5 207t-66.5 303zM598 526l530 801 q-45 70 -131 70q-75 0 -142.5 -68.5t-112.5 -171t-79 -222t-49.5 -222.5t-15.5 -172v-15zM653 176q43 -55 123 -55q74 0 141.5 66t112.5 165.5t79 215t49.5 216t15.5 168.5v11z" />
<glyph unicode="&#xd9;" horiz-adv-x="1681" d="M193 1395l22 129h832l-23 -129h-143l-152 -860q-27 -143 28 -220t189 -77q127 0 209.5 77.5t108.5 223.5l151 856h-149l22 129h537l-23 -127h-133l-149 -848q-49 -277 -242 -428.5t-485 -151.5q-336 0 -491.5 152t-104.5 434l149 840h-153zM641 1817q0 98 64 153t155 55 q89 0 152 -57l297 -274l-54 -111l-421 39q-96 9 -144.5 60t-48.5 135z" />
<glyph unicode="&#xda;" horiz-adv-x="1681" d="M193 1395l22 129h832l-23 -129h-143l-152 -860q-27 -143 28 -220t189 -77q127 0 209.5 77.5t108.5 223.5l151 856h-149l22 129h537l-23 -127h-133l-149 -848q-49 -277 -242 -428.5t-485 -151.5q-336 0 -491.5 152t-104.5 434l149 840h-153zM750 1694l344 274 q71 57 159 57q80 0 131.5 -49t51.5 -135q0 -93 -56 -151t-166 -68l-426 -39z" />
<glyph unicode="&#xdb;" horiz-adv-x="1681" d="M193 1395l22 129h832l-23 -129h-143l-152 -860q-27 -143 28 -220t189 -77q127 0 209.5 77.5t108.5 223.5l151 856h-149l22 129h537l-23 -127h-133l-149 -848q-49 -277 -242 -428.5t-485 -151.5q-336 0 -491.5 152t-104.5 434l149 840h-153zM596 1700l508 354l381 -352 l-60 -111l-366 131l-424 -133z" />
<glyph unicode="&#xdc;" horiz-adv-x="1681" d="M193 1395l22 129h832l-23 -129h-143l-152 -860q-27 -143 28 -220t189 -77q127 0 209.5 77.5t108.5 223.5l151 856h-149l22 129h537l-23 -127h-133l-149 -848q-49 -277 -242 -428.5t-485 -151.5q-336 0 -491.5 152t-104.5 434l149 840h-153zM557 1755q0 114 82.5 178 t198.5 64q105 0 161 -44t56 -128q0 -109 -79.5 -173.5t-207.5 -64.5q-101 0 -156 44t-55 124zM1085 1755q0 114 82.5 178t198.5 64q105 0 161 -44t56 -128q0 -109 -79.5 -173.5t-207.5 -64.5q-101 0 -156 44t-55 124z" />
<glyph unicode="&#xdd;" horiz-adv-x="1708" d="M184 1395l23 129h850l-23 -129h-127l160 -500l334 500h-135l22 129h563l-22 -129h-146l-553 -738l-94 -530h152l-21 -127h-843l20 125h164l92 514l-278 756h-138zM735 1694l344 274q71 57 160 57q80 0 131 -49t51 -135q0 -93 -55.5 -151t-165.5 -68l-426 -39z" />
<glyph unicode="&#xde;" horiz-adv-x="1499" d="M-51 0l20 127h154l225 1268h-153l22 129h840l-23 -127h-160l-20 -117h147q252 0 385.5 -95.5t133.5 -289.5q0 -135 -52 -241t-146 -172.5t-219 -101t-276 -34.5h-139l-39 -219h160l-21 -127h-839zM711 469h49q44 0 88 31.5t81.5 91t61 157.5t23.5 218q0 192 -129 192h-54 z" />
<glyph unicode="&#xdf;" horiz-adv-x="1343" d="M-195 -410l23 129q131 0 190 60t70 174q5 51 6.5 211.5t16.5 249.5l120 792q16 108 71.5 190.5t138 132t180 74.5t206.5 25q244 0 370 -83t126 -236q0 -128 -48 -212t-132 -155l-111 -94l148 -160q100 -103 100 -252q0 -130 -64.5 -230t-173.5 -153t-243 -53h-221l18 123 h29q24 0 52 11.5t60 37.5t53 79.5t21 125.5q0 89 -41 155l-82 136q-19 32 -15.5 68.5t29.5 68.5l113 137q131 162 131 393q0 79 -27 119.5t-77 40.5q-113 0 -148 -225l-188 -1245q-32 -210 -216 -322.5t-485 -112.5z" />
<glyph unicode="&#xe0;" horiz-adv-x="1353" d="M51 422q0 304 179 492t472 188q80 0 153 -12t105 -24l33 -13l330 112l-184 -1001l123 -49l-37 -119l-144 37q-52 14 -104 14q-60 0 -185.5 -28.5t-242.5 -28.5q-252 0 -375 113t-123 319zM463 1446q0 98 64.5 153.5t154.5 55.5q88 0 152 -58l296 -274l-53 -111l-422 39 q-96 9 -144 60t-48 135zM520 311q0 -182 90 -182q19 0 35 2t23 4l6 2l145 807q-16 8 -53 8q-59 0 -108.5 -70.5t-78 -174.5t-44 -209t-15.5 -187z" />
<glyph unicode="&#xe1;" horiz-adv-x="1353" d="M51 422q0 304 179 492t472 188q80 0 153 -12t105 -24l33 -13l330 112l-184 -1001l123 -49l-37 -119l-144 37q-52 14 -104 14q-60 0 -185.5 -28.5t-242.5 -28.5q-252 0 -375 113t-123 319zM487 1323l344 274q72 58 160 58q80 0 131.5 -49.5t51.5 -135.5q0 -93 -56 -151 t-166 -68l-426 -39zM520 311q0 -182 90 -182q19 0 35 2t23 4l6 2l145 807q-16 8 -53 8q-59 0 -108.5 -70.5t-78 -174.5t-44 -209t-15.5 -187z" />
<glyph unicode="&#xe2;" horiz-adv-x="1353" d="M51 422q0 304 179 492t472 188q80 0 153 -12t105 -24l33 -13l330 112l-184 -1001l123 -49l-37 -119l-144 37q-52 14 -104 14q-60 0 -185.5 -28.5t-242.5 -28.5q-252 0 -375 113t-123 319zM330 1327l508 354l381 -352l-60 -110l-366 131l-424 -133zM520 311 q0 -182 90 -182q19 0 35 2t23 4l6 2l145 807q-16 8 -53 8q-59 0 -108.5 -70.5t-78 -174.5t-44 -209t-15.5 -187z" />
<glyph unicode="&#xe3;" horiz-adv-x="1353" d="M51 422q0 304 179 492t472 188q80 0 153 -12t105 -24l33 -13l330 112l-184 -1001l123 -49l-37 -119l-144 37q-52 14 -104 14q-60 0 -185.5 -28.5t-242.5 -28.5q-252 0 -375 113t-123 319zM305 1231q40 169 143 284t234 115q56 0 106.5 -20.5t81.5 -45t71 -45t77 -20.5 q57 0 94 28.5t76 100.5l112 -35q-42 -170 -145 -284.5t-233 -114.5q-55 0 -98 13.5t-70 33t-50.5 38.5t-52.5 32.5t-63 13.5q-57 0 -94 -28.5t-76 -100.5zM520 311q0 -182 90 -182q19 0 35 2t23 4l6 2l145 807q-16 8 -53 8q-59 0 -108.5 -70.5t-78 -174.5t-44 -209 t-15.5 -187z" />
<glyph unicode="&#xe4;" horiz-adv-x="1353" d="M51 422q0 304 179 492t472 188q80 0 153 -12t105 -24l33 -13l330 112l-184 -1001l123 -49l-37 -119l-144 37q-52 14 -104 14q-60 0 -185.5 -28.5t-242.5 -28.5q-252 0 -375 113t-123 319zM293 1391q0 114 82 177.5t198 63.5q105 0 161.5 -44t56.5 -128q0 -109 -79.5 -173 t-207.5 -64q-101 0 -156 44t-55 124zM520 311q0 -182 90 -182q19 0 35 2t23 4l6 2l145 807q-16 8 -53 8q-59 0 -108.5 -70.5t-78 -174.5t-44 -209t-15.5 -187zM821 1391q0 114 82 177.5t199 63.5q105 0 161 -44t56 -128q0 -109 -79.5 -173t-207.5 -64q-101 0 -156 44 t-55 124z" />
<glyph unicode="&#xe5;" horiz-adv-x="1353" d="M51 422q0 304 179 492t472 188q80 0 153 -12t105 -24l33 -13l330 112l-184 -1001l123 -49l-37 -119l-144 37q-52 14 -104 14q-60 0 -185.5 -28.5t-242.5 -28.5q-252 0 -375 113t-123 319zM500 1413q0 137 102.5 220t253.5 83q132 0 202 -58.5t70 -156.5 q0 -139 -97.5 -220t-264.5 -81q-127 0 -196.5 58.5t-69.5 154.5zM520 311q0 -182 90 -182q19 0 35 2t23 4l6 2l145 807q-16 8 -53 8q-59 0 -108.5 -70.5t-78 -174.5t-44 -209t-15.5 -187zM711 1442q0 -33 23 -51.5t67 -18.5q54 0 86.5 29t32.5 74q0 31 -24 50t-67 19 q-46 0 -82 -26.5t-36 -75.5z" />
<glyph unicode="&#xe6;" horiz-adv-x="1841" d="M-4 240q0 74 25.5 130t66.5 92.5t107 63t132.5 40.5t157.5 26l197 24l2 19q11 72 -25.5 110.5t-117.5 38.5q-132 0 -398 -79v319q195 59 329.5 81.5t258.5 22.5q196 0 279 -77q149 79 333 79q228 0 342.5 -109t114.5 -300q0 -95 -33 -142t-110 -47h-520v-8 q0 -213 223 -213q147 0 334 58v-289q-148 -54 -265.5 -76t-244.5 -22h-27q-176 6 -285 59q-52 24 -151 2l-84 -20q-153 -39 -293 -39q-175 0 -261.5 67.5t-86.5 188.5zM473 244q0 -94 70 -94q31 0 63 8l111 26q-60 89 -60 244l5 49l-44 -6q-21 -3 -43 -14.5t-46.5 -35.5 t-40 -70t-15.5 -107zM1147 659h203q10 47 16.5 84t12 79.5t4.5 73.5t-6.5 57.5t-20 40.5t-37.5 14q-54 0 -98.5 -89.5t-73.5 -259.5z" />
<glyph unicode="&#xe7;" horiz-adv-x="1122" d="M51 420q0 174 53 310.5t146 221t214.5 128.5t262.5 44q76 0 147 -10.5t117.5 -26t82.5 -31t52 -26.5l17 -10l-166 -432q-16 69 -36.5 127t-48.5 110t-65 81.5t-79 29.5q-61 0 -106.5 -42.5t-68.5 -109t-33 -129.5t-10 -123q0 -198 189 -198q107 0 270 55v-307 q-141 -54 -247 -77t-216 -23q-231 0 -353 115.5t-122 322.5zM166 -383l59 156q4 -2 21.5 -10.5t23 -11.5t22 -10t25.5 -10t25 -8t28.5 -7t29.5 -3.5t34 -1.5q101 0 101 47q0 43 -105 43q-54 0 -117 -8l-10 23l127 184h170l-65 -98q38 1 77 1t75 -9t64 -24t45 -45t17 -71 q0 -93 -93 -149t-259 -56q-68 0 -148.5 18t-146.5 50z" />
<glyph unicode="&#xe8;" horiz-adv-x="1234" d="M51 432q0 145 40.5 264t107 198t156.5 133.5t185.5 78.5t196.5 24q228 0 342.5 -109t114.5 -300q0 -95 -33 -142t-110 -47h-521v-8q0 -213 224 -213q146 0 333 58v-289q-149 -54 -266 -76t-243 -22q-261 0 -394 117t-133 333zM414 1446q0 98 64.5 153.5t154.5 55.5 q87 0 151 -58l297 -274l-53 -111l-422 39q-96 9 -144 60t-48 135zM541 659h202q10 47 16.5 84t12 80t5 73.5t-6 57.5t-20 40.5t-37.5 13.5q-54 0 -98.5 -89.5t-73.5 -259.5z" />
<glyph unicode="&#xe9;" horiz-adv-x="1234" d="M51 432q0 145 40.5 264t107 198t156.5 133.5t185.5 78.5t196.5 24q228 0 342.5 -109t114.5 -300q0 -95 -33 -142t-110 -47h-521v-8q0 -213 224 -213q146 0 333 58v-289q-149 -54 -266 -76t-243 -22q-261 0 -394 117t-133 333zM483 1323l344 274q72 58 160 58 q80 0 131 -49.5t51 -135.5q0 -93 -55.5 -151t-165.5 -68l-426 -39zM541 659h202q10 47 16.5 84t12 80t5 73.5t-6 57.5t-20 40.5t-37.5 13.5q-54 0 -98.5 -89.5t-73.5 -259.5z" />
<glyph unicode="&#xea;" horiz-adv-x="1234" d="M51 432q0 145 40.5 264t107 198t156.5 133.5t185.5 78.5t196.5 24q228 0 342.5 -109t114.5 -300q0 -95 -33 -142t-110 -47h-521v-8q0 -213 224 -213q146 0 333 58v-289q-149 -54 -266 -76t-243 -22q-261 0 -394 117t-133 333zM311 1327l508 354l381 -352l-59 -110 l-367 131l-424 -133zM541 659h202q10 47 16.5 84t12 80t5 73.5t-6 57.5t-20 40.5t-37.5 13.5q-54 0 -98.5 -89.5t-73.5 -259.5z" />
<glyph unicode="&#xeb;" horiz-adv-x="1234" d="M51 432q0 145 40.5 264t107 198t156.5 133.5t185.5 78.5t196.5 24q228 0 342.5 -109t114.5 -300q0 -95 -33 -142t-110 -47h-521v-8q0 -213 224 -213q146 0 333 58v-289q-149 -54 -266 -76t-243 -22q-261 0 -394 117t-133 333zM260 1391q0 114 82 177.5t199 63.5 q105 0 161 -44t56 -128q0 -109 -79.5 -173t-207.5 -64q-101 0 -156 44t-55 124zM541 659h202q10 47 16.5 84t12 80t5 73.5t-6 57.5t-20 40.5t-37.5 13.5q-54 0 -98.5 -89.5t-73.5 -259.5zM788 1391q0 114 82 177.5t199 63.5q105 0 161 -44t56 -128q0 -109 -79.5 -173 t-207.5 -64q-101 0 -156 44t-55 124z" />
<glyph unicode="&#xec;" horiz-adv-x="796" d="M105 198q2 47 12 101l129 680h-127l20 123h594l-170 -844l139 47l33 -121l-555 -211q-2 1 -6 4t-15 14.5t-20 26.5t-18.5 42t-13.5 59t-2 79zM154 1446q0 98 64.5 153.5t154.5 55.5q87 0 151 -58l297 -274l-53 -111l-422 39q-96 9 -144 60t-48 135z" />
<glyph unicode="&#xed;" horiz-adv-x="796" d="M105 198q2 47 12 101l129 680h-127l20 123h594l-170 -844l139 47l33 -121l-555 -211q-2 1 -6 4t-15 14.5t-20 26.5t-18.5 42t-13.5 59t-2 79zM233 1323l345 274q72 58 159 58q80 0 131.5 -49.5t51.5 -135.5q0 -93 -56 -151t-166 -68l-426 -39z" />
<glyph unicode="&#xee;" horiz-adv-x="796" d="M66 1327l507 354l381 -352l-59 -110l-367 131l-424 -133zM105 198q2 47 12 101l129 680h-127l20 123h594l-170 -844l139 47l33 -121l-555 -211q-2 1 -6 4t-15 14.5t-20 26.5t-18.5 42t-13.5 59t-2 79z" />
<glyph unicode="&#xef;" horiz-adv-x="796" d="M12 1391q0 114 82 177.5t199 63.5q105 0 161 -44t56 -128q0 -109 -79.5 -173t-207.5 -64q-101 0 -156 44t-55 124zM105 198q2 47 12 101l129 680h-127l20 123h594l-170 -844l139 47l33 -121l-555 -211q-2 1 -6 4t-15 14.5t-20 26.5t-18.5 42t-13.5 59t-2 79zM541 1391 q0 114 82 177.5t198 63.5q105 0 161 -44t56 -128q0 -109 -79 -173t-207 -64q-101 0 -156 44t-55 124z" />
<glyph unicode="&#xf0;" horiz-adv-x="1314" d="M51 432q0 94 22.5 181t73 166t123.5 137t181.5 92t240.5 34q32 0 66.5 -5t52.5 -10l18 -5l15 84q12 76 12 137l-326 -127l25 182l272 105q-46 94 -194 94h-111l19 123h213q252 0 397 -94l287 110l-27 -176l-147 -57q26 -46 37 -107t10 -112.5t-8 -122.5l-80 -588 q-32 -235 -197.5 -360t-445.5 -125q-263 0 -396 122t-133 322zM512 268q0 -77 19.5 -114t64.5 -37q62 0 97.5 89.5t68.5 317.5l49 353q-20 18 -90 18q-50 0 -91.5 -63t-66 -160t-38 -202.5t-13.5 -201.5z" />
<glyph unicode="&#xf1;" horiz-adv-x="1425" d="M72 0l166 948l-123 43l35 123l206 -45q45 -10 86 -10q28 0 103.5 16.5t175 32.5t186.5 16q226 0 332 -105t70 -282l-97 -479l140 47l32 -121l-555 -211q-2 1 -6.5 4t-15.5 14.5t-20 26.5t-18.5 42t-13.5 59t-2 79t13 101l90 446q34 191 -90 191q-21 0 -40.5 -4t-28.5 -8 l-9 -4l-160 -920h-456zM387 1231q40 169 143 284t234 115q56 0 106.5 -20.5t81.5 -45t71 -45t77 -20.5q57 0 94 28.5t76 100.5l112 -35q-42 -170 -145 -284.5t-233 -114.5q-55 0 -98 13.5t-70 33t-50.5 38.5t-52.5 32.5t-63 13.5q-57 0 -94 -28.5t-76 -100.5z" />
<glyph unicode="&#xf2;" horiz-adv-x="1363" d="M51 453q0 189 97.5 344.5t266 243t371.5 87.5q245 0 386 -125.5t141 -338.5q0 -153 -57 -281t-156.5 -214t-234 -133.5t-287.5 -47.5q-246 0 -386.5 125.5t-140.5 339.5zM475 1446q0 98 64.5 153.5t154.5 55.5q88 0 152 -58l297 -274l-53 -111l-422 39q-96 9 -144.5 60 t-48.5 135zM524 274q0 -79 20 -119t66 -40q52 0 97 71t73 180t44 234t16 240q0 79 -20 119t-66 40q-52 0 -97 -71t-73 -180t-44 -234t-16 -240z" />
<glyph unicode="&#xf3;" horiz-adv-x="1363" d="M51 453q0 189 97.5 344.5t266 243t371.5 87.5q245 0 386 -125.5t141 -338.5q0 -153 -57 -281t-156.5 -214t-234 -133.5t-287.5 -47.5q-246 0 -386.5 125.5t-140.5 339.5zM524 274q0 -79 20 -119t66 -40q52 0 97 71t73 180t44 234t16 240q0 79 -20 119t-66 40 q-52 0 -97 -71t-73 -180t-44 -234t-16 -240zM524 1323l344 274q72 58 160 58q80 0 131 -49.5t51 -135.5q0 -93 -55.5 -151t-165.5 -68l-426 -39z" />
<glyph unicode="&#xf4;" horiz-adv-x="1363" d="M51 453q0 189 97.5 344.5t266 243t371.5 87.5q245 0 386 -125.5t141 -338.5q0 -153 -57 -281t-156.5 -214t-234 -133.5t-287.5 -47.5q-246 0 -386.5 125.5t-140.5 339.5zM356 1327l508 354l381 -352l-59 -110l-367 131l-424 -133zM524 274q0 -79 20 -119t66 -40 q52 0 97 71t73 180t44 234t16 240q0 79 -20 119t-66 40q-52 0 -97 -71t-73 -180t-44 -234t-16 -240z" />
<glyph unicode="&#xf5;" horiz-adv-x="1363" d="M51 453q0 189 97.5 344.5t266 243t371.5 87.5q245 0 386 -125.5t141 -338.5q0 -153 -57 -281t-156.5 -214t-234 -133.5t-287.5 -47.5q-246 0 -386.5 125.5t-140.5 339.5zM336 1231q40 169 143 284t234 115q56 0 106.5 -20.5t81.5 -45t71 -45t77 -20.5q57 0 94 28.5 t76 100.5l112 -35q-41 -170 -145 -284.5t-234 -114.5q-55 0 -98 13.5t-70 33t-50.5 38.5t-52.5 32.5t-63 13.5q-57 0 -93.5 -28.5t-75.5 -100.5zM524 274q0 -79 20 -119t66 -40q52 0 97 71t73 180t44 234t16 240q0 79 -20 119t-66 40q-52 0 -97 -71t-73 -180t-44 -234 t-16 -240z" />
<glyph unicode="&#xf6;" horiz-adv-x="1363" d="M51 453q0 189 97.5 344.5t266 243t371.5 87.5q245 0 386 -125.5t141 -338.5q0 -153 -57 -281t-156.5 -214t-234 -133.5t-287.5 -47.5q-246 0 -386.5 125.5t-140.5 339.5zM301 1391q0 114 82 177.5t199 63.5q105 0 161 -44t56 -128q0 -109 -79.5 -173t-207.5 -64 q-101 0 -156 44t-55 124zM524 274q0 -79 20 -119t66 -40q52 0 97 71t73 180t44 234t16 240q0 79 -20 119t-66 40q-52 0 -97 -71t-73 -180t-44 -234t-16 -240zM829 1391q0 114 82 177.5t199 63.5q105 0 161 -44t56 -128q0 -109 -79.5 -173t-207.5 -64q-101 0 -156 44t-55 124 z" />
<glyph unicode="&#xf7;" d="M123 518v248h1044v-248h-1044zM463 240q0 72 48.5 115.5t131.5 43.5q85 0 132.5 -43t47.5 -116q0 -72 -47.5 -115t-132.5 -43q-83 0 -131.5 43.5t-48.5 114.5zM463 1040q0 71 49 115.5t131 44.5q85 0 132.5 -44t47.5 -116t-47.5 -114.5t-132.5 -42.5q-83 0 -131.5 43 t-48.5 114z" />
<glyph unicode="&#xf8;" horiz-adv-x="1363" d="M51 453q0 189 97.5 344.5t266 243t371.5 87.5q76 0 140 -12l63 98h232l-109 -167q97 -60 149 -158t52 -225q0 -153 -57 -281t-156.5 -214t-234 -133.5t-287.5 -47.5q-72 0 -136 12l-67 -109h-236l113 177q-201 125 -201 385zM530 512l291 442q-19 45 -67 45 q-61 0 -115 -91t-81.5 -200.5t-27.5 -187.5v-8zM543 156q21 -41 67 -41q56 0 109.5 90.5t82.5 200t29 184.5v6z" />
<glyph unicode="&#xf9;" horiz-adv-x="1425" d="M41 918l555 210q2 -1 6.5 -4t15.5 -14.5t20 -26t18.5 -41.5t13.5 -59t2 -79t-13 -101l-90 -447q-33 -190 90 -190q21 0 40.5 4t28.5 8l9 4l160 920h457l-166 -948l123 -43l-35 -123l-207 45q-45 10 -86 10q-47 0 -209.5 -33t-255.5 -33q-226 0 -331.5 105.5t-69.5 282.5 l96 479l-139 -47zM442 1446q0 98 64.5 153.5t155.5 55.5q87 0 151 -58l297 -274l-53 -111l-422 39q-96 9 -144.5 60t-48.5 135z" />
<glyph unicode="&#xfa;" horiz-adv-x="1425" d="M41 918l555 210q2 -1 6.5 -4t15.5 -14.5t20 -26t18.5 -41.5t13.5 -59t2 -79t-13 -101l-90 -447q-33 -190 90 -190q21 0 40.5 4t28.5 8l9 4l160 920h457l-166 -948l123 -43l-35 -123l-207 45q-45 10 -86 10q-47 0 -209.5 -33t-255.5 -33q-226 0 -331.5 105.5t-69.5 282.5 l96 479l-139 -47zM528 1323l344 274q72 58 160 58q80 0 131 -49.5t51 -135.5q0 -93 -55.5 -151t-165.5 -68l-426 -39z" />
<glyph unicode="&#xfb;" horiz-adv-x="1425" d="M41 918l555 210q2 -1 6.5 -4t15.5 -14.5t20 -26t18.5 -41.5t13.5 -59t2 -79t-13 -101l-90 -447q-33 -190 90 -190q21 0 40.5 4t28.5 8l9 4l160 920h457l-166 -948l123 -43l-35 -123l-207 45q-45 10 -86 10q-47 0 -209.5 -33t-255.5 -33q-226 0 -331.5 105.5t-69.5 282.5 l96 479l-139 -47zM348 1327l508 354l381 -352l-59 -110l-367 131l-424 -133z" />
<glyph unicode="&#xfc;" horiz-adv-x="1425" d="M41 918l555 210q2 -1 6.5 -4t15.5 -14.5t20 -26t18.5 -41.5t13.5 -59t2 -79t-13 -101l-90 -447q-33 -190 90 -190q21 0 40.5 4t28.5 8l9 4l160 920h457l-166 -948l123 -43l-35 -123l-207 45q-45 10 -86 10q-47 0 -209.5 -33t-255.5 -33q-226 0 -331.5 105.5t-69.5 282.5 l96 479l-139 -47zM311 1391q0 114 82 177.5t199 63.5q105 0 161 -44t56 -128q0 -109 -79.5 -173t-207.5 -64q-101 0 -156 44t-55 124zM840 1391q0 114 82 177.5t198 63.5q105 0 161 -44t56 -128q0 -109 -79 -173t-207 -64q-101 0 -156 44t-55 124z" />
<glyph unicode="&#xfd;" horiz-adv-x="1415" d="M41 918l555 210q2 -1 6.5 -4t15.5 -14.5t20 -26t18.5 -41.5t13.5 -59t2 -79t-13 -101l-94 -418q-39 -190 84 -190q78 0 141 80t97 209.5t33 277.5q-1 91 -13.5 176t-24.5 124l-12 40h504q0 -66 -7 -129t-16.5 -115.5t-29 -109t-35.5 -97.5t-46.5 -94.5t-51 -87t-59 -88 t-61 -84t-67 -88t-67.5 -88.5q-82 -110 -143 -249t-84 -273h-502q98 197 354 417q-43 -10 -76 -10q-96 0 -168 20.5t-116 57t-69 87.5t-26 113t11 132l98 428l-139 -47zM537 1323l344 274q72 58 159 58q80 0 131.5 -49.5t51.5 -135.5q0 -93 -56 -151t-166 -68l-426 -39z" />
<glyph unicode="&#xfe;" horiz-adv-x="1368" d="M-143 -401l22 122h135l312 1776h-138l23 123h598l-90 -506q82 14 133 14q237 0 351 -112.5t114 -315.5q0 -206 -80.5 -368t-232 -254t-349.5 -92q-25 0 -58 3t-53 6l-20 3l-49 -277h146l-23 -122h-741zM549 143q16 -8 53 -8q59 0 109 74.5t78.5 183.5t44.5 217.5 t16 190.5q0 88 -23 132t-75 44q-18 0 -32.5 -2t-19.5 -4l-6 -2z" />
<glyph unicode="&#xff;" horiz-adv-x="1415" d="M41 918l555 210q2 -1 6.5 -4t15.5 -14.5t20 -26t18.5 -41.5t13.5 -59t2 -79t-13 -101l-94 -418q-39 -190 84 -190q78 0 141 80t97 209.5t33 277.5q-1 91 -13.5 176t-24.5 124l-12 40h504q0 -66 -7 -129t-16.5 -115.5t-29 -109t-35.5 -97.5t-46.5 -94.5t-51 -87t-59 -88 t-61 -84t-67 -88t-67.5 -88.5q-82 -110 -143 -249t-84 -273h-502q98 197 354 417q-43 -10 -76 -10q-96 0 -168 20.5t-116 57t-69 87.5t-26 113t11 132l98 428l-139 -47zM330 1391q0 114 82 177.5t198 63.5q105 0 161 -44t56 -128q0 -109 -79 -173t-207 -64q-101 0 -156 44 t-55 124zM858 1391q0 114 82 177.5t199 63.5q105 0 161 -44t56 -128q0 -109 -79.5 -173t-207.5 -64q-101 0 -156 44t-55 124z" />
<glyph unicode="&#x152;" horiz-adv-x="2209" d="M61 586q0 198 66.5 370t186 298t297.5 198t390 72h994q81 0 150 -6t97 -12l29 -7l-110 -424q-36 65 -76.5 118.5t-93 101.5t-117 75t-133.5 27h-142l-98 -559h254l31 182h143l-86 -488h-143l31 173h-254l-103 -578h168q243 0 535 322l-39 -424q-103 -25 -285 -25h-1024 q-147 0 -266.5 34.5t-210.5 104t-141 183.5t-50 264zM575 414q0 -149 49.5 -220t151.5 -71h82l225 1282h-90q-97 0 -179 -98t-132.5 -249.5t-78.5 -320.5t-28 -323z" />
<glyph unicode="&#x153;" horiz-adv-x="2029" d="M51 453q0 189 97.5 344.5t266 243t371.5 87.5q223 0 357 -112q171 114 389 114q228 0 342.5 -109t114.5 -300q0 -94 -33.5 -141.5t-110.5 -47.5h-520v-8q0 -213 223 -213q147 0 334 58v-289q-148 -54 -265.5 -76t-244.5 -22q-251 0 -379 116q-179 -110 -415 -110 q-246 0 -386.5 125.5t-140.5 339.5zM524 274q0 -79 20 -119t66 -40q52 0 97 71t73 180t44 234t16 240q0 79 -20 119t-66 40q-52 0 -97 -71t-73 -180t-44 -234t-16 -240zM1335 659h203q10 47 16.5 84t12 79.5t4.5 73.5t-6.5 57.5t-20 40.5t-37.5 14q-54 0 -98.5 -89.5 t-73.5 -259.5z" />
<glyph unicode="&#x178;" horiz-adv-x="1708" d="M184 1395l23 129h850l-23 -129h-127l160 -500l334 500h-135l22 129h563l-22 -129h-146l-553 -738l-94 -530h152l-21 -127h-843l20 125h164l92 514l-278 756h-138zM553 1755q0 114 82.5 178t198.5 64q105 0 161 -44t56 -128q0 -109 -79.5 -173.5t-207.5 -64.5 q-101 0 -156 44t-55 124zM1081 1755q0 114 82.5 178t198.5 64q105 0 161 -44t56 -128q0 -109 -79.5 -173.5t-207.5 -64.5q-101 0 -156 44t-55 124z" />
<glyph unicode="&#x2c6;" horiz-adv-x="1024" d="M203 1327l508 354l381 -352l-60 -110l-366 131l-424 -133z" />
<glyph unicode="&#x2dc;" horiz-adv-x="1024" d="M188 1243q40 169 143 284t234 115q56 0 106.5 -20.5t81.5 -45t71 -45t77 -20.5q57 0 94 28.5t76 100.5l113 -34q-41 -170 -145 -285t-234 -115q-55 0 -98 13.5t-70 33t-50.5 38.5t-52.5 32.5t-63 13.5q-57 0 -94 -28.5t-76 -100.5z" />
<glyph unicode="&#x2000;" horiz-adv-x="1027" />
<glyph unicode="&#x2001;" horiz-adv-x="2054" />
<glyph unicode="&#x2002;" horiz-adv-x="1027" />
<glyph unicode="&#x2003;" horiz-adv-x="2054" />
<glyph unicode="&#x2004;" horiz-adv-x="684" />
<glyph unicode="&#x2005;" horiz-adv-x="513" />
<glyph unicode="&#x2006;" horiz-adv-x="342" />
<glyph unicode="&#x2007;" horiz-adv-x="342" />
<glyph unicode="&#x2008;" horiz-adv-x="256" />
<glyph unicode="&#x2009;" horiz-adv-x="410" />
<glyph unicode="&#x200a;" horiz-adv-x="114" />
<glyph unicode="&#x2010;" horiz-adv-x="927" d="M96 518l45 250h723l-45 -250h-723z" />
<glyph unicode="&#x2011;" horiz-adv-x="927" d="M96 518l45 250h723l-45 -250h-723z" />
<glyph unicode="&#x2012;" horiz-adv-x="927" d="M96 518l45 250h723l-45 -250h-723z" />
<glyph unicode="&#x2013;" d="M117 518l45 250h1044l-45 -250h-1044z" />
<glyph unicode="&#x2014;" horiz-adv-x="2048" d="M117 518l43 248h1802l-43 -248h-1802z" />
<glyph unicode="&#x2018;" horiz-adv-x="593" d="M168 1139q0 99 68 164l358 350l119 -58l-133 -479q-23 -84 -84.5 -125t-130.5 -41q-83 0 -140 51.5t-57 137.5z" />
<glyph unicode="&#x2019;" horiz-adv-x="593" d="M147 987l134 479q23 84 84.5 125t130.5 41q83 0 139.5 -51t56.5 -137q0 -100 -67 -164l-359 -350z" />
<glyph unicode="&#x201a;" horiz-adv-x="593" d="M-80 -244l133 480q23 84 84.5 124.5t130.5 40.5q83 0 140 -51t57 -137q0 -99 -68 -164l-358 -350z" />
<glyph unicode="&#x201c;" horiz-adv-x="1077" d="M168 1139q0 99 68 164l358 350l119 -58l-133 -479q-23 -84 -84.5 -125t-130.5 -41q-83 0 -140 51.5t-57 137.5zM649 1139q0 99 68 164l358 350l119 -58l-133 -479q-23 -84 -84.5 -125t-130.5 -41q-83 0 -140 51.5t-57 137.5z" />
<glyph unicode="&#x201d;" horiz-adv-x="1077" d="M147 987l134 479q23 84 84.5 125t130.5 41q83 0 139.5 -51t56.5 -137q0 -100 -67 -164l-359 -350zM629 987l133 479q23 84 84.5 125t130.5 41q83 0 140 -51t57 -137q0 -99 -68 -164l-358 -350z" />
<glyph unicode="&#x201e;" horiz-adv-x="1077" d="M-80 -244l133 480q23 84 84.5 124.5t130.5 40.5q83 0 140 -51t57 -137q0 -99 -68 -164l-358 -350zM401 -244l134 480q23 84 84.5 124.5t130.5 40.5q83 0 139.5 -51t56.5 -137q0 -100 -67 -164l-359 -350z" />
<glyph unicode="&#x2022;" horiz-adv-x="915" d="M102 702q0 168 94.5 262.5t260.5 94.5q167 0 261.5 -94.5t94.5 -262.5q0 -170 -94 -263t-262 -93q-167 0 -261 93.5t-94 262.5z" />
<glyph unicode="&#x2026;" horiz-adv-x="1781" d="M-29 158q0 120 86 187t209 67q108 0 167 -46.5t59 -134.5q0 -115 -83 -182t-219 -67q-105 0 -162 45.5t-57 130.5zM565 158q0 120 86 187t209 67q108 0 166.5 -46t58.5 -135q0 -115 -83 -182t-218 -67q-105 0 -162 45.5t-57 130.5zM1159 158q0 120 86 187t209 67 q108 0 166.5 -46t58.5 -135q0 -115 -83 -182t-218 -67q-105 0 -162 45.5t-57 130.5z" />
<glyph unicode="&#x202f;" horiz-adv-x="410" />
<glyph unicode="&#x2039;" horiz-adv-x="841" d="M109 590l579 491l123 -110l-281 -389l144 -392l-160 -90z" />
<glyph unicode="&#x203a;" horiz-adv-x="841" d="M45 211l279 391l-142 389l160 90l403 -491l-577 -490z" />
<glyph unicode="&#x205f;" horiz-adv-x="513" />
<glyph unicode="&#x20ac;" d="M37 571l20 125h179l26 142h-178l20 125h179q27 152 88 264.5t150 180t197 100t238 32.5q76 0 147 -10.5t117.5 -26t82.5 -31t53 -26.5l16 -10l-166 -432q-80 348 -219 348q-42 0 -73.5 -14.5t-63.5 -54.5t-58.5 -119.5t-48.5 -200.5h330l-20 -125h-330l-27 -142h330 l-20 -125h-330q-18 -122 34 -180.5t162 -58.5q131 0 275 53v-305q-259 -98 -473 -98q-272 0 -389.5 156.5t-69.5 432.5h-178z" />
<glyph unicode="&#x2122;" horiz-adv-x="2232" d="M184 1509q66 15 168 15h492q45 0 87 -4t61 -8l20 -3l-21 -282q-103 184 -229 184h-14v-635h83v-112h-475v112h93v635h-15q-119 0 -229 -184zM1098 664v112h88v633h-88v115h311q72 0 117 -31t55 -90l96 -457l115 457q27 121 172 121h289v-115h-88v-633h86v-112h-432v112 h73v502l-123 -496q-26 -118 -159 -118q-128 0 -158 118l-123 498v-504h72v-112h-303z" />
<glyph unicode="&#x25fc;" horiz-adv-x="1105" d="M0 0v1106h1106v-1106h-1106z" />
</font>
</defs>
</svg>
