<?xml version="1.0" standalone="no"?>
<!DOCTYPE svg PUBLIC "-//W3C//DTD SVG 1.1//EN" "http://www.w3.org/Graphics/SVG/1.1/DTD/svg11.dtd" >
<svg xmlns="http://www.w3.org/2000/svg">
<metadata></metadata>
<defs>
<font id="newjuneserifultraboldregular" horiz-adv-x="1290" >
<font-face units-per-em="2048" ascent="1597" descent="-451" />
<missing-glyph horiz-adv-x="450" />
<glyph unicode="&#xfb01;" horiz-adv-x="1716" d="M20 979v123h187v88q0 223 162.5 333.5t535.5 110.5q188 0 363.5 -20.5t255.5 -40.5l82 -21l-123 -432q-98 137 -280.5 239.5t-381.5 102.5q-209 0 -209 -133q0 -45 26 -107.5t30 -119.5h901v-979h127v-123h-729v123h135v856h-430v-854h172v-125h-787v125h150v854h-187z " />
<glyph unicode="&#xfb02;" horiz-adv-x="1697" d="M20 979v123h187v88q0 227 149.5 335.5t520.5 108.5q262 0 495 -63l184 49v-1497h121v-123h-721v123h127v1282q-147 57 -280 57q-186 0 -187 -139q0 -45 24 -104.5t28 -116.5h260v-123h-256v-854h172v-125h-787v125h150v854h-187z" />
<glyph horiz-adv-x="0" />
<glyph unicode="&#xd;" horiz-adv-x="681" />
<glyph unicode=" "  horiz-adv-x="450" />
<glyph unicode="&#x09;" horiz-adv-x="450" />
<glyph unicode="&#xa0;" horiz-adv-x="450" />
<glyph unicode="!" horiz-adv-x="591" d="M41 184q0 96 67.5 151.5t184.5 55.5q121 0 189.5 -55t68.5 -152q0 -92 -68.5 -147t-189.5 -55q-117 0 -184.5 55t-67.5 147zM66 1260q-20 121 48 202.5t183 81.5t184.5 -80t46.5 -204l-163 -785h-134z" />
<glyph unicode="&#x22;" horiz-adv-x="1030" d="M74 1339q-37 117 24.5 199t177.5 82q115 0 179.5 -80t23.5 -201l-135 -389h-133zM549 1339q-37 117 24.5 199t178.5 82q115 0 179 -80t23 -201l-135 -389h-133z" />
<glyph unicode="#" horiz-adv-x="1431" d="M49 387l35 244h225l47 241h-231l37 242h239l78 410h264l-77 -410h233l78 410h266l-78 -410h221l-36 -242h-228l-45 -241h230l-37 -244h-238l-71 -387h-267l74 387h-238l-75 -387h-269l76 387h-213zM573 631h240l45 241h-237z" />
<glyph unicode="$" d="M61 80l95 561q84 -193 219 -326t280 -133q68 0 112 38t44 112q0 61 -40 102t-103.5 65.5t-140 47t-152.5 56.5t-139.5 84t-103.5 141.5t-40 215.5q0 231 133 352.5t357 137.5v244h147v-244q129 -6 251 -30.5t179 -45.5l60 -22l-82 -512q-78 182 -202 294.5t-267 112.5 q-70 0 -111 -37t-41 -110q0 -59 39 -100.5t102.5 -64t139 -44t152.5 -55t140.5 -83t102.5 -138.5t39 -212q0 -236 -137.5 -361.5t-364.5 -141.5v-250h-147v248q-133 6 -263.5 30.5t-193.5 44.5z" />
<glyph unicode="%" horiz-adv-x="1882" d="M41 1155q0 180 117.5 289.5t316.5 109.5q195 0 311.5 -106.5t116.5 -286.5q0 -184 -117.5 -292.5t-314.5 -108.5t-313.5 107.5t-116.5 287.5zM162 0l1198 1524h364l-1196 -1524h-366zM385 1157q0 -158 19.5 -233.5t74.5 -75.5q51 0 65.5 69.5t14.5 235.5 q0 160 -19.5 235.5t-74.5 75.5q-51 0 -65.5 -70.5t-14.5 -236.5zM979 360.5q0 180.5 117.5 290t316.5 109.5q195 0 311.5 -106.5t116.5 -286.5q0 -184 -117.5 -293t-314.5 -109t-313.5 107.5t-116.5 288zM1323 362q0 -158 19.5 -233.5t74.5 -75.5q51 0 65.5 70t14.5 235 q0 160 -19.5 236t-74.5 76q-51 0 -65.5 -71t-14.5 -237z" />
<glyph unicode="&#x26;" horiz-adv-x="1703" d="M61 385q0 262 355 379q-190 203 -191 395q0 184 150.5 286.5t412.5 102.5q543 0 543 -354q0 -86 -39 -156.5t-106.5 -120t-135 -80t-145.5 -55.5l357 -383q109 152 108 389v146h211v-148q0 -328 -188 -528q137 -133 270 -139v-119h-317q-156 0 -259 59q-145 -84 -409 -84 q-309 0 -463 113t-154 297zM537 403q0 -115 59 -184t156 -69q106 -1 174 38l-353 394q-37 -74 -36 -179zM698 1190q0 -147 88 -258q100 100 101 270q0 221 -96 221q-92 0 -93 -233z" />
<glyph unicode="'" horiz-adv-x="552" d="M74 1339q-37 117 24.5 199t177.5 82q115 0 179.5 -80t23.5 -201l-135 -389h-133z" />
<glyph unicode="(" horiz-adv-x="821" d="M61 729q0 215 45.5 377t114 253t167.5 147.5t191.5 73.5t200.5 17v-98q-268 -23 -268 -768q0 -207 19.5 -358.5t46 -229t66.5 -126t69.5 -59.5t66.5 -15v-97q-100 0 -189 17.5t-190.5 75t-172 150.5t-119 258t-48.5 382z" />
<glyph unicode=")" horiz-adv-x="821" d="M41 -57q37 4 66.5 15t69.5 59.5t66.5 126t46 229t19.5 358.5q0 745 -268 768v98q109 0 201 -17t191 -73.5t168 -147.5t114 -253t45 -377q0 -217 -48 -382t-119 -258t-172.5 -150.5t-190.5 -75t-189 -17.5v97z" />
<glyph unicode="*" horiz-adv-x="1214" d="M104 1182q31 100 109 127.5t158 -41.5l157 -142l-90 199q-43 96 9.5 161.5t159 65.5t156.5 -65.5t7 -161.5l-90 -203l164 146q80 70 157.5 42t108.5 -128q33 -102 -12 -171t-152 -59l-194 21l168 -96q92 -55 89 -136.5t-89 -144.5q-82 -63 -164 -40.5t-105 126.5l-45 215 l-43 -215q-20 -104 -103 -127t-165 41q-86 63 -89 144.5t89 136.5l168 96l-195 -21q-106 -10 -151 58.5t-13 171.5z" />
<glyph unicode="+" d="M123 518v248h379v403h280v-403h385v-248h-385v-403h-280v403h-379z" />
<glyph unicode="," horiz-adv-x="593" d="M18 -244l103 480q23 82 80 120.5t125 38.5q90 0 150.5 -53t60.5 -147q0 -84 -56 -142l-336 -354z" />
<glyph unicode="-" horiz-adv-x="927" d="M102 518v250h723v-250h-723z" />
<glyph unicode="." horiz-adv-x="593" d="M41 195q0 100 67.5 158.5t184.5 58.5q123 0 191.5 -58.5t68.5 -158.5q0 -98 -69.5 -155.5t-190.5 -57.5q-117 0 -184.5 58.5t-67.5 154.5z" />
<glyph unicode="/" horiz-adv-x="942" d="M20 0l619 1524h283l-613 -1524h-289z" />
<glyph unicode="0" d="M61 547v432q0 264 155 413.5t435 149.5q289 0 435.5 -148.5t146.5 -420.5v-432q0 -264 -154.5 -414t-435.5 -150q-289 0 -435.5 149t-146.5 421zM539 530q0 -242 21.5 -333t86.5 -91q63 0 85 92t22 332v457q0 242 -21.5 334t-87.5 92q-63 0 -84.5 -93t-21.5 -333v-457z " />
<glyph unicode="1" d="M76 0v127h377v1268h-279v129h748v-1397h323v-127h-1169z" />
<glyph unicode="2" d="M70 1425l145 52q168 61 406 61q283 0 444.5 -109.5t161.5 -326.5q0 -162 -86 -259.5t-318 -240.5l-407 -252h714v117h82v-467h-958q-180 0 -180 164q0 114 90 182l403 297q92 68 131 139.5t39 169.5q0 211 -256 211q-102 0 -194 -26l-156 -43z" />
<glyph unicode="3" d="M47 102l127 523q33 -90 65.5 -157t81 -141.5t113 -114.5t137.5 -40q80 0 129.5 46t49.5 142q0 131 -95 248l-65 82h-217v125h219l51 84q45 74 45 143q0 63 -46 100.5t-128 37.5q-121 0 -227 -31l-156 -43l-61 319l145 52q174 63 422 63q274 0 428 -99.5t154 -293.5 q0 -145 -103 -270l-94 -113l104 -105q111 -111 111 -260q0 -184 -162 -299.5t-461 -115.5q-164 0 -306 29.5t-202 60.5z" />
<glyph unicode="4" d="M23 422q0 49 32 100l453 840q104 182 313 182q256 0 256 -239v-846h178v-142h-178v-190h129v-127h-745v127h139v190h-459q-119 0 -118 105zM205 459h395v735z" />
<glyph unicode="5" d="M47 102l123 492q33 -86 64.5 -151.5t79.5 -131t111.5 -101.5t137.5 -36q106 0 163.5 81t57.5 228q0 309 -249 310q-129 0 -285 -78l-105 -58v867h1039v-467h-119v117h-789v-302q18 12 52 31t140.5 49.5t213.5 30.5q264 0 421 -109.5t157 -357.5q0 -233 -183.5 -382.5 t-503.5 -149.5q-147 0 -278 29.5t-189 60.5z" />
<glyph unicode="6" d="M57 518v502q0 238 158 378t475 140q147 0 281.5 -29.5t195.5 -58.5l62 -31l-117 -475q-150 403 -399 404q-102 0 -141.5 -65.5t-39.5 -213.5v-117q80 20 156 21q281 0 420 -123t139 -352q0 -221 -163.5 -365.5t-450.5 -144.5q-281 0 -428.5 139t-147.5 391zM532 498 q0 -209 24 -291t89 -82q63 0 90 89t27 267q0 166 -37 248t-131 82l-62 -8v-305z" />
<glyph unicode="7" d="M88 1036v488h959q180 0 180 -164q0 -88 -39 -186l-459 -1174h-471l676 1153h-727v-117h-119z" />
<glyph unicode="8" d="M37 395q0 156 113 269l102 100l-94 113q-102 125 -103 266q0 195 153.5 296t428 101t428.5 -101.5t154 -295.5q0 -141 -103 -266l-94 -113l102 -100q113 -113 113 -269q0 -186 -150.5 -300.5t-447.5 -114.5t-449.5 114.5t-152.5 300.5zM520 330q0 -219 119 -219 q59 0 91 57t32 162q0 166 -37 293l-25 86h-118l-25 -86q-37 -127 -37 -293zM524 1202q0 -162 35 -282l23 -86h118l23 86q35 131 35 282q0 209 -119 209q-115 0 -115 -209z" />
<glyph unicode="9" d="M47 1028q0 223 159 366.5t445 143.5q283 0 434.5 -139t151.5 -391v-502q0 -238 -157.5 -378t-475.5 -140q-147 0 -281.5 29.5t-195.5 60.5l-61 28l116 476q150 -403 400 -404q102 0 141 65.5t39 213.5v116q-80 -20 -156 -20q-281 0 -420 123t-139 352zM532 1044 q0 -166 37 -247.5t131 -81.5l62 8v305q0 209 -23.5 291t-89 82t-91.5 -88t-26 -269z" />
<glyph unicode=":" horiz-adv-x="593" d="M41 195q0 100 67.5 158.5t184.5 58.5q123 0 191.5 -58.5t68.5 -158.5q0 -98 -69.5 -155.5t-190.5 -57.5q-117 0 -184.5 58.5t-67.5 154.5zM41 885q0 100 67.5 158.5t184.5 58.5q123 0 191.5 -58.5t68.5 -158.5q0 -98 -69.5 -155.5t-190.5 -57.5q-117 0 -184.5 58.5 t-67.5 154.5z" />
<glyph unicode=";" horiz-adv-x="593" d="M10 -244l103 480q23 82 80 120.5t124 38.5q90 0 150.5 -53t60.5 -147q0 -84 -55 -142l-336 -354zM47 885q0 100 67.5 158.5t184.5 58.5q123 0 191.5 -58.5t68.5 -158.5q0 -98 -69.5 -155.5t-190.5 -57.5q-117 0 -184.5 58.5t-67.5 154.5z" />
<glyph unicode="&#x3c;" d="M123 645q0 164 145 213l899 318v-324l-708 -207l708 -209v-313l-893 309q-152 51 -151 213z" />
<glyph unicode="=" d="M121 332v239h1046v-239h-1046zM121 705v239h1046v-239h-1046z" />
<glyph unicode="&#x3e;" d="M123 123v313l708 209l-708 207v324l899 -318q145 -49 145 -213q0 -162 -151 -213z" />
<glyph unicode="?" horiz-adv-x="1032" d="M12 1423l127 45q170 61 361 62q504 0 504 -385q0 -215 -197 -340l-201 -107l-78 -223h-151l-37 133q-41 127 43 213l111 97q39 39 50 68.5t11 80.5q0 123 -135 123q-96 0 -211 -37l-121 -39zM211 184q0 96 67.5 151.5t184.5 55.5q121 0 189.5 -55t68.5 -152 q0 -92 -68.5 -147t-189.5 -55q-117 0 -184.5 55t-67.5 147z" />
<glyph unicode="@" horiz-adv-x="1957" d="M168 715q0 354 237.5 589.5t591.5 235.5q334 0 541 -192.5t207 -509.5q0 -227 -128 -369.5t-302 -142.5q-49 0 -107.5 18t-85.5 18q-33 0 -110.5 -15t-137.5 -15q-172 0 -259 92t-87 254q0 186 119 318t322 132q29 0 60.5 -5t47.5 -9l19 -4l254 64l-105 -672 q45 -23 74 -23q86 0 151.5 98.5t65.5 258.5q0 236 -142.5 371.5t-396.5 135.5q-270 0 -441 -179t-171 -449q0 -246 136 -397.5t376 -151.5q84 0 230.5 37t220.5 37q82 0 141 -35l123 -72l-78 -156l-119 56q-29 14 -80 14q-47 0 -185 -35t-261 -35q-334 0 -527.5 208 t-193.5 530zM807 659q0 -170 98 -170q37 1 80 15l66 459q-61 12 -80 12q-72 0 -118 -95.5t-46 -220.5z" />
<glyph unicode="A" horiz-adv-x="1763" d="M31 0v127h137l432 1268h-156v129h457q248 0 313 -211l392 -1186h127v-127h-830v127h146l-78 264h-465l-84 -264h137v-127h-528zM545 530h389l-186 623z" />
<glyph unicode="B" horiz-adv-x="1556" d="M41 0v127h154v1270h-154v127h1018q188 0 303 -95.5t115 -267.5q0 -147 -103 -276l-94 -115l119 -115q117 -106 117 -272q0 -176 -124 -279.5t-335 -103.5h-1016zM717 119h123q78 0 126 60.5t48 166.5q0 152 -94 268l-74 88h-129v-583zM717 827h123l61 91q72 135 72 260 q0 102 -43 162.5t-115 60.5h-98v-574z" />
<glyph unicode="C" horiz-adv-x="1439" d="M41 753.5q0 368.5 217 574.5t582 206q156 0 291 -25.5t192 -50.5l55 -26l-129 -523q-41 86 -75.5 143.5t-89 122t-122 98.5t-149.5 34q-266 0 -266 -461q0 -242 100.5 -357.5t280.5 -115.5q115 0 211 28l164 45l65 -352l-154 -53q-180 -66 -399 -66q-352 0 -563 205 t-211 573.5z" />
<glyph unicode="D" horiz-adv-x="1648" d="M41 0v127h154v1270h-154v127h793q166 0 302 -41t243.5 -128t168 -236.5t60.5 -352.5q0 -201 -63.5 -352.5t-175.5 -239.5t-250 -131t-300 -43h-778zM717 119h90q147 0 206.5 153.5t59.5 483.5q0 340 -61.5 492.5t-208.5 152.5h-86v-1282z" />
<glyph unicode="E" horiz-adv-x="1458" d="M41 0v127h154v1268h-154v129h1049q82 0 151.5 -6.5t97.5 -12.5l31 -6l-35 -424q-236 322 -477 322h-141v-559h254v182h143v-488h-143v173h-254v-578h168q242 0 477 322l35 -424q-98 -25 -281 -25h-1075z" />
<glyph unicode="F" horiz-adv-x="1417" d="M41 0v127h154v1270h-154v127h1055q82 0 151.5 -6.5t100.5 -12.5l28 -6l-35 -424q-236 322 -477 322h-141v-588h264v182h143v-487h-143v172h-264v-549h151v-127h-833z" />
<glyph unicode="G" horiz-adv-x="1617" d="M41 754q0 371 222 575.5t609 204.5q168 0 313.5 -25.5t207.5 -52.5l61 -26l-123 -521q-94 178 -205.5 288t-265.5 110q-287 0 -287 -533q0 -330 75 -472t243 -142l80 6v371h-221v131h827v-131h-125v-295q0 -74 -30.5 -114t-108.5 -69q-204 -77 -481 -77h-7 q-381 0 -582.5 198.5t-201.5 573.5z" />
<glyph unicode="H" horiz-adv-x="1802" d="M41 0v127h154v1268h-154v129h821v-129h-133v-549h344v549h-131v129h819v-129h-159v-1268h159v-127h-819v127h131v582h-344v-582h133v-127h-821z" />
<glyph unicode="I" horiz-adv-x="925" d="M41 0v127h154v1268h-154v129h844v-129h-154v-1268h154v-127h-844z" />
<glyph unicode="J" horiz-adv-x="935" d="M31 -264q239 0 239 199q0 78 -32.5 226t-32.5 240v994h-154v129h844v-129h-154v-1319q0 -240 -181 -365t-529 -125v150z" />
<glyph unicode="K" horiz-adv-x="1662" d="M41 0v127h154v1268h-154v129h821v-129h-143v-574l432 576h-154v127h617v-127h-154l-311 -369l299 -743q16 -39 26.5 -58.5t32 -48t49 -41t66.5 -12.5v-125h-358q-139 0 -220 55.5t-133 188.5l-135 346l-20 -25q-41 -59 -41 -157v-281h143v-127h-817z" />
<glyph unicode="L" horiz-adv-x="1447" d="M41 0v127h154v1268h-154v129h842v-129h-154v-1268h156q242 0 477 322l35 -424q-98 -25 -281 -25h-1075z" />
<glyph unicode="M" horiz-adv-x="2123" d="M41 0v127h154v1268h-154v129h551q125 0 205 -55.5t100 -159.5l170 -809l201 809q49 215 305 215h510v-129h-156v-1268h154v-127h-764v129h129v961l-217 -879q-49 -211 -283 -211q-225 0 -280 211l-217 881v-963h129v-129h-537z" />
<glyph unicode="N" horiz-adv-x="1677" d="M41 0v127h154v1268h-154v129h551q223 0 313 -215l357 -811v897h-150v129h535v-127h-134v-1186q0 -231 -309 -231q-137 0 -223 54t-137 167l-395 891v-963h129v-129h-537z" />
<glyph unicode="O" horiz-adv-x="1705" d="M41 762q0 360 229.5 566t587.5 206q360 0 583.5 -203t223.5 -575q0 -367 -231.5 -569.5t-591.5 -202.5q-358 0 -579.5 203.5t-221.5 574.5zM600 766q0 -324 57.5 -484.5t194.5 -160.5q139 0 195.5 156.5t56.5 474.5q0 328 -58.5 486.5t-197.5 158.5t-193.5 -160 t-54.5 -471z" />
<glyph unicode="P" horiz-adv-x="1501" d="M41 0v127h154v1268h-154v129h827q285 0 438.5 -116t153.5 -349q0 -225 -160.5 -347t-439.5 -122h-139v-463h160v-127h-840zM721 713h49q84 0 131 86t47 256q0 348 -174 348h-53v-690z" />
<glyph unicode="Q" horiz-adv-x="1718" d="M41 762q0 360 229.5 566t587.5 206q360 0 583.5 -202t223.5 -574q0 -276 -134 -450.5t-364 -248.5l43 -22q59 -25 115 -25q18 0 36 2q73 11 132 46.5t125 105.5v-377q-92 -16 -175 -16q-54 0 -105 7q-127 17 -242 91l-133 86q-53 35 -134 35q-164 0 -305 47t-249.5 139 t-171 241.5t-62.5 342.5zM600 766q0 -324 57.5 -481.5t194.5 -157.5q139 0 195.5 153.5t56.5 471.5q0 328 -58.5 486.5t-197.5 158.5t-193.5 -160t-54.5 -471z" />
<glyph unicode="R" horiz-adv-x="1609" d="M41 0v127h154v1268h-154v129h991q197 0 316.5 -100.5t119.5 -288.5q0 -172 -108 -318l-107 -145l160 -422q51 -127 156 -127v-123h-305q-139 0 -218 54.5t-124 174.5l-144 410h-61v-512h143v-127h-819zM717 768h108l60 100q74 139 73 289q0 240 -161 240h-80v-629z" />
<glyph unicode="S" horiz-adv-x="1386" d="M61 80l103 561q92 -193 237.5 -326t300.5 -133q76 0 123 38t47 112q0 61 -43 102t-111.5 65.5t-151.5 47t-166 56.5t-151.5 84t-111.5 141.5t-43 215.5q0 168 86 282t221.5 162t313.5 48q158 0 307 -24.5t219 -49.5l70 -26l-88 -512q-84 182 -218.5 294.5t-287.5 112.5 q-76 0 -120 -37t-44 -110q0 -59 43 -100.5t110.5 -64t150.5 -44t165 -55t149.5 -83t110.5 -138.5t43 -212q0 -252 -179 -379.5t-456 -127.5q-164 0 -320.5 25.5t-232.5 49.5z" />
<glyph unicode="T" horiz-adv-x="1546" d="M41 1499q115 25 297 25h870q82 0 156 -6.5t106 -12.5l35 -6l-35 -430q-188 328 -407 328h-27v-1270h152v-127h-844v127h164v1270h-25q-213 0 -407 -328z" />
<glyph unicode="U" horiz-adv-x="1681" d="M41 1395v129h831v-129h-143v-860q0 -143 68.5 -220t201.5 -77q127 0 196 77.5t69 223.5v856h-150v129h537v-127h-133v-848q0 -274 -174.5 -427t-466.5 -153q-336 0 -509 143.5t-173 426.5v856h-154z" />
<glyph unicode="V" horiz-adv-x="1718" d="M31 1395v129h837v-129h-145l287 -979l282 979h-137v129h533v-129h-138l-370 -1200q-57 -211 -322 -211q-258 0 -313 211l-387 1200h-127z" />
<glyph unicode="W" horiz-adv-x="2271" d="M31 1395v129h776v-129h-125l111 -961l198 879q49 211 283 211q113 0 187.5 -53.5t92.5 -157.5l162 -881l123 963h-117v129h519v-129h-136l-215 -1219q-35 -196 -290 -196h-3q-242 0 -284 196l-174 807l-189 -805q-25 -104 -90 -150t-192 -46q-119 0 -197 50t-94 146 l-213 1217h-133z" />
<glyph unicode="X" horiz-adv-x="1652" d="M41 0v129h145l353 604l-361 662h-137v129h856v-129h-127l207 -430l213 430h-135v129h557v-129h-146l-342 -600l349 -666h137v-129h-856v129h129l-199 436l-221 -436h137v-129h-559z" />
<glyph unicode="Y" horiz-adv-x="1705" d="M31 1395v129h856v-129h-127l248 -500l245 500h-135v129h557v-129h-145l-422 -738v-530h152v-127h-844v125h164v514l-412 756h-137z" />
<glyph unicode="Z" horiz-adv-x="1445" d="M61 135q0 78 41 133l744 1129h-244q-244 -2 -477 -322l-35 424q98 25 281 25h866q55 0 97 -38t42 -97q0 -70 -41 -134l-745 -1128h282q242 0 478 322l34 -424q-98 -25 -280 -25h-903q-55 0 -97.5 38t-42.5 97z" />
<glyph unicode="[" horiz-adv-x="774" d="M82 -135v1732h651v-118h-198v-1499h198v-115h-651z" />
<glyph unicode="\" horiz-adv-x="942" d="M20 1524h283l619 -1524h-289z" />
<glyph unicode="]" horiz-adv-x="774" d="M41 -20h199v1499h-199v118h651v-1732h-651v115z" />
<glyph unicode="^" d="M119 119l315 901q53 147 209 147q158 0 209 -145l319 -903h-321l-207 692l-209 -692h-315z" />
<glyph unicode="_" horiz-adv-x="1024" d="M-4 -170h1032v-154h-1032v154z" />
<glyph unicode="`" horiz-adv-x="1024" d="M143 1462q0 88 56.5 140.5t138.5 52.5q88 0 158 -58l329 -274l-41 -111l-426 39q-104 8 -159.5 66.5t-55.5 144.5z" />
<glyph unicode="a" horiz-adv-x="1263" d="M51 276q0 152 107.5 220.5t320.5 95.5l191 24v19q0 80 -41 114.5t-129 34.5q-111 0 -289 -51l-94 -28l-54 319l107 31q253 73 459 73h6q494 0 493 -415v-555l105 -47l-31 -121l-205 53q-40 14 -84 14q-37 0 -77 -10l-105 -24q-166 -39 -293 -39q-387 0 -387 292zM528 291 q0 -141 80 -141q22 0 47 6l15 4v317l-37 -6q-104 -16 -105 -180z" />
<glyph unicode="b" horiz-adv-x="1370" d="M31 1497v123h598v-506q78 14 129 14q281 0 416 -149.5t135 -411.5q0 -258 -157 -417.5t-437 -159.5q-82 0 -180 20l-125 27q-39 8 -83 8q-54 0 -118 -12l-150 -37l-24 119l133 49v1333h-137zM629 137q20 -8 63 -8q139 0 139 436q0 412 -147 412l-55 -8v-832z" />
<glyph unicode="c" horiz-adv-x="1114" d="M61 553q0 276 158 423.5t420 147.5q121 0 229.5 -25.5t155.5 -51.5l49 -27l-110 -432q-143 348 -281 348q-82 0 -121 -70.5t-39 -232.5q0 -299 226 -299q78 0 165 24l99 29l55 -307l-100 -35q-186 -63 -357 -63q-272 0 -410.5 148.5t-138.5 422.5z" />
<glyph unicode="d" horiz-adv-x="1366" d="M61 543q0 266 141.5 425.5t409.5 159.5l129 -14v383h-137v123h598v-1456l133 -49l-24 -119l-150 37q-63 12 -117 12q-44 0 -83 -8l-125 -27q-98 -20 -201 -20q-293 0 -433.5 146.5t-140.5 406.5zM539 565q0 -436 139 -436l63 8v832q-12 8 -55 8q-147 0 -147 -412z" />
<glyph unicode="e" horiz-adv-x="1226" d="M61 555q0 291 163 433t413 142q262 0 398 -135t136 -350q0 -51 -30.5 -82t-81.5 -31h-529q39 -221 263 -221q98 0 202 27l119 31l62 -289l-113 -35q-209 -63 -399 -63q-303 0 -453 148.5t-150 424.5zM522 659h199q0 172 -17.5 260.5t-74.5 88.5q-107 -1 -107 -349z" />
<glyph unicode="f" horiz-adv-x="956" d="M20 979v123h187v162q0 176 108.5 272t315.5 96q102 0 186 -15t117 -30l33 -14l-64 -402q-43 115 -108.5 188t-126.5 73q-74 0 -74 -80q0 -45 35 -119t39 -131h260v-123h-256v-854h172v-125h-787v125h150v854h-187z" />
<glyph unicode="g" horiz-adv-x="1302" d="M61 -94q0 149 160 241l113 66q92 53 92 115q0 39 -27.5 61.5t-97.5 46.5q-98 35 -166.5 111t-68.5 196q0 174 134 266.5t371 92.5h168q125 0 236.5 83t171.5 228l102 -311q-51 -37 -137 -61.5t-141 -24.5q215 -78 215 -281q0 -166 -143.5 -261t-393.5 -95l-63 4 q14 -20 14 -59q0 -25 -7 -49.5t-15 -36.5l-9 -15l195 15q59 4 111 4q170 0 264 -44q123 -59 123 -210q0 -190 -184.5 -293t-467.5 -103q-549 0 -549 314zM479 -117q0 -80 47 -125t133 -45q78 0 120 42t42 118q0 123 -143 137l-166 10q-33 -68 -33 -137zM518 739 q1 -239 103 -239q57 0 81.5 57t24.5 178q0 242 -106 242q-102 0 -103 -238z" />
<glyph unicode="h" horiz-adv-x="1413" d="M20 0v123h138v1374h-138v123h594v-553q139 57 277 57q375 0 375 -376v-625h127v-123h-660v123h76v622q0 190 -121 191q-20 0 -39.5 -4t-27.5 -8l-9 -4v-797h74v-123h-666z" />
<glyph unicode="i" horiz-adv-x="800" d="M51 0v123h135v856h-127v123h594v-979h127v-123h-729zM145 1421q0 96 68 151.5t184 55.5q121 0 189.5 -55t68.5 -152q0 -92 -68.5 -147t-189.5 -55q-117 0 -184.5 55t-67.5 147z" />
<glyph unicode="j" horiz-adv-x="681" d="M-20 -281q109 0 166 50.5t57 136.5q0 74 -30 196.5t-30 204.5v670h-125v125h592v-1077q0 -209 -164.5 -322t-465.5 -113v129zM111 1421q0 96 67.5 151.5t183.5 55.5q121 0 190 -55t69 -152q0 -92 -69 -147t-190 -55q-117 0 -184 55t-67 147z" />
<glyph unicode="k" horiz-adv-x="1386" d="M20 0v123h138v1374h-138v123h594v-1028l293 387h-133v123h547v-123h-154l-192 -229l217 -476q18 -39 28.5 -56t32 -45t49 -40t64.5 -12v-121h-283q-135 0 -215 47t-137 172l-61 150l-19 -25q-39 -53 -39 -151v-70h74v-123h-666z" />
<glyph unicode="l" horiz-adv-x="761" d="M20 0v123h127v1374h-127v123h601v-1497h120v-123h-721z" />
<glyph unicode="m" horiz-adv-x="2074" d="M51 0v123h137v825l-133 47l25 117l217 -43q46 -10 90 -10q39 0 78 8l131 31q102 26 232 26h10q182 0 295 -80q160 80 346 80q223 0 335.5 -99t112.5 -280v-622h127v-123h-653v123h74v631q0 182 -119 182q-25 0 -51.5 -8t-40.5 -17l-15 -8q35 -68 35 -168v-612h72v-123 h-598v123h73v631q0 182 -118 182q-20 0 -39 -4t-27 -8l-8 -4v-797h72v-123h-660z" />
<glyph unicode="n" horiz-adv-x="1443" d="M51 0v123h137v825l-131 43l27 123l213 -45q46 -10 90 -10q39 0 78 8l135 33q94 24 233 24h11q223 0 337.5 -102t114.5 -285v-614h127v-123h-659v123h76v622q0 190 -121 191q-20 0 -40 -4t-28 -8l-8 -4v-797h74v-123h-666z" />
<glyph unicode="o" horiz-adv-x="1361" d="M61 555q0 258 169 415.5t454 157.5q279 0 447.5 -153.5t168.5 -411.5q0 -264 -168.5 -419.5t-453.5 -155.5q-281 0 -449 153.5t-168 413.5zM557 557q0 -227 27.5 -334.5t107.5 -107.5q74 0 93.5 99t19.5 339q0 231 -26.5 338.5t-106.5 107.5q-74 0 -94.5 -101t-20.5 -341 z" />
<glyph unicode="p" horiz-adv-x="1359" d="M20 -279h138v1231l-123 45l28 121l146 -37q58 -14 112 -14q46 0 89 10l125 27q98 20 200 20q291 0 427 -147.5t136 -409.5q0 -266 -141 -425.5t-409 -159.5l-130 14v-275h146v-122h-744v122zM618 141q12 -8 56 -8q147 0 147 412q0 430 -139 430l-64 -8v-826z" />
<glyph unicode="q" horiz-adv-x="1359" d="M61 547q0 258 158 418.5t438 160.5q80 0 179 -20l125 -27q39 -8 83 -8q54 0 117 12l146 37l28 -119l-133 -49v-1231h137v-122h-743v122h145v279q-78 -14 -129 -14q-281 0 -416 149.5t-135 411.5zM539 549q0 -412 147 -412l55 8v832q-20 8 -63 8q-139 0 -139 -436z" />
<glyph unicode="r" horiz-adv-x="1075" d="M51 0v123h137v825l-133 45l27 121l215 -45q58 -13 108 -13q41 0 76 9l178 43q78 20 185 20q72 0 127 -12t73 -24l21 -13l-104 -510q-135 340 -269 340l-49 -6v-780h191v-123h-783z" />
<glyph unicode="s" horiz-adv-x="1099" d="M41 53l88 398q72 -137 184.5 -226.5t231.5 -89.5q112 0 112 96q0 57 -60 91t-145 59t-171 60.5t-146.5 117.5t-60.5 207q0 184 137 271t362 87q129 0 251 -18.5t180 -36.5l55 -18l-84 -385q-70 137 -171.5 221t-213.5 84q-109 0 -109 -97q0 -53 59.5 -86.5t144.5 -57 t170 -59.5t144.5 -117t59.5 -204q0 -184 -143.5 -277t-368.5 -93q-133 0 -260 18t-187 37z" />
<glyph unicode="t" horiz-adv-x="1021" d="M20 979v123h173l108 387h338v-387h309v-123h-309v-496q0 -88 29.5 -123.5t105.5 -35.5q33 0 77 8t71 16l26 10l43 -311q-160 -59 -368 -59q-219 0 -333 110.5t-114 317.5v563h-156z" />
<glyph unicode="u" horiz-adv-x="1415" d="M20 979v123h586v-746q0 -190 121 -190q20 0 39.5 4t28.5 8l8 4v797h-117v123h574v-948l135 -50l-25 -116l-219 45q-46 10 -90 10q-40 0 -80 -8l-135 -33q-98 -25 -244 -25q-223 0 -339 104t-116 284v614h-127z" />
<glyph unicode="v" horiz-adv-x="1339" d="M20 979v123h744v-123h-131l149 -584l160 584h-123v123h500v-123h-131l-246 -819q-57 -182 -280 -183q-220 1 -275 183l-244 819h-123z" />
<glyph unicode="w" horiz-adv-x="1859" d="M20 979v123h717v-123h-116l55 -584l117 506q45 195 262 195q104 0 172.5 -49.5t85.5 -145.5l84 -506l71 584h-108v123h479v-123h-125l-158 -819q-45 -182 -270 -183q-219 0 -262 183l-94 438l-109 -438q-27 -96 -86 -139.5t-174 -43.5q-231 1 -268 183l-150 819h-123z " />
<glyph unicode="x" horiz-adv-x="1380" d="M41 0v123h131l270 401l-278 455h-123v123h743v-123h-114l137 -254l156 254h-123v123h499v-123h-131l-270 -401l279 -455h122v-123h-743v123h115l-138 254l-155 -254h123v-123h-500z" />
<glyph unicode="y" horiz-adv-x="1339" d="M20 979v123h744v-123h-131l166 -512l143 512h-123v123h500v-123h-131l-326 -1004q-68 -213 -179.5 -302t-301.5 -89q-78 0 -149.5 13.5t-104.5 27.5l-33 15l70 346q129 -190 244 -191q72 0 106.5 35t52.5 109l-424 1040h-123z" />
<glyph unicode="z" horiz-adv-x="1185" d="M51 129q0 70 39 127l543 725h-86q-129 0 -254 -81t-213 -204l-21 381q94 25 269 25h669q53 0 93 -36t40 -93q0 -70 -38 -127l-545 -725h100q129 0 254 81t213 204l21 -381q-94 -25 -269 -25h-682q-53 0 -93 36t-40 93z" />
<glyph unicode="{" horiz-adv-x="759" d="M61 674v114q84 0 116 17.5t32 64.5q0 72 -66.5 213.5t-66.5 216.5q0 137 111.5 218t312.5 81h219v-112h-76q-61 0 -101 -40t-40 -114q0 -80 44 -228.5t44 -209.5q0 -104 -88 -164q88 -59 88 -164q0 -59 -44 -208.5t-44 -229.5q0 -74 40 -114t101 -40h76v-112h-219 q-201 0 -312.5 81t-111.5 218q0 76 66.5 217t66.5 213q0 47 -32 64.5t-116 17.5z" />
<glyph unicode="|" horiz-adv-x="552" d="M139 -410v2030h275v-2030h-275z" />
<glyph unicode="}" horiz-adv-x="759" d="M41 -25h76q61 0 101 40t40 114q0 80 -44 229.5t-44 208.5q0 104 88 164q-88 59 -88 164q0 61 44 209.5t44 228.5q0 74 -40 114t-101 40h-76v112h219q201 0 312.5 -80.5t111.5 -218.5q0 -76 -66.5 -217t-66.5 -213q0 -47 31.5 -64.5t115.5 -17.5v-114q-84 0 -115.5 -17.5 t-31.5 -64.5q0 -72 66.5 -213t66.5 -217q0 -137 -111.5 -218t-312.5 -81h-219v112z" />
<glyph unicode="~" d="M72 442q14 172 115.5 287t261.5 115q111 0 257 -65.5t205 -65.5q74 0 116 29.5t67 99.5l125 -35q-14 -172 -116 -286.5t-261 -114.5q-104 0 -187.5 32.5t-149 65.5t-126.5 33q-74 0 -115.5 -29.5t-66.5 -99.5z" />
<glyph unicode="&#xa1;" horiz-adv-x="591" d="M41 956q0 92 67.5 147.5t184.5 55.5q121 0 189.5 -55t68.5 -148q0 -96 -68.5 -151t-189.5 -55q-117 0 -184.5 55t-67.5 151zM66 -117l165 785h134l163 -785q23 -125 -46.5 -204.5t-184.5 -79.5t-183 81.5t-48 202.5z" />
<glyph unicode="&#xa2;" d="M74 559q0 248 137 390.5t375 168.5v279h147v-275q117 -4 221.5 -28.5t151.5 -49.5l45 -22l-119 -428q-152 344 -297 344q-86 0 -128 -69.5t-42 -229.5q0 -297 240 -297q84 0 176 25l104 28l60 -305l-109 -33q-166 -53 -303 -61v-262h-147v262q-254 18 -383 163.5 t-129 399.5z" />
<glyph unicode="&#xa3;" d="M39 0v115h67q109 0 180.5 75.5t71.5 198.5q0 49 -13 96t-28 70l-14 23h-240v124h179q-160 236 -160 400q0 211 148.5 323.5t398.5 112.5q147 0 291.5 -25.5t214.5 -50.5l71 -26l-82 -512q-78 180 -203.5 293.5t-263.5 113.5q-147 0 -147 -164q0 -72 26.5 -135t81 -156.5 t87.5 -166.5h331v-127h-280q20 -59 20 -133q0 -92 -54 -177.5t-167 -142.5l147 14q127 10 257.5 103.5t230.5 281.5l49 -475q-115 -53 -350 -53h-850z" />
<glyph unicode="&#xa5;" d="M41 1397v127h692v-127h-92l145 -432l129 432h-98v127h434v-127h-94l-217 -553h301v-121h-348v-152h348v-120h-348v-326h139v-125h-758v125h152v326h-377v120h377v152h-377v121h332l-244 553h-96z" />
<glyph unicode="&#xa6;" horiz-adv-x="552" d="M139 -375v824h275v-824h-275zM139 809v811h275v-811h-275z" />
<glyph unicode="&#xa7;" d="M55 -291l117 475q150 -403 399 -403q102 0 141.5 65.5t39.5 212.5v119q-92 -25 -201 -24q-219 0 -354.5 139t-135.5 350v377q0 238 158 378t475 140q147 0 281.5 -29.5t195.5 -58.5l62 -31l-117 -475q-150 403 -399 404q-102 0 -141 -65.5t-39 -213.5v-121q82 27 200 27 q219 0 354.5 -139.5t135.5 -350.5v-376q0 -238 -158 -378.5t-475 -140.5q-147 0 -281.5 30t-195.5 61zM537 584q0 -139 38.5 -212t141.5 -73l35 2v244q0 139 -39 211.5t-142 72.5l-34 -2v-243z" />
<glyph unicode="&#xa8;" horiz-adv-x="1024" d="M4 1421q0 96 63.5 151.5t178.5 55.5q119 0 183.5 -55t64.5 -152q0 -94 -64.5 -148t-183.5 -54q-115 0 -178.5 54t-63.5 148zM530 1421q0 96 63.5 151.5t178.5 55.5q119 0 183.5 -55t64.5 -152q0 -94 -64.5 -148t-183.5 -54q-115 0 -178.5 54t-63.5 148z" />
<glyph unicode="&#xa9;" horiz-adv-x="1957" d="M152 752q0 346 232 572t570 226q336 0 568.5 -224t232.5 -574q0 -344 -233.5 -573.5t-567.5 -229.5q-336 0 -569 229.5t-233 573.5zM369 752q0 -266 165.5 -434t419.5 -168q248 0 415 169t167 433q0 270 -165 435t-417 165q-254 0 -419.5 -165t-165.5 -435zM532 756 q0 209 119 318.5t318 109.5q90 0 172 -19.5t116 -38.5l37 -20l-82 -326q-115 262 -213 262q-121 0 -120 -227q0 -225 170 -225q61 0 127 18l73 21l41 -232l-76 -26q-141 -47 -268 -47q-205 0 -309.5 112.5t-104.5 319.5z" />
<glyph unicode="&#xaa;" d="M211 899q0 113 84 165t250 73l149 18v12q0 59 -31.5 86t-101.5 27q-92 0 -225 -39l-74 -20l-41 239l84 23q199 55 363 55q385 0 385 -311v-416l82 -37l-25 -90l-160 41q-55 16 -127 2l-82 -18q-129 -29 -227 -29q-303 0 -303 219zM584 909q0 -104 63 -104q23 0 37 4l10 2 v240l-28 -7q-82 -12 -82 -135z" />
<glyph unicode="&#xab;" horiz-adv-x="1316" d="M102 590l492 491l145 -100l-231 -389l231 -391l-145 -101zM618 590l451 491l145 -100l-210 -389l210 -391l-145 -101z" />
<glyph unicode="&#xac;" d="M123 696v248h1044v-647h-278v399h-766z" />
<glyph unicode="&#xad;" horiz-adv-x="927" d="M102 518v250h723v-250h-723z" />
<glyph unicode="&#xae;" horiz-adv-x="1957" d="M152 752q0 346 232 572t570 226q336 0 568.5 -224t232.5 -574q0 -344 -233.5 -573.5t-567.5 -229.5q-336 0 -569 229.5t-233 573.5zM369 752q0 -266 165.5 -434t419.5 -168q248 0 415 168.5t167 433.5q0 270 -165 435t-417 165q-254 0 -419.5 -165t-165.5 -435zM553 342 v92h82v643h-82v94h532q106 0 174 -53t68 -155q0 -94 -59 -175l-58 -81l74 -205q27 -68 84 -68v-92h-164q-141 0 -194 147l-62 187h-35v-242h78v-92h-438zM913 774h70l31 47q39 59 39 140q0 117 -95 116h-45v-303z" />
<glyph unicode="&#xaf;" horiz-adv-x="1024" d="M143 1268v291h738v-291h-738z" />
<glyph unicode="&#xb0;" horiz-adv-x="995" d="M102 1157q0 176 110 292t290 116t285.5 -115t105.5 -293q0 -180 -107.5 -293.5t-287.5 -113.5q-182 0 -289 114.5t-107 292.5zM332 1157q0 -88 45 -141t123 -53q80 0 124 53t44 141q0 84 -46.5 137.5t-123.5 53.5q-80 0 -123 -52.5t-43 -138.5z" />
<glyph unicode="&#xb1;" d="M123 0v233h1044v-233h-1044zM123 594v246h379v284h278v-284h387v-246h-387v-275h-278v275h-379z" />
<glyph unicode="&#xb4;" horiz-adv-x="1024" d="M199 1323l336 274q70 57 157 58q82 0 135.5 -52.5t53.5 -140.5q0 -86 -55.5 -144t-159.5 -67l-426 -39z" />
<glyph unicode="&#xb6;" horiz-adv-x="1320" d="M61 985q0 236 138.5 387.5t398.5 151.5h604v-1905h-254v1671h-186v-1671h-264v836q-211 25 -324 171t-113 359z" />
<glyph unicode="&#xb7;" horiz-adv-x="716" d="M102 618q0 100 68 159t184 59q123 0 191.5 -58.5t68.5 -159.5q0 -98 -69.5 -155t-190.5 -57q-117 0 -184.5 58t-67.5 154z" />
<glyph unicode="&#xb8;" horiz-adv-x="1024" d="M201 -383l39 162q6 -2 35.5 -17.5t42 -19.5t39 -14.5t51 -13.5t51.5 -3q98 0 98 43q0 68 -231 39l-13 23l133 184h170l-75 -98q141 8 218 -34t77 -126q0 -86 -88.5 -139.5t-244 -53.5t-302.5 68z" />
<glyph unicode="&#xba;" d="M162 1110q0 195 131 312.5t354 117.5q217 0 348 -114.5t131 -309.5q0 -199 -131 -314.5t-354 -115.5q-219 0 -349 115.5t-130 308.5zM547 1112q0 -170 21.5 -251t84.5 -81q57 0 72.5 76t15.5 254q0 172 -20.5 253t-83.5 81q-57 0 -73.5 -77t-16.5 -255z" />
<glyph unicode="&#xbb;" horiz-adv-x="1316" d="M102 201l211 391l-211 389l146 100l450 -491l-450 -490zM578 201l231 391l-231 389l145 100l491 -491l-491 -490z" />
<glyph unicode="&#xbf;" horiz-adv-x="1032" d="M23 -2q-1 215 196 340l201 106l78 224h151l37 -133q41 -127 -43 -213l-111 -97q-39 -39 -50 -68.5t-11 -80.5q0 -123 135 -123q96 0 211 37l121 39l76 -310l-127 -45q-170 -61 -361 -61q-504 0 -503 385zM305 958q0 92 68.5 147.5t189.5 55.5q117 0 184.5 -55t67.5 -148 q0 -96 -67.5 -151t-184.5 -55q-121 0 -189.5 55t-68.5 151z" />
<glyph unicode="&#xc0;" horiz-adv-x="1763" d="M31 0v127h137l432 1268h-156v129h457q248 0 313 -211l392 -1186h127v-127h-830v127h146l-78 264h-465l-84 -264h137v-127h-528zM498 1833q0 88 56 140t138 52q88 0 158 -57l330 -274l-41 -111l-426 39q-104 8 -159.5 66.5t-55.5 144.5zM545 530h389l-186 623z" />
<glyph unicode="&#xc1;" horiz-adv-x="1763" d="M31 0v127h137l432 1268h-156v129h457q248 0 313 -211l392 -1186h127v-127h-830v127h146l-78 264h-465l-84 -264h137v-127h-528zM528 1694l336 274q70 57 158 57q82 0 135 -52t53 -140q0 -86 -55 -144.5t-160 -66.5l-426 -39zM545 530h389l-186 623z" />
<glyph unicode="&#xc2;" horiz-adv-x="1763" d="M31 0v127h137l432 1268h-156v129h457q248 0 313 -211l392 -1186h127v-127h-830v127h146l-78 264h-465l-84 -264h137v-127h-528zM397 1694l449 334l440 -332l-55 -111l-385 105l-406 -107zM545 530h389l-186 623z" />
<glyph unicode="&#xc3;" horiz-adv-x="1763" d="M31 0v127h137l432 1268h-156v129h457q248 0 313 -211l392 -1186h127v-127h-830v127h146l-78 264h-465l-84 -264h137v-127h-528zM403 1620q10 170 93.5 284.5t214.5 114.5q90 0 199.5 -65.5t158.5 -65.5q57 0 89 29t59 100l118 -35q-10 -170 -93 -284.5t-214 -114.5 q-84 0 -147.5 33t-112.5 65.5t-98 32.5q-57 0 -89 -28.5t-59 -100.5zM545 530h389l-186 623z" />
<glyph unicode="&#xc4;" horiz-adv-x="1763" d="M31 0v127h137l432 1268h-156v129h457q248 0 313 -211l392 -1186h127v-127h-830v127h146l-78 264h-465l-84 -264h137v-127h-528zM348 1786q0 96 63.5 151.5t178.5 55.5q119 0 183.5 -55.5t64.5 -151.5q0 -94 -64.5 -148.5t-183.5 -54.5q-115 0 -178.5 54.5t-63.5 148.5z M545 530h389l-186 623zM874 1786q0 96 63.5 151.5t178.5 55.5q119 0 183.5 -55.5t64.5 -151.5q0 -94 -64.5 -148.5t-183.5 -54.5q-115 0 -178.5 54.5t-63.5 148.5z" />
<glyph unicode="&#xc5;" horiz-adv-x="1763" d="M31 0v127h137l461 1350q-63 63 -64 168q0 119 84 188.5t236 69.5q158 0 241.5 -69t83.5 -189q0 -96 -57 -164l453 -1354h127v-127h-830v127h146l-78 264h-465l-84 -264h137v-127h-528zM545 530h389l-186 623zM780 1645q0 -39 28 -61.5t81 -22.5q51 0 78.5 22.5t27.5 61 t-27.5 62.5t-78.5 24q-109 0 -109 -86z" />
<glyph unicode="&#xc6;" horiz-adv-x="2344" d="M31 0v127h137l545 1268h-156v129h1419q82 0 152 -6.5t100 -12.5l29 -6l-35 -424q-236 322 -477 322h-141v-559h254v182h143v-488h-143v173h-254v-578h168q242 0 477 322l35 -424q-98 -25 -281 -25h-1073v127h153v264h-553l-108 -264h137v-127h-528zM584 530h499v865h-143 z" />
<glyph unicode="&#xc7;" horiz-adv-x="1439" d="M41 753.5q0 368.5 217 574.5t582 206q156 0 291 -25.5t192 -50.5l55 -26l-129 -523q-41 86 -75.5 143.5t-89 122t-122 98.5t-149.5 34q-266 0 -266 -461q0 -242 100.5 -357.5t280.5 -115.5q115 0 211 28l164 45l65 -352l-154 -53q-180 -66 -399 -66q-352 0 -563 205 t-211 573.5zM475 -395l39 162q6 -2 36 -17.5t42 -19.5t38.5 -14.5t51.5 -13.5t51 -3q98 0 98 43q0 68 -231 39l-12 22l133 185h170l-76 -99q141 8 218 -33.5t77 -125.5q0 -86 -88 -139.5t-244 -53.5t-303 68z" />
<glyph unicode="&#xc8;" horiz-adv-x="1458" d="M41 0v127h154v1268h-154v129h1049q82 0 151.5 -6.5t97.5 -12.5l31 -6l-35 -424q-236 322 -477 322h-141v-559h254v182h143v-488h-143v173h-254v-578h168q242 0 477 322l35 -424q-98 -25 -281 -25h-1075zM307 1833q0 88 56.5 140t138.5 52q88 0 157 -57l330 -274l-41 -111 l-426 39q-104 8 -159.5 66.5t-55.5 144.5z" />
<glyph unicode="&#xc9;" horiz-adv-x="1458" d="M41 0v127h154v1268h-154v129h1049q82 0 151.5 -6.5t97.5 -12.5l31 -6l-35 -424q-236 322 -477 322h-141v-559h254v182h143v-488h-143v173h-254v-578h168q242 0 477 322l35 -424q-98 -25 -281 -25h-1075zM406 1694l335 274q70 57 158 57q82 0 135 -52t53 -140 q0 -86 -55 -144.5t-160 -66.5l-426 -39z" />
<glyph unicode="&#xca;" horiz-adv-x="1458" d="M41 0v127h154v1268h-154v129h1049q82 0 151.5 -6.5t97.5 -12.5l31 -6l-35 -424q-236 322 -477 322h-141v-559h254v182h143v-488h-143v173h-254v-578h168q242 0 477 322l35 -424q-98 -25 -281 -25h-1075zM260 1694l449 334l440 -332l-55 -111l-385 105l-406 -107z" />
<glyph unicode="&#xcb;" horiz-adv-x="1458" d="M41 0v127h154v1268h-154v129h1049q82 0 151.5 -6.5t97.5 -12.5l31 -6l-35 -424q-236 322 -477 322h-141v-559h254v182h143v-488h-143v173h-254v-578h168q242 0 477 322l35 -424q-98 -25 -281 -25h-1075zM180 1786q0 96 63.5 151.5t178.5 55.5q119 0 183.5 -55.5 t64.5 -151.5q0 -94 -64.5 -148.5t-183.5 -54.5q-115 0 -178.5 54.5t-63.5 148.5zM707 1786q0 96 63.5 151.5t177.5 55.5q119 0 183.5 -55.5t64.5 -151.5q0 -94 -64.5 -148.5t-183.5 -54.5q-115 0 -178 54.5t-63 148.5z" />
<glyph unicode="&#xcc;" horiz-adv-x="925" d="M41 0v127h154v1268h-154v129h844v-129h-154v-1268h154v-127h-844zM86 1833q0 88 56.5 140t138.5 52q88 0 157 -57l330 -274l-41 -111l-426 39q-104 8 -159.5 66.5t-55.5 144.5z" />
<glyph unicode="&#xcd;" horiz-adv-x="925" d="M41 0v127h154v1268h-154v129h844v-129h-154v-1268h154v-127h-844zM115 1694l336 274q70 57 157 57q82 0 135.5 -52t53.5 -140q0 -86 -55.5 -144.5t-159.5 -66.5l-426 -39z" />
<glyph unicode="&#xce;" horiz-adv-x="925" d="M23 1694l448 334l440 -332l-55 -111l-385 105l-405 -107zM41 0v127h154v1268h-154v129h844v-129h-154v-1268h154v-127h-844z" />
<glyph unicode="&#xcf;" horiz-adv-x="925" d="M-49 1786q0 96 63.5 151.5t178.5 55.5q119 0 183 -55.5t64 -151.5q0 -94 -64.5 -148.5t-182.5 -54.5q-115 0 -178.5 54.5t-63.5 148.5zM41 0v127h154v1268h-154v129h844v-129h-154v-1268h154v-127h-844zM477 1786q0 96 63.5 151.5t178.5 55.5q119 0 183.5 -55.5 t64.5 -151.5q0 -94 -64.5 -148.5t-183.5 -54.5q-115 0 -178.5 54.5t-63.5 148.5z" />
<glyph unicode="&#xd0;" horiz-adv-x="1648" d="M41 0v127h154v582h-152v137h152v551h-154v127h793q166 0 302 -41t243.5 -128t168 -236.5t60.5 -352.5q0 -201 -63.5 -352.5t-175.5 -239.5t-250 -131t-300 -43h-778zM717 119h90q147 0 206.5 153.5t59.5 483.5q0 340 -61.5 492.5t-208.5 152.5h-86v-555h207v-137h-207 v-590z" />
<glyph unicode="&#xd1;" horiz-adv-x="1677" d="M41 0v127h154v1268h-154v129h551q223 0 313 -215l357 -811v897h-150v129h535v-127h-134v-1186q0 -231 -309 -231q-137 0 -223 54t-137 167l-395 891v-963h129v-129h-537zM383 1620q10 170 93 284.5t214 114.5q90 0 199.5 -65.5t159.5 -65.5q57 0 88.5 29t58.5 100 l119 -35q-10 -170 -93 -284.5t-214 -114.5q-84 0 -147.5 33t-113 65.5t-98.5 32.5q-57 0 -88.5 -28.5t-58.5 -100.5z" />
<glyph unicode="&#xd2;" horiz-adv-x="1705" d="M41 762q0 360 229.5 566t587.5 206q360 0 583.5 -203t223.5 -575q0 -367 -231.5 -569.5t-591.5 -202.5q-358 0 -579.5 203.5t-221.5 574.5zM510 1833q0 88 56.5 140t138.5 52q88 0 157 -57l330 -274l-41 -111l-426 39q-104 8 -159.5 66.5t-55.5 144.5zM600 766 q0 -324 57.5 -484.5t194.5 -160.5q139 0 195.5 156.5t56.5 474.5q0 328 -58.5 486.5t-197.5 158.5t-193.5 -160t-54.5 -471z" />
<glyph unicode="&#xd3;" horiz-adv-x="1705" d="M41 762q0 360 229.5 566t587.5 206q360 0 583.5 -203t223.5 -575q0 -367 -231.5 -569.5t-591.5 -202.5q-358 0 -579.5 203.5t-221.5 574.5zM571 1694l336 274q70 57 158 57q82 0 135 -52t53 -140q0 -86 -55 -144.5t-160 -66.5l-426 -39zM600 766q0 -324 57.5 -484.5 t194.5 -160.5q139 0 195.5 156.5t56.5 474.5q0 328 -58.5 486.5t-197.5 158.5t-193.5 -160t-54.5 -471z" />
<glyph unicode="&#xd4;" horiz-adv-x="1705" d="M41 762q0 360 229.5 566t587.5 206q360 0 583.5 -203t223.5 -575q0 -367 -231.5 -569.5t-591.5 -202.5q-358 0 -579.5 203.5t-221.5 574.5zM414 1694l448 334l441 -332l-56 -111l-385 105l-405 -107zM600 766q0 -324 57.5 -484.5t194.5 -160.5q139 0 195.5 156.5 t56.5 474.5q0 328 -58.5 486.5t-197.5 158.5t-193.5 -160t-54.5 -471z" />
<glyph unicode="&#xd5;" horiz-adv-x="1705" d="M41 762q0 360 229.5 566t587.5 206q360 0 583.5 -203t223.5 -575q0 -367 -231.5 -569.5t-591.5 -202.5q-358 0 -579.5 203.5t-221.5 574.5zM381 1620q10 170 93 284.5t214 114.5q90 0 199.5 -65.5t159.5 -65.5q57 0 88.5 29t58.5 100l119 -35q-10 -170 -93 -284.5 t-214 -114.5q-84 0 -147.5 33t-113 65.5t-98.5 32.5q-57 0 -88.5 -28.5t-58.5 -100.5zM600 766q0 -324 57.5 -484.5t194.5 -160.5q139 0 195.5 156.5t56.5 474.5q0 328 -58.5 486.5t-197.5 158.5t-193.5 -160t-54.5 -471z" />
<glyph unicode="&#xd6;" horiz-adv-x="1705" d="M41 762q0 360 229.5 566t587.5 206q360 0 583.5 -203t223.5 -575q0 -367 -231.5 -569.5t-591.5 -202.5q-358 0 -579.5 203.5t-221.5 574.5zM342 1786q0 96 63.5 151.5t178.5 55.5q119 0 183 -55.5t64 -151.5q0 -94 -64.5 -148.5t-182.5 -54.5q-115 0 -178.5 54.5 t-63.5 148.5zM600 766q0 -324 57.5 -484.5t194.5 -160.5q139 0 195.5 156.5t56.5 474.5q0 328 -58.5 486.5t-197.5 158.5t-193.5 -160t-54.5 -471zM868 1786q0 96 63.5 151.5t178.5 55.5q119 0 183.5 -55.5t64.5 -151.5q0 -94 -64.5 -148.5t-183.5 -54.5q-115 0 -178.5 54.5 t-63.5 148.5z" />
<glyph unicode="&#xd7;" d="M139 328l305 309l-305 309l197 197l309 -307l307 307l199 -197l-307 -309l307 -309l-199 -197l-307 305l-309 -305z" />
<glyph unicode="&#xd8;" horiz-adv-x="1705" d="M41 762q0 360 229.5 566t587.5 206q115 0 223 -23l62 125h280l-104 -217q346 -201 346 -663q0 -367 -231.5 -569.5t-591.5 -202.5q-111 0 -205 18l-53 -111h-285l96 199q-354 199 -354 672zM600 766q0 -142 8 -234l385 797q-57 68 -145 68q-139 0 -193.5 -160t-54.5 -471 zM719 176q51 -55 133 -55q139 0 195.5 156.5t56.5 474.5q0 114 -6 206z" />
<glyph unicode="&#xd9;" horiz-adv-x="1681" d="M41 1395v129h831v-129h-143v-860q0 -143 68.5 -220t201.5 -77q127 0 196 77.5t69 223.5v856h-150v129h537v-127h-133v-848q0 -274 -174.5 -427t-466.5 -153q-336 0 -509 143.5t-173 426.5v856h-154zM455 1833q0 88 56 140t138 52q88 0 158 -57l330 -274l-41 -111l-426 39 q-104 8 -159.5 66.5t-55.5 144.5z" />
<glyph unicode="&#xda;" horiz-adv-x="1681" d="M41 1395v129h831v-129h-143v-860q0 -143 68.5 -220t201.5 -77q127 0 196 77.5t69 223.5v856h-150v129h537v-127h-133v-848q0 -274 -174.5 -427t-466.5 -153q-336 0 -509 143.5t-173 426.5v856h-154zM578 1694l335 274q70 57 158 57q82 0 135.5 -52t53.5 -140 q0 -86 -55.5 -144.5t-160.5 -66.5l-426 -39z" />
<glyph unicode="&#xdb;" horiz-adv-x="1681" d="M41 1395v129h831v-129h-143v-860q0 -143 68.5 -220t201.5 -77q127 0 196 77.5t69 223.5v856h-150v129h537v-127h-133v-848q0 -274 -174.5 -427t-466.5 -153q-336 0 -509 143.5t-173 426.5v856h-154zM432 1694l449 334l440 -332l-55 -111l-385 105l-406 -107z" />
<glyph unicode="&#xdc;" horiz-adv-x="1681" d="M41 1395v129h831v-129h-143v-860q0 -143 68.5 -220t201.5 -77q127 0 196 77.5t69 223.5v856h-150v129h537v-127h-133v-848q0 -274 -174.5 -427t-466.5 -153q-336 0 -509 143.5t-173 426.5v856h-154zM352 1786q0 96 63.5 151.5t178.5 55.5q119 0 183.5 -55.5t64.5 -151.5 q0 -94 -64.5 -148.5t-183.5 -54.5q-115 0 -178.5 54.5t-63.5 148.5zM879 1786q0 96 63.5 151.5t177.5 55.5q119 0 183.5 -55.5t64.5 -151.5q0 -94 -64.5 -148.5t-183.5 -54.5q-115 0 -178 54.5t-63 148.5z" />
<glyph unicode="&#xdd;" horiz-adv-x="1705" d="M31 1395v129h856v-129h-127l248 -500l245 500h-135v129h557v-129h-145l-422 -738v-530h152v-127h-844v125h164v514l-412 756h-137zM559 1694l336 274q70 57 158 57q82 0 135 -52t53 -140q0 -86 -55.5 -144.5t-159.5 -66.5l-426 -39z" />
<glyph unicode="&#xde;" horiz-adv-x="1501" d="M41 0v127h154v1268h-154v129h840v-127h-160v-117h147q285 0 438.5 -115.5t153.5 -349.5q0 -225 -160.5 -347t-439.5 -122h-139v-219h160v-127h-840zM721 469h49q84 0 131 86t47 256q0 348 -174 348h-53v-690z" />
<glyph unicode="&#xdf;" horiz-adv-x="1363" d="M20 0v123h127v1083q0 209 157 315.5t388 106.5q268 0 401.5 -101.5t133.5 -287.5q0 -68 -21.5 -127t-42 -88t-65.5 -82l-94 -94l170 -154q76 -68 107.5 -137.5t31.5 -171.5q0 -168 -118 -276.5t-298 -108.5h-221v123h29q57 0 101 50t44 167q0 100 -62 192l-102 136 q-43 63 -8 137l92 137q78 131 78 301q0 252 -135 252q-113 0 -113 -225v-553v-717h-580z" />
<glyph unicode="&#xe0;" horiz-adv-x="1263" d="M51 276q0 152 107.5 220.5t320.5 95.5l191 24v19q0 80 -41 114.5t-129 34.5q-111 0 -289 -51l-94 -28l-54 319l107 31q256 74 465 73q494 0 493 -415v-555l105 -47l-31 -121l-205 53q-74 25 -161 4l-105 -24q-166 -39 -293 -39q-387 0 -387 292zM291 1462q0 88 56 140.5 t138 52.5q88 0 158 -58l330 -274l-41 -111l-426 39q-104 8 -159.5 66.5t-55.5 144.5zM528 291q0 -141 80 -141q22 0 47 6l15 4v317l-37 -6q-104 -16 -105 -180z" />
<glyph unicode="&#xe1;" horiz-adv-x="1263" d="M51 276q0 152 107.5 220.5t320.5 95.5l191 24v19q0 80 -41 114.5t-129 34.5q-111 0 -289 -51l-94 -28l-54 319l107 31q256 74 465 73q494 0 493 -415v-555l105 -47l-31 -121l-205 53q-74 25 -161 4l-105 -24q-166 -39 -293 -39q-387 0 -387 292zM307 1323l336 274 q70 57 158 58q82 0 135 -52.5t53 -140.5q0 -86 -55 -144t-160 -67l-426 -39zM528 291q0 -141 80 -141q22 0 47 6l15 4v317l-37 -6q-104 -16 -105 -180z" />
<glyph unicode="&#xe2;" horiz-adv-x="1263" d="M51 276q0 152 107.5 220.5t320.5 95.5l191 24v19q0 80 -41 114.5t-129 34.5q-111 0 -289 -51l-94 -28l-54 319l107 31q256 74 465 73q494 0 493 -415v-555l105 -47l-31 -121l-205 53q-74 25 -161 4l-105 -24q-166 -39 -293 -39q-387 0 -387 292zM170 1321l448 334 l441 -332l-55 -111l-386 105l-405 -107zM528 291q0 -141 80 -141q22 0 47 6l15 4v317l-37 -6q-104 -16 -105 -180z" />
<glyph unicode="&#xe3;" horiz-adv-x="1263" d="M51 276q0 152 107.5 220.5t320.5 95.5l191 24v19q0 80 -41 114.5t-129 34.5q-111 0 -289 -51l-94 -28l-54 319l107 31q256 74 465 73q494 0 493 -415v-555l105 -47l-31 -121l-205 53q-74 25 -161 4l-105 -24q-166 -39 -293 -39q-387 0 -387 292zM154 1231 q10 170 93 284.5t214 114.5q90 0 199.5 -65.5t158.5 -65.5q57 0 89 28.5t59 100.5l118 -35q-10 -170 -93 -284.5t-214 -114.5q-84 0 -147.5 33t-112.5 65.5t-98 32.5q-57 0 -89 -28.5t-59 -100.5zM528 291q0 -141 80 -141q22 0 47 6l15 4v317l-37 -6q-104 -16 -105 -180z " />
<glyph unicode="&#xe4;" horiz-adv-x="1263" d="M51 276q0 152 107.5 220.5t320.5 95.5l191 24v19q0 80 -41 114.5t-129 34.5q-111 0 -289 -51l-94 -28l-54 319l107 31q256 74 465 73q494 0 493 -415v-555l105 -47l-31 -121l-205 53q-74 25 -161 4l-105 -24q-166 -39 -293 -39q-387 0 -387 292zM115 1421 q0 96 63.5 151.5t177.5 55.5q119 0 183.5 -55t64.5 -152q0 -94 -64.5 -148t-183.5 -54q-115 0 -178 54t-63 148zM528 291q0 -141 80 -141q22 0 47 6l15 4v317l-37 -6q-104 -16 -105 -180zM641 1421q0 96 63.5 151.5t178.5 55.5q119 0 183 -55t64 -152q0 -94 -64.5 -148 t-182.5 -54q-115 0 -178.5 54t-63.5 148z" />
<glyph unicode="&#xe5;" horiz-adv-x="1263" d="M51 276q0 152 107.5 220.5t320.5 95.5l191 24v19q0 80 -41 114.5t-129 34.5q-111 0 -289 -51l-94 -28l-54 319l107 31q256 74 465 73q494 0 493 -415v-555l105 -47l-31 -121l-205 53q-74 25 -161 4l-105 -24q-166 -39 -293 -39q-387 0 -387 292zM307 1456q0 121 81 190.5 t226 69.5q152 0 232 -68.5t80 -191.5q0 -119 -80 -187.5t-232 -68.5q-145 0 -226 68.5t-81 187.5zM514 1458q0 -86 102.5 -86t102.5 86t-102.5 86t-102.5 -86zM528 291q0 -141 80 -141q22 0 47 6l15 4v317l-37 -6q-104 -16 -105 -180z" />
<glyph unicode="&#xe6;" horiz-adv-x="1837" d="M51 276q0 152 107.5 220.5t320.5 95.5l191 24v19q0 80 -41 114.5t-129 34.5q-111 0 -289 -51l-94 -28l-54 319l107 31q256 74 465 73q203 0 313 -71q119 74 299 73q262 0 398.5 -135t136.5 -350q0 -51 -31 -82t-82 -31h-528q39 -221 262 -221q98 0 203 27l118 31l62 -289 l-113 -35q-209 -63 -399 -63q-180 0 -322 59q-59 25 -151 2l-72 -18q-158 -41 -291 -41q-387 0 -387 292zM528 291q0 -141 80 -141q26 0 51 6l115 28q-84 115 -100 293l-41 -6q-104 -12 -105 -180zM1133 659h198q0 172 -17.5 260.5t-74.5 88.5q-106 -1 -106 -349z" />
<glyph unicode="&#xe7;" horiz-adv-x="1114" d="M61 553q0 276 158 423.5t420 147.5q121 0 229.5 -25.5t155.5 -51.5l49 -27l-110 -432q-143 348 -281 348q-82 0 -121 -70.5t-39 -232.5q0 -299 226 -299q78 0 165 24l99 29l55 -307l-100 -35q-186 -63 -357 -63q-272 0 -410.5 148.5t-138.5 422.5zM281 -383l38 162 q6 -2 36 -17.5t42.5 -19.5t39 -14.5t51 -13.5t51.5 -3q98 0 98 43q0 68 -231 39l-13 23l133 184h170l-75 -98q141 8 217.5 -34t76.5 -126q0 -86 -88 -139.5t-243.5 -53.5t-302.5 68z" />
<glyph unicode="&#xe8;" horiz-adv-x="1226" d="M61 555q0 291 163 433t413 142q262 0 398 -135t136 -350q0 -51 -30.5 -82t-81.5 -31h-529q39 -221 263 -221q98 0 202 27l119 31l62 -289l-113 -35q-209 -63 -399 -63q-303 0 -453 148.5t-150 424.5zM274 1462q0 88 56.5 140.5t138.5 52.5q88 0 158 -58l329 -274 l-41 -111l-426 39q-104 8 -159.5 66.5t-55.5 144.5zM522 659h199q0 172 -17.5 260.5t-74.5 88.5q-107 -1 -107 -349z" />
<glyph unicode="&#xe9;" horiz-adv-x="1226" d="M61 555q0 291 163 433t413 142q262 0 398 -135t136 -350q0 -51 -30.5 -82t-81.5 -31h-529q39 -221 263 -221q98 0 202 27l119 31l62 -289l-113 -35q-209 -63 -399 -63q-303 0 -453 148.5t-150 424.5zM342 1323l336 274q70 57 158 58q82 0 135 -52.5t53 -140.5 q0 -86 -55.5 -144t-159.5 -67l-426 -39zM522 659h199q0 172 -17.5 260.5t-74.5 88.5q-107 -1 -107 -349z" />
<glyph unicode="&#xea;" horiz-adv-x="1226" d="M61 555q0 291 163 433t413 142q262 0 398 -135t136 -350q0 -51 -30.5 -82t-81.5 -31h-529q39 -221 263 -221q98 0 202 27l119 31l62 -289l-113 -35q-209 -63 -399 -63q-303 0 -453 148.5t-150 424.5zM186 1321l449 334l440 -332l-55 -111l-385 105l-406 -107zM522 659 h199q0 172 -17.5 260.5t-74.5 88.5q-107 -1 -107 -349z" />
<glyph unicode="&#xeb;" horiz-adv-x="1226" d="M61 555q0 291 163 433t413 142q262 0 398 -135t136 -350q0 -51 -30.5 -82t-81.5 -31h-529q39 -221 263 -221q98 0 202 27l119 31l62 -289l-113 -35q-209 -63 -399 -63q-303 0 -453 148.5t-150 424.5zM119 1421q0 96 63.5 151.5t177.5 55.5q119 0 183.5 -55t64.5 -152 q0 -94 -64.5 -148t-183.5 -54q-115 0 -178 54t-63 148zM522 659h199q0 172 -17.5 260.5t-74.5 88.5q-107 -1 -107 -349zM645 1421q0 96 63.5 151.5t178.5 55.5q119 0 183.5 -55t64.5 -152q0 -94 -64.5 -148t-183.5 -54q-115 0 -178.5 54t-63.5 148z" />
<glyph unicode="&#xec;" horiz-adv-x="800" d="M14 1462q0 88 56.5 140.5t138.5 52.5q88 0 158 -58l329 -274l-41 -111l-426 39q-104 8 -159.5 66.5t-55.5 144.5zM51 0v123h135v856h-127v123h594v-979h127v-123h-729z" />
<glyph unicode="&#xed;" horiz-adv-x="800" d="M51 0v123h135v856h-127v123h594v-979h127v-123h-729zM88 1323l336 274q70 57 158 58q82 0 135 -52.5t53 -140.5q0 -86 -55.5 -144t-159.5 -67l-426 -39z" />
<glyph unicode="&#xee;" horiz-adv-x="800" d="M-63 1321l448 334l440 -332l-55 -111l-385 105l-405 -107zM51 0v123h135v856h-127v123h594v-979h127v-123h-729z" />
<glyph unicode="&#xef;" horiz-adv-x="800" d="M-127 1421q0 96 63.5 151.5t178.5 55.5q119 0 183 -55t64 -152q0 -94 -64.5 -148t-182.5 -54q-115 0 -178.5 54t-63.5 148zM51 0v123h135v856h-127v123h594v-979h127v-123h-729zM399 1421q0 96 63.5 151.5t178.5 55.5q119 0 183.5 -55t64.5 -152q0 -94 -64.5 -148 t-183.5 -54q-115 0 -178.5 54t-63.5 148z" />
<glyph unicode="&#xf0;" horiz-adv-x="1310" d="M61 514q0 229 136.5 378.5t423.5 149.5q33 0 67.5 -5t52.5 -9l21 -6v84q0 82 -8 137l-308 -127v182l259 105q-61 94 -209 94h-111v123h213q252 0 410 -94l272 110v-176l-139 -57q90 -131 90 -324v-587q0 -236 -154.5 -370t-433.5 -134q-295 0 -438.5 144t-143.5 382z M539 514q0 -211 23.5 -304t92.5 -93q63 0 85 88t22 319v353q-25 18 -103 18q-74 0 -97 -87t-23 -294z" />
<glyph unicode="&#xf1;" horiz-adv-x="1443" d="M51 0v123h137v825l-131 43l27 123l213 -45q86 -18 168 -2l135 33q98 25 244 24q223 0 337.5 -102t114.5 -285v-614h127v-123h-659v123h76v622q0 190 -121 191q-20 0 -40 -4t-28 -8l-8 -4v-797h74v-123h-666zM297 1231q10 170 93 284.5t214 114.5q90 0 199.5 -65.5 t159.5 -65.5q57 0 88.5 28.5t58.5 100.5l119 -35q-10 -170 -93 -284.5t-214 -114.5q-84 0 -147.5 33t-113 65.5t-98.5 32.5q-57 0 -88.5 -28.5t-58.5 -100.5z" />
<glyph unicode="&#xf2;" horiz-adv-x="1361" d="M61 555q0 258 169 415.5t454 157.5q279 0 447.5 -153.5t168.5 -411.5q0 -264 -168.5 -419.5t-453.5 -155.5q-281 0 -449 153.5t-168 413.5zM338 1462q0 88 56.5 140.5t137.5 52.5q88 0 158 -58l330 -274l-41 -111l-426 39q-104 8 -159.5 66.5t-55.5 144.5zM557 557 q0 -227 27.5 -334.5t107.5 -107.5q74 0 93.5 99t19.5 339q0 231 -26.5 338.5t-106.5 107.5q-74 0 -94.5 -101t-20.5 -341z" />
<glyph unicode="&#xf3;" horiz-adv-x="1361" d="M61 555q0 258 169 415.5t454 157.5q279 0 447.5 -153.5t168.5 -411.5q0 -264 -168.5 -419.5t-453.5 -155.5q-281 0 -449 153.5t-168 413.5zM397 1323l336 274q70 57 158 58q82 0 135 -52.5t53 -140.5q0 -86 -55 -144t-160 -67l-426 -39zM557 557q0 -227 27.5 -334.5 t107.5 -107.5q74 0 93.5 99t19.5 339q0 231 -26.5 338.5t-106.5 107.5q-74 0 -94.5 -101t-20.5 -341z" />
<glyph unicode="&#xf4;" horiz-adv-x="1361" d="M61 555q0 258 169 415.5t454 157.5q279 0 447.5 -153.5t168.5 -411.5q0 -264 -168.5 -419.5t-453.5 -155.5q-281 0 -449 153.5t-168 413.5zM236 1321l448 334l440 -332l-55 -111l-385 105l-405 -107zM557 557q0 -227 27.5 -334.5t107.5 -107.5q74 0 93.5 99t19.5 339 q0 231 -26.5 338.5t-106.5 107.5q-74 0 -94.5 -101t-20.5 -341z" />
<glyph unicode="&#xf5;" horiz-adv-x="1361" d="M61 555q0 258 169 415.5t454 157.5q279 0 447.5 -153.5t168.5 -411.5q0 -264 -168.5 -419.5t-453.5 -155.5q-281 0 -449 153.5t-168 413.5zM250 1231q10 170 93 284.5t214 114.5q90 0 199.5 -65.5t158.5 -65.5q57 0 89 28.5t59 100.5l119 -35q-10 -170 -93 -284.5 t-215 -114.5q-84 0 -147 33t-112.5 65.5t-98.5 32.5q-57 0 -88.5 -28.5t-58.5 -100.5zM557 557q0 -227 27.5 -334.5t107.5 -107.5q74 0 93.5 99t19.5 339q0 231 -26.5 338.5t-106.5 107.5q-74 0 -94.5 -101t-20.5 -341z" />
<glyph unicode="&#xf6;" horiz-adv-x="1361" d="M61 555q0 258 169 415.5t454 157.5q279 0 447.5 -153.5t168.5 -411.5q0 -264 -168.5 -419.5t-453.5 -155.5q-281 0 -449 153.5t-168 413.5zM166 1421q0 96 63.5 151.5t178.5 55.5q119 0 183 -55t64 -152q0 -94 -64.5 -148t-182.5 -54q-115 0 -178.5 54t-63.5 148z M557 557q0 -227 27.5 -334.5t107.5 -107.5q74 0 93.5 99t19.5 339q0 231 -26.5 338.5t-106.5 107.5q-74 0 -94.5 -101t-20.5 -341zM692 1421q0 96 63.5 151.5t178.5 55.5q119 0 183.5 -55t64.5 -152q0 -94 -64.5 -148t-183.5 -54q-115 0 -178.5 54t-63.5 148z" />
<glyph unicode="&#xf7;" d="M123 518v248h1044v-248h-1044zM463 239.5q0 71.5 49 115.5t131 44q84 0 132 -43t48 -116q0 -72 -48 -115t-132 -43q-82 0 -131 43t-49 114.5zM463 1040.5q0 71.5 49 115.5t131 44q84 0 132 -44t48 -115.5t-48 -114.5t-132 -43q-82 0 -131 43t-49 114.5z" />
<glyph unicode="&#xf8;" horiz-adv-x="1361" d="M61 555q0 258 169 415.5t454 157.5q76 0 143 -12l45 98h232l-80 -163q131 -72 203.5 -198t72.5 -290q0 -264 -168.5 -419.5t-453.5 -155.5q-66 0 -137 10l-49 -107h-236l82 172q-131 70 -204 197t-73 295zM549 530l203 424q-33 45 -80 45q-74 0 -98.5 -105.5 t-24.5 -336.5v-27zM614 156q29 -41 78 -41q74 0 97.5 103.5t23.5 334.5v20z" />
<glyph unicode="&#xf9;" horiz-adv-x="1415" d="M20 979v123h586v-746q0 -190 121 -190q20 0 39.5 4t28.5 8l8 4v797h-117v123h574v-948l135 -50l-25 -116l-219 45q-86 18 -170 2l-135 -33q-98 -25 -244 -25q-223 0 -339 104t-116 284v614h-127zM297 1462q0 88 56.5 140.5t138.5 52.5q88 0 157 -58l330 -274l-41 -111 l-426 39q-104 8 -159.5 66.5t-55.5 144.5z" />
<glyph unicode="&#xfa;" horiz-adv-x="1415" d="M20 979v123h586v-746q0 -190 121 -190q20 0 39.5 4t28.5 8l8 4v797h-117v123h574v-948l135 -50l-25 -116l-219 45q-86 18 -170 2l-135 -33q-98 -25 -244 -25q-223 0 -339 104t-116 284v614h-127zM375 1323l336 274q70 57 157 58q82 0 135.5 -52.5t53.5 -140.5 q0 -86 -55.5 -144t-159.5 -67l-426 -39z" />
<glyph unicode="&#xfb;" horiz-adv-x="1415" d="M20 979v123h586v-746q0 -190 121 -190q20 0 39.5 4t28.5 8l8 4v797h-117v123h574v-948l135 -50l-25 -116l-219 45q-86 18 -170 2l-135 -33q-98 -25 -244 -25q-223 0 -339 104t-116 284v614h-127zM219 1321l449 334l440 -332l-55 -111l-385 105l-406 -107z" />
<glyph unicode="&#xfc;" horiz-adv-x="1415" d="M20 979v123h586v-746q0 -190 121 -190q20 0 39.5 4t28.5 8l8 4v797h-117v123h574v-948l135 -50l-25 -116l-219 45q-86 18 -170 2l-135 -33q-98 -25 -244 -25q-223 0 -339 104t-116 284v614h-127zM162 1421q0 96 63.5 151.5t177.5 55.5q119 0 183.5 -55t64.5 -152 q0 -94 -64.5 -148t-183.5 -54q-115 0 -178 54t-63 148zM688 1421q0 96 63.5 151.5t178.5 55.5q119 0 183.5 -55t64.5 -152q0 -94 -64.5 -148t-183.5 -54q-115 0 -178.5 54t-63.5 148z" />
<glyph unicode="&#xfd;" horiz-adv-x="1339" d="M20 979v123h744v-123h-131l166 -512l143 512h-123v123h500v-123h-131l-326 -1004q-68 -213 -179.5 -302t-301.5 -89q-78 0 -149.5 13.5t-104.5 27.5l-33 15l70 346q129 -190 244 -191q72 0 106.5 35t52.5 109l-424 1040h-123zM387 1323l336 274q70 57 158 58 q82 0 135 -52.5t53 -140.5q0 -86 -55.5 -144t-159.5 -67l-426 -39z" />
<glyph unicode="&#xfe;" horiz-adv-x="1359" d="M20 -279h138v1776h-138v123h598v-506q78 14 130 14q281 0 415.5 -149.5t134.5 -411.5q0 -266 -141 -425.5t-409 -159.5l-130 14v-275h146v-122h-744v122zM618 141q12 -8 56 -8q147 0 147 420q0 424 -147 424l-56 -8v-828z" />
<glyph unicode="&#xff;" horiz-adv-x="1339" d="M20 979v123h744v-123h-131l166 -512l143 512h-123v123h500v-123h-131l-326 -1004q-68 -213 -179.5 -302t-301.5 -89q-78 0 -149.5 13.5t-104.5 27.5l-33 15l70 346q129 -190 244 -191q72 0 106.5 35t52.5 109l-424 1040h-123zM180 1421q0 96 63.5 151.5t178.5 55.5 q119 0 183.5 -55t64.5 -152q0 -94 -64.5 -148t-183.5 -54q-115 0 -178.5 54t-63.5 148zM707 1421q0 96 63.5 151.5t177.5 55.5q119 0 183.5 -55t64.5 -152q0 -94 -64.5 -148t-183.5 -54q-115 0 -178 54t-63 148z" />
<glyph unicode="&#x152;" horiz-adv-x="2181" d="M41 758q0 201 63.5 352.5t175 239.5t250 131t299.5 43h983q82 0 152 -6.5t100 -12.5l29 -6l-35 -424q-236 322 -477 322h-141v-559h254v182h143v-488h-143v173h-254v-578h168q242 0 477 322l35 -424q-98 -25 -281 -25h-1024q-166 0 -302 41t-243.5 128t-168 236.5 t-60.5 352.5zM575 768q0 -340 62 -492.5t209 -152.5h76v1282h-80q-147 0 -207 -153.5t-60 -483.5z" />
<glyph unicode="&#x153;" horiz-adv-x="2023" d="M61 555q0 258 169 415.5t454 157.5q238 0 385 -116q137 119 365 118q262 0 398 -135t136 -350q0 -51 -29.5 -82t-83.5 -31h-528q39 -221 262 -221q98 0 203 27l119 31l61 -289l-112 -35q-209 -63 -400 -63q-262 0 -401 116q-145 -111 -381 -110q-281 0 -449 153.5 t-168 413.5zM557 557q0 -227 27.5 -334.5t107.5 -107.5q74 0 93.5 99t19.5 339q0 231 -26.5 338.5t-106.5 107.5q-74 0 -94.5 -101t-20.5 -341zM1319 659h199q0 172 -17.5 260.5t-75.5 88.5q-106 -1 -106 -349z" />
<glyph unicode="&#x178;" horiz-adv-x="1705" d="M31 1395v129h856v-129h-127l248 -500l245 500h-135v129h557v-129h-145l-422 -738v-530h152v-127h-844v125h164v514l-412 756h-137zM362 1786q0 96 63.5 151.5t178.5 55.5q119 0 183.5 -55.5t64.5 -151.5q0 -94 -64.5 -148.5t-183.5 -54.5q-115 0 -178.5 54.5t-63.5 148.5 zM889 1786q0 96 63.5 151.5t177.5 55.5q119 0 183.5 -55.5t64.5 -151.5q0 -94 -64.5 -148.5t-183.5 -54.5q-115 0 -178 54.5t-63 148.5z" />
<glyph unicode="&#x2c6;" horiz-adv-x="1024" d="M68 1321l448 334l440 -332l-55 -111l-385 105l-405 -107z" />
<glyph unicode="&#x2dc;" horiz-adv-x="1024" d="M66 1243q10 170 93 284.5t214 114.5q90 0 199.5 -65.5t158.5 -65.5q57 0 89 29t59 100l118 -34q-10 -170 -93 -285t-214 -115q-84 0 -147.5 33t-112.5 65.5t-98 32.5q-57 0 -89 -28.5t-59 -100.5z" />
<glyph unicode="&#x2000;" horiz-adv-x="1014" />
<glyph unicode="&#x2001;" horiz-adv-x="2028" />
<glyph unicode="&#x2002;" horiz-adv-x="1014" />
<glyph unicode="&#x2003;" horiz-adv-x="2028" />
<glyph unicode="&#x2004;" horiz-adv-x="676" />
<glyph unicode="&#x2005;" horiz-adv-x="507" />
<glyph unicode="&#x2006;" horiz-adv-x="338" />
<glyph unicode="&#x2007;" horiz-adv-x="338" />
<glyph unicode="&#x2008;" horiz-adv-x="253" />
<glyph unicode="&#x2009;" horiz-adv-x="405" />
<glyph unicode="&#x200a;" horiz-adv-x="112" />
<glyph unicode="&#x2010;" horiz-adv-x="927" d="M102 518v250h723v-250h-723z" />
<glyph unicode="&#x2011;" horiz-adv-x="927" d="M102 518v250h723v-250h-723z" />
<glyph unicode="&#x2012;" horiz-adv-x="927" d="M102 518v250h723v-250h-723z" />
<glyph unicode="&#x2013;" d="M123 518v250h1044v-250h-1044z" />
<glyph unicode="&#x2014;" horiz-adv-x="2048" d="M123 518v248h1802v-248h-1802z" />
<glyph unicode="&#x2018;" horiz-adv-x="593" d="M39 1151q0 82 55 141l336 355l127 -58l-102 -479q-18 -84 -77 -122t-128 -38q-90 0 -150.5 53.5t-60.5 147.5z" />
<glyph unicode="&#x2019;" horiz-adv-x="593" d="M39 985l102 479q18 84 76.5 122t128.5 38q90 0 150.5 -53t60.5 -148q0 -84 -55 -141l-336 -354z" />
<glyph unicode="&#x201a;" horiz-adv-x="593" d="M18 -244l103 480q23 82 80 120.5t125 38.5q90 0 150.5 -53t60.5 -147q0 -84 -56 -142l-336 -354z" />
<glyph unicode="&#x201c;" horiz-adv-x="1077" d="M39 1151q0 82 55 141l336 355l127 -58l-102 -479q-18 -84 -77 -122t-128 -38q-90 0 -150.5 53.5t-60.5 147.5zM522 1151q1 82 56 141l335 355l127 -58l-102 -479q-18 -84 -76.5 -122t-128.5 -38q-90 0 -150.5 53.5t-60.5 147.5z" />
<glyph unicode="&#x201d;" horiz-adv-x="1077" d="M39 985l102 479q18 84 76.5 122t128.5 38q90 0 150.5 -53t60.5 -148q0 -84 -55 -141l-336 -354zM522 985l103 479q18 84 76.5 122t127.5 38q90 0 150.5 -53t60.5 -148q0 -84 -55 -141l-336 -354z" />
<glyph unicode="&#x201e;" horiz-adv-x="1077" d="M18 -244l103 480q18 84 76.5 121.5t128.5 37.5q90 0 150.5 -53t60.5 -147q0 -84 -56 -142l-336 -354zM502 -244l102 480q18 84 76.5 121.5t128.5 37.5q90 0 150.5 -53t60.5 -147q0 -84 -55 -142l-336 -354z" />
<glyph unicode="&#x2022;" horiz-adv-x="915" d="M102 702q0 168 94.5 262.5t260.5 94.5q168 0 262 -94.5t94 -262.5q0 -170 -94 -263t-262 -93q-166 0 -260.5 93t-94.5 263z" />
<glyph unicode="&#x2026;" horiz-adv-x="1781" d="M41 195q0 100 67.5 158.5t184.5 58.5q123 0 191.5 -58.5t68.5 -158.5q0 -98 -69.5 -155.5t-190.5 -57.5q-117 0 -184.5 58.5t-67.5 154.5zM635 195q0 100 67.5 158.5t184.5 58.5q123 0 191.5 -58.5t68.5 -158.5q0 -98 -69.5 -155.5t-190.5 -57.5q-117 0 -184.5 58.5 t-67.5 154.5zM1229 195q0 100 67.5 158.5t184.5 58.5q123 0 191.5 -58.5t68.5 -158.5q0 -98 -69.5 -155.5t-190.5 -57.5q-117 0 -184.5 58.5t-67.5 154.5z" />
<glyph unicode="&#x202f;" horiz-adv-x="405" />
<glyph unicode="&#x2039;" horiz-adv-x="841" d="M102 590l492 491l145 -100l-211 -389l211 -391l-145 -101z" />
<glyph unicode="&#x203a;" horiz-adv-x="841" d="M102 201l211 391l-211 389l146 100l491 -491l-491 -490z" />
<glyph unicode="&#x205f;" horiz-adv-x="507" />
<glyph unicode="&#x20ac;" d="M33 571v125h178v142h-178v125h178q0 287 163 432t429 145q121 0 229.5 -26.5t155.5 -51.5l49 -26l-111 -432q-143 348 -280 348q-57 0 -92 -27t-58.5 -115t-23.5 -247h329v-125h-329v-142h329v-125h-329q8 -240 239 -239q78 0 166 24l99 29l55 -305l-101 -35 q-186 -63 -356 -63q-274 0 -418.5 152.5t-144.5 436.5h-178z" />
<glyph unicode="&#x2122;" horiz-adv-x="2232" d="M82 1509q66 14 168 15h491q45 0 87 -4t61 -9l20 -2l-20 -282q-102 184 -230 184h-14v-635h84v-112h-475v112h92v635h-14q-119 0 -230 -184zM995 664v112h88v633h-88v115h312q150 0 172 -121l96 -457l115 457q29 121 172 121h288v-115h-88v-633h86v-112h-432v112h74v502 l-123 -496q-27 -119 -160 -118q-127 0 -157 118l-123 498v-504h71v-112h-303z" />
<glyph unicode="&#x25fc;" horiz-adv-x="1105" d="M0 0v1106h1106v-1106h-1106z" />
</font>
</defs>
</svg>
